<svg version="1.1" xmlns="http://www.w3.org/2000/svg" viewBox="0 0 1000.769000704541 440.80746920851385" width="2001.538001409082" height="881.6149384170277" filter="invert(93%) hue-rotate(180deg)">
  <!-- svg-source:excalidraw -->
  
  <defs>
    <style class="style-fonts">
      @font-face {
        font-family: "Virgil";
        src: url("https://excalidraw.com/Virgil.woff2");
      }
      @font-face {
        font-family: "Cascadia";
        src: url("https://excalidraw.com/Cascadia.woff2");
      }
    </style>
  </defs>
  <rect x="0" y="0" width="1000.769000704541" height="440.80746920851385" fill="#ffffff"></rect><g transform="translate(251.53515625 33.54169019468412) rotate(0 89.5 12.5)"><text x="0" y="18" font-family="Virgil, Segoe UI Emoji" font-size="20px" fill="#000000" text-anchor="start" style="white-space: pre;" direction="ltr">&lt;script src="..." /&gt;</text></g><g transform="translate(247.1875 201.34247144468412) rotate(0 121 12.5)"><text x="0" y="18" font-family="Virgil, Segoe UI Emoji" font-size="20px" fill="#000000" text-anchor="start" style="white-space: pre;" direction="ltr">&lt;script async src="..." /&gt;</text></g><g transform="translate(244.83984375 385.1159089446841) rotate(0 120.5 12.5)"><text x="0" y="18" font-family="Virgil, Segoe UI Emoji" font-size="20px" fill="#000000" text-anchor="start" style="white-space: pre;" direction="ltr">&lt;script defer src="..." /&gt;</text></g><g stroke-linecap="round"><g transform="translate(133.06380705440148 53.40304330336153) rotate(0 51.58720598922247 0.8140680616891274)"><path d="M0.18 0.99 C3.8 2.86, 5.13 12.18, 22.49 10.5 C39.86 8.82, 90.48 -5.81, 104.35 -9.07 M-1.18 0.47 C2.27 2.03, 4.48 10.07, 21.9 8.62 C39.32 7.17, 89.25 -5.37, 103.35 -8.22" stroke="#000000" stroke-width="1" fill="none"></path></g><g transform="translate(133.06380705440148 53.40304330336153) rotate(0 51.58720598922247 0.8140680616891274)"><path d="M79.75 9.12 C88.19 1.27, 95.18 -2.33, 101.82 -8.56 M79.02 8.29 C84.01 4.52, 90.23 -1.44, 102.83 -7.96" stroke="#000000" stroke-width="1" fill="none"></path></g><g transform="translate(133.06380705440148 53.40304330336153) rotate(0 51.58720598922247 0.8140680616891274)"><path d="M75.25 -10.9 C85.21 -11.44, 93.85 -7.73, 101.82 -8.56 M74.52 -11.73 C80.75 -10.41, 88.13 -11.23, 102.83 -7.96" stroke="#000000" stroke-width="1" fill="none"></path></g></g><mask></mask><g stroke-linecap="round"><g transform="translate(106.54736500950554 215.53387769468412) rotate(0 62.15359529537136 5.742490249382399)"><path d="M0.48 -0.74 C7.71 1.87, 22.73 14.8, 43.49 14.49 C64.25 14.19, 111.54 0.32, 125.04 -2.56 M-0.73 1.49 C6.43 4.38, 22.33 16.88, 43.14 15.89 C63.95 14.9, 110.58 -0.98, 124.11 -4.46" stroke="#000000" stroke-width="1" fill="none"></path></g><g transform="translate(106.54736500950554 215.53387769468412) rotate(0 62.15359529537136 5.742490249382399)"><path d="M98.73 15.22 C107.13 7.23, 116.44 0.84, 125.17 -6.14 M100.08 13.92 C107.19 6.51, 116.48 2.15, 124.71 -3.64" stroke="#000000" stroke-width="1" fill="none"></path></g><g transform="translate(106.54736500950554 215.53387769468412) rotate(0 62.15359529537136 5.742490249382399)"><path d="M92.94 -4.46 C102.93 -6.41, 114.03 -6.73, 125.17 -6.14 M94.29 -5.77 C103.26 -6.58, 114.49 -4.35, 124.71 -3.64" stroke="#000000" stroke-width="1" fill="none"></path></g></g><mask></mask><g stroke-linecap="round"><g transform="translate(83.93601662068193 392.1393464446841) rotate(0 72.60593936034232 13.04668850770264)"><path d="M-0.62 1.12 C9.71 5.43, 37.63 24.48, 62.03 25.39 C86.44 26.31, 132.02 9.55, 145.83 6.61 M1.26 0.66 C11.96 4.63, 40.36 22.23, 64.33 23.42 C88.3 24.61, 131.68 10.75, 145.07 7.79" stroke="#000000" stroke-width="1" fill="none"></path></g><g transform="translate(83.93601662068193 392.1393464446841) rotate(0 72.60593936034232 13.04668850770264)"><path d="M122.25 23.51 C128.53 19.72, 135.21 12.87, 146.51 9.04 M119.46 25.39 C128.81 18.45, 135.35 14.39, 145.75 7.34" stroke="#000000" stroke-width="1" fill="none"></path></g><g transform="translate(83.93601662068193 392.1393464446841) rotate(0 72.60593936034232 13.04668850770264)"><path d="M117.07 3.66 C124.88 6.01, 133.15 5.29, 146.51 9.04 M114.28 5.54 C125.16 4.81, 133.33 7.01, 145.75 7.34" stroke="#000000" stroke-width="1" fill="none"></path></g></g><mask></mask><g transform="translate(81.30729920496924 14.870903888590902) rotate(0 23.5 12.5)"><text x="0" y="18" font-family="Virgil, Segoe UI Emoji" font-size="20px" fill="#000000" text-anchor="start" style="white-space: pre;" direction="ltr">Plain</text></g><g transform="translate(10 178.85809644468412) rotate(0 71 12.5)"><text x="0" y="18" font-family="Virgil, Segoe UI Emoji" font-size="20px" fill="#000000" text-anchor="start" style="white-space: pre;" direction="ltr">script + async</text></g><g transform="translate(17.3046875 359.1041901946841) rotate(0 70 12.5)"><text x="0" y="18" font-family="Virgil, Segoe UI Emoji" font-size="20px" fill="#000000" text-anchor="start" style="white-space: pre;" direction="ltr">script + defer</text></g><g stroke-linecap="round" transform="translate(507.80078125 29.139346444684122) rotate(0 7.107421875 7.115234375)"><path d="M0.78 4.65 C0.78 4.65, 0.78 4.65, 0.78 4.65 M0.78 4.65 C0.78 4.65, 0.78 4.65, 0.78 4.65 M0.1 10.59 C3.43 8.36, 4.44 6.22, 10.92 1.57 M1.11 10.7 C3.27 7.93, 6.56 4.48, 9.92 0.87 M3.61 13.17 C5.58 10.29, 8.86 7.92, 11.09 4.83 M4.08 13.27 C6.66 9.37, 9.89 7, 11.99 4.11 M9 13.34 C10.26 12.18, 12.55 10.32, 13.62 6.4 M8.77 14.34 C10.77 11.94, 12.43 9.28, 14.32 6.82" stroke="#ced4da" stroke-width="0.5" fill="none"></path><path d="M5.19 -0.04 C6.31 -0.57, 7.66 -0.53, 8.9 0.1 C10.13 0.74, 11.73 2.57, 12.57 3.76 C13.42 4.96, 14.21 5.99, 13.98 7.27 C13.75 8.55, 12.28 10.39, 11.17 11.44 C10.05 12.49, 8.53 13.44, 7.3 13.57 C6.07 13.71, 5.03 13.07, 3.78 12.25 C2.53 11.44, 0.27 10.02, -0.18 8.69 C-0.63 7.37, 0.24 5.7, 1.06 4.32 C1.89 2.93, 3.75 1.01, 4.77 0.39 C5.79 -0.24, 7.05 0.33, 7.17 0.56 M4.33 1.25 C5.61 0.6, 7.81 1.03, 9.22 1.46 C10.64 1.89, 12.18 2.57, 12.84 3.84 C13.5 5.11, 13.45 7.81, 13.19 9.07 C12.92 10.33, 12.09 10.32, 11.24 11.39 C10.39 12.47, 9.49 15.25, 8.09 15.52 C6.68 15.8, 4.09 14.34, 2.81 13.03 C1.52 11.72, 0.84 8.92, 0.35 7.64 C-0.13 6.36, -0.55 6.72, -0.08 5.36 C0.39 3.99, 2.34 0.46, 3.18 -0.55 C4.01 -1.56, 4.92 -1.16, 4.93 -0.7" stroke="#000000" stroke-width="1" fill="none"></path></g><g stroke-linecap="round" transform="translate(865.226031954541 25.386791253117508) rotate(0 7.107421875 7.115234375)"><path d="M4.59 0.01 C4.59 0.01, 4.59 0.01, 4.59 0.01 M4.59 0.01 C4.59 0.01, 4.59 0.01, 4.59 0.01 M3.77 8.78 C4.96 5.51, 6.32 5.03, 8.68 0.88 M2.79 7.59 C4.05 6.17, 5.31 5.2, 9.35 1.28 M3.7 14.96 C7.05 10.66, 9.78 6.89, 13.27 3.19 M4 13.26 C5.02 11.2, 7.35 8.27, 13.08 3.01 M8.13 14.78 C9.57 11.91, 11.7 10.04, 14.38 7.13 M8.1 13.84 C10 12.68, 10.79 11.19, 14.34 7.49" stroke="#ced4da" stroke-width="0.5" fill="none"></path><path d="M7.4 0.05 C8.83 0.38, 12 1.92, 13.1 2.98 C14.2 4.04, 14.03 4.89, 14.02 6.4 C14.01 7.91, 13.8 10.82, 13.03 12.03 C12.26 13.23, 11.01 13.36, 9.39 13.63 C7.77 13.9, 4.72 14.2, 3.32 13.65 C1.92 13.09, 1.48 11.73, 0.99 10.3 C0.49 8.86, -0.22 6.7, 0.34 5.02 C0.91 3.35, 2.91 1.05, 4.37 0.26 C5.83 -0.53, 8.1 -0.01, 9.11 0.26 C10.11 0.53, 10.47 1.86, 10.41 1.9 M9.59 -0.04 C11.12 0.35, 11.31 1.71, 11.92 2.74 C12.53 3.76, 13.33 4.74, 13.24 6.1 C13.15 7.46, 11.94 9.8, 11.4 10.91 C10.86 12.02, 11.24 12.36, 10 12.78 C8.75 13.19, 5.28 14.03, 3.92 13.42 C2.57 12.81, 2.67 10.7, 1.88 9.11 C1.09 7.51, -1.08 4.96, -0.81 3.86 C-0.54 2.77, 1.94 3.34, 3.51 2.54 C5.08 1.75, 7.84 -0.56, 8.64 -0.9 C9.43 -1.23, 8.5 0.45, 8.28 0.51" stroke="#000000" stroke-width="1" fill="none"></path></g><g stroke-linecap="round" transform="translate(834.2309601595159 190.19143248537688) rotate(0 7.107421875 7.115234375)"><path d="M2.5 0.85 C2.5 0.85, 2.5 0.85, 2.5 0.85 M2.5 0.85 C2.5 0.85, 2.5 0.85, 2.5 0.85 M1.93 6.67 C4.84 3.83, 7.45 2.92, 7.25 1.14 M2.65 7.12 C3.98 4.56, 5.91 2.42, 7.86 0.06 M2.77 11.84 C5.19 8.75, 6.61 7.14, 12.04 3.06 M3.67 12.48 C6.95 7.81, 10.49 4.72, 11.55 2.81 M6.61 13.94 C8.74 10.63, 12.31 8.26, 15.15 5.1 M6.46 14.32 C8.92 10.98, 12.29 7.35, 13.78 5.21" stroke="#ced4da" stroke-width="0.5" fill="none"></path><path d="M6.25 -0.71 C7.64 -0.94, 9.8 0.58, 11.11 1.78 C12.41 2.98, 13.82 4.91, 14.08 6.5 C14.34 8.09, 13.34 10.05, 12.67 11.31 C12 12.57, 11.36 13.57, 10.08 14.04 C8.8 14.51, 6.4 14.66, 4.97 14.14 C3.54 13.61, 2.3 12.24, 1.52 10.91 C0.74 9.59, 0.16 7.81, 0.28 6.18 C0.41 4.54, 1.12 2.17, 2.27 1.11 C3.42 0.04, 6.1 -0.08, 7.18 -0.19 C8.27 -0.29, 8.61 0.46, 8.78 0.47 M6.94 0.87 C8.68 1.06, 12.98 2.08, 14.03 2.88 C15.08 3.69, 13.67 4.3, 13.26 5.72 C12.85 7.13, 12.39 9.71, 11.59 11.36 C10.79 13.01, 9.75 15.51, 8.46 15.61 C7.16 15.71, 5.04 13.15, 3.81 11.95 C2.58 10.75, 1.79 9.86, 1.08 8.43 C0.36 6.99, -0.87 4.61, -0.49 3.33 C-0.1 2.05, 1.74 1.25, 3.39 0.75 C5.04 0.26, 8.8 0.2, 9.4 0.35 C10 0.5, 7.06 1.74, 6.98 1.64" stroke="#000000" stroke-width="1" fill="none"></path></g><g stroke-linecap="round" transform="translate(539.3613753696882 199.83602437825476) rotate(0 7.107421875 7.115234375)"><path d="M1.6 2.71 C1.6 2.71, 1.6 2.71, 1.6 2.71 M1.6 2.71 C1.6 2.71, 1.6 2.71, 1.6 2.71 M2.67 8.22 C3.47 7.58, 3.98 5.98, 6.86 1.7 M2.16 8.04 C3.85 6.58, 4.87 4.75, 7.35 1.94 M3.03 13.65 C7.84 8.08, 10.85 6.2, 12.7 3.48 M3.44 13.05 C5.35 9.5, 8.86 7.12, 12.36 2.82 M6.34 15.91 C7.26 12.48, 9.63 12.21, 14.4 6.08 M5.49 16.46 C9.86 12.26, 12.62 9.03, 14.4 6.11" stroke="#ced4da" stroke-width="0.5" fill="none"></path><path d="M6.38 0.92 C7.58 0.44, 8.87 -0.24, 10.23 0.59 C11.58 1.43, 13.91 4.25, 14.48 5.94 C15.06 7.63, 14.48 9.33, 13.68 10.73 C12.88 12.13, 11.09 13.69, 9.66 14.34 C8.23 14.99, 6.48 15.07, 5.1 14.65 C3.72 14.23, 2.38 13.22, 1.38 11.8 C0.37 10.37, -0.98 7.67, -0.92 6.12 C-0.85 4.58, 0.24 3.67, 1.75 2.53 C3.27 1.39, 7.2 -0.49, 8.19 -0.71 C9.17 -0.93, 7.75 0.91, 7.66 1.2 M6.26 0.92 C7.83 0.22, 9.49 -0.37, 10.93 0.28 C12.36 0.92, 14.36 3.59, 14.87 4.79 C15.39 6, 14.85 6.4, 14 7.53 C13.15 8.66, 10.83 10.24, 9.79 11.57 C8.75 12.9, 9.1 15.41, 7.76 15.51 C6.41 15.61, 2.83 13.7, 1.73 12.17 C0.63 10.64, 1.44 7.83, 1.16 6.32 C0.88 4.81, -0.57 4.08, 0.03 3.11 C0.62 2.14, 3.83 0.87, 4.73 0.5 C5.63 0.12, 5.19 0.63, 5.42 0.86" stroke="#000000" stroke-width="1" fill="none"></path></g><g stroke-linecap="round" transform="translate(535.0350380046666 389.7473900503758) rotate(0 7.107421875 7.115234375)"><path d="M0.61 3.18 C0.61 3.18, 0.61 3.18, 0.61 3.18 M0.61 3.18 C0.61 3.18, 0.61 3.18, 0.61 3.18 M1.3 9.08 C3.36 7.25, 4.11 5.01, 6.41 2.05 M1.15 8.78 C2.59 6.73, 4.51 4.41, 6.31 2.53 M2.38 13.9 C5.04 10.98, 8.76 8, 10.15 3.36 M2.81 12.97 C5.5 10.53, 6.7 7.58, 11.7 3.62 M6.16 15.85 C9.1 12.61, 11.55 10.75, 15.21 5.92 M5.81 14.97 C8.45 12.63, 11.17 9.26, 14.76 5.62" stroke="#ced4da" stroke-width="0.5" fill="none"></path><path d="M3.68 0.64 C4.82 -0.1, 7.12 -0.28, 8.63 0.31 C10.14 0.9, 11.8 2.83, 12.71 4.18 C13.63 5.54, 14.2 6.99, 14.15 8.45 C14.1 9.91, 13.71 11.88, 12.41 12.93 C11.12 13.98, 8 14.77, 6.38 14.76 C4.76 14.76, 3.64 13.84, 2.7 12.91 C1.76 11.98, 1.11 10.75, 0.73 9.17 C0.36 7.58, -0.32 4.78, 0.44 3.39 C1.19 1.99, 4.06 1.29, 5.29 0.78 C6.52 0.28, 7.8 0.33, 7.81 0.36 M9.8 1.21 C11.41 1.61, 13 1.43, 13.91 2.63 C14.83 3.84, 15.34 6.98, 15.27 8.43 C15.2 9.89, 14.86 10.64, 13.5 11.35 C12.13 12.07, 8.61 12.24, 7.08 12.73 C5.55 13.22, 5.62 15.08, 4.3 14.28 C2.97 13.48, -0.09 9.41, -0.85 7.94 C-1.62 6.47, -1.17 6.81, -0.29 5.46 C0.6 4.11, 3.13 0.73, 4.44 -0.14 C5.76 -1.01, 6.87 0.25, 7.62 0.24 C8.38 0.22, 8.95 -0.17, 8.99 -0.24" stroke="#000000" stroke-width="1" fill="none"></path></g><g stroke-linecap="round" transform="translate(619.12890625 28.127627694684122) rotate(0 7.107421875 7.115234375)"><path d="M0.61 4.51 C0.61 4.51, 0.61 4.51, 0.61 4.51 M0.61 4.51 C0.61 4.51, 0.61 4.51, 0.61 4.51 M0.73 10.29 C4.84 5, 8.4 2.03, 9.06 0.04 M2.07 9.26 C5.47 5.7, 8.16 2.11, 9.92 0.34 M2.85 13.23 C4.84 11.03, 7.83 7.39, 12.42 2.62 M3.9 14.02 C6.2 10.74, 7.79 7.93, 12.27 2.64 M6.59 14.81 C11.22 12.27, 11.85 8.88, 15.73 5.91 M7.61 15.9 C9.54 12.07, 13.14 8.69, 15.93 5.03" stroke="#ced4da" stroke-width="0.5" fill="none"></path><path d="M9.24 0.5 C10.6 0.86, 12 2.34, 12.92 3.39 C13.83 4.45, 14.88 5.32, 14.73 6.84 C14.57 8.36, 13.11 11.14, 11.99 12.51 C10.88 13.88, 9.64 15.14, 8.02 15.07 C6.39 14.99, 3.43 13.19, 2.23 12.08 C1.04 10.97, 1.15 9.61, 0.84 8.4 C0.54 7.18, -0.26 6.02, 0.38 4.77 C1.02 3.53, 3.09 1.81, 4.68 0.94 C6.27 0.06, 9.08 -0.38, 9.92 -0.47 C10.77 -0.57, 10.04 0.04, 9.73 0.35 M7.85 -0.62 C9.44 -0.31, 11.98 0.98, 13.27 2.09 C14.56 3.2, 15.86 4.41, 15.59 6.04 C15.32 7.66, 13.1 10.55, 11.64 11.83 C10.19 13.12, 8.35 13.46, 6.86 13.76 C5.37 14.05, 3.83 14.47, 2.71 13.61 C1.59 12.76, 0.36 10.21, 0.14 8.63 C-0.09 7.06, 0.61 5.57, 1.35 4.14 C2.09 2.72, 3.14 0.8, 4.55 0.09 C5.97 -0.62, 9.24 -0.2, 9.84 -0.13 C10.44 -0.06, 8.27 0.12, 8.15 0.49" stroke="#000000" stroke-width="1" fill="none"></path></g><g stroke-linecap="round" transform="translate(976.554156954541 24.375072503117508) rotate(0 7.107421875 7.115234375)"><path d="M3.59 0.47 C3.59 0.47, 3.59 0.47, 3.59 0.47 M3.59 0.47 C3.59 0.47, 3.59 0.47, 3.59 0.47 M2.42 9.9 C2.92 6.85, 6.85 2.84, 8.28 -0.19 M0.96 8.92 C3.22 6.39, 6.01 4.49, 8.77 0.99 M4.37 13.93 C6.88 9.86, 9.89 6.31, 11.78 2.43 M2.79 12.89 C5.69 10.05, 7.79 7.56, 11.61 3.23 M8.54 13.82 C9.08 12.35, 10.93 10.05, 15.28 4.24 M7.29 14.86 C9.87 11.76, 12 9.38, 15.75 4.77" stroke="#ced4da" stroke-width="0.5" fill="none"></path><path d="M9.45 1 C11.02 1.52, 13.05 2.03, 13.72 3.33 C14.39 4.62, 13.73 7.05, 13.46 8.75 C13.19 10.45, 13.22 12.66, 12.09 13.53 C10.96 14.39, 8.2 14.01, 6.67 13.95 C5.14 13.88, 3.89 14.07, 2.91 13.13 C1.94 12.2, 1.09 9.78, 0.81 8.33 C0.53 6.89, 0.7 5.83, 1.22 4.46 C1.73 3.09, 2.32 0.68, 3.91 0.11 C5.5 -0.46, 9.25 0.77, 10.74 1.03 C12.24 1.28, 13.01 1.49, 12.87 1.65 M4.73 -0.1 C6.36 -1.06, 8.78 -0.89, 10.09 -0.48 C11.4 -0.06, 12.03 0.67, 12.59 2.4 C13.16 4.14, 13.89 8.19, 13.5 9.93 C13.1 11.67, 11.33 11.88, 10.24 12.82 C9.15 13.77, 8.36 15.84, 6.94 15.58 C5.52 15.33, 3.04 12.5, 1.72 11.29 C0.4 10.09, -1.11 9.57, -0.98 8.35 C-0.85 7.13, 1.69 5.25, 2.5 3.95 C3.31 2.66, 3.43 1.27, 3.88 0.58 C4.33 -0.11, 5.21 -0.31, 5.2 -0.18" stroke="#000000" stroke-width="1" fill="none"></path></g><g stroke-linecap="round" transform="translate(945.5590851595159 189.17971373537688) rotate(0 7.107421875 7.115234375)"><path d="M1.68 1.46 C1.68 1.46, 1.68 1.46, 1.68 1.46 M1.68 1.46 C1.68 1.46, 1.68 1.46, 1.68 1.46 M0.85 8.23 C1.95 7.03, 4.98 3.72, 8.01 1.41 M1.3 7.66 C3.23 5, 5.6 2.46, 6.94 0.73 M2.16 12.78 C4.31 8.71, 8.06 5.87, 12.45 3.43 M2.84 13.02 C3.82 11.03, 6.49 8.08, 12.18 2.38 M5.26 14.4 C6.99 13.03, 9.74 10.83, 14.02 6.07 M5.67 14.01 C8.01 11.87, 10.03 9.43, 14.14 4.42" stroke="#ced4da" stroke-width="0.5" fill="none"></path><path d="M5.53 -0.54 C6.81 -0.67, 9.58 0.28, 11.07 1.12 C12.56 1.95, 13.96 2.9, 14.49 4.46 C15.02 6.02, 14.91 8.91, 14.26 10.47 C13.6 12.02, 11.96 13.09, 10.56 13.78 C9.16 14.47, 7.33 15, 5.86 14.63 C4.38 14.26, 2.62 12.93, 1.7 11.57 C0.78 10.2, 0.4 8.07, 0.34 6.45 C0.29 4.83, 0.29 2.78, 1.37 1.82 C2.45 0.86, 5.69 0.86, 6.8 0.69 C7.91 0.53, 8.12 0.75, 8.02 0.81 M7.21 1.52 C8.67 1.36, 10.61 -0.15, 11.5 0.31 C12.4 0.76, 12.29 2.61, 12.58 4.26 C12.87 5.91, 13.4 8.6, 13.25 10.18 C13.09 11.77, 13.18 13.05, 11.64 13.79 C10.09 14.53, 5.88 15.22, 3.97 14.64 C2.06 14.06, 1.06 11.69, 0.17 10.32 C-0.71 8.94, -1.62 7.57, -1.34 6.38 C-1.06 5.19, 0.51 4.46, 1.84 3.18 C3.18 1.91, 5.69 -0.91, 6.69 -1.29 C7.69 -1.66, 8.06 0.35, 7.85 0.93" stroke="#000000" stroke-width="1" fill="none"></path></g><g stroke-linecap="round" transform="translate(725.2194738402839 195.93682028558231) rotate(0 7.107421875 7.115234375)"><path d="M0.05 4.02 C0.05 4.02, 0.05 4.02, 0.05 4.02 M0.05 4.02 C0.05 4.02, 0.05 4.02, 0.05 4.02 M0.96 9.11 C3.51 6.32, 5.11 4.56, 5.73 2.88 M0.79 9.15 C2.49 7.01, 3.85 5.88, 5.97 3.22 M3.87 13.58 C5.64 9.29, 11.1 5.3, 13.45 1.45 M3.27 11.95 C4.89 10.29, 7.69 7.28, 12.79 1.09 M6.52 14.41 C7.99 11.77, 12.38 8.41, 14.38 6.82 M7.02 15.43 C9.03 12.26, 11.91 9.22, 14.4 6.05" stroke="#ced4da" stroke-width="0.5" fill="none"></path><path d="M9.84 -0.64 C11.02 -0.25, 11.44 2.17, 12.29 3.58 C13.14 4.99, 14.85 6.5, 14.94 7.84 C15.03 9.18, 13.89 10.6, 12.82 11.61 C11.76 12.63, 10.06 13.72, 8.53 13.94 C7 14.17, 4.96 13.96, 3.66 12.97 C2.37 11.98, 1.34 9.53, 0.76 8.01 C0.18 6.49, -0.42 4.93, 0.2 3.84 C0.83 2.74, 3.03 2.12, 4.49 1.43 C5.95 0.75, 7.85 -0.22, 8.97 -0.26 C10.1 -0.3, 11.12 1.05, 11.25 1.19 M7.02 0.91 C8.22 0.72, 9.44 1.86, 10.71 2.56 C11.99 3.27, 14.43 4.16, 14.68 5.16 C14.94 6.16, 13.2 6.96, 12.24 8.55 C11.28 10.14, 9.82 13.87, 8.9 14.71 C7.98 15.56, 7.96 14, 6.7 13.62 C5.44 13.24, 2.7 13.8, 1.34 12.43 C-0.02 11.06, -1.57 7.19, -1.46 5.41 C-1.35 3.62, 0.67 2.57, 2.01 1.71 C3.36 0.84, 5.79 0.35, 6.59 0.22 C7.4 0.08, 6.7 0.61, 6.83 0.9" stroke="#000000" stroke-width="1" fill="none"></path></g><g stroke-linecap="round" transform="translate(848.7255623790172 380.8560004312484) rotate(0 7.107421875 7.115234375000028)"><path d="M3.2 0.13 C3.2 0.13, 3.2 0.13, 3.2 0.13 M3.2 0.13 C3.2 0.13, 3.2 0.13, 3.2 0.13 M3.22 7.07 C4.81 4.36, 5.95 3.7, 8.01 0.25 M2.89 6.18 C4.6 4.38, 6 2.9, 8.55 -0.24 M4.35 11.8 C6.48 10.66, 8.54 6.29, 12.75 1.05 M3.35 12.76 C6.11 8.61, 8.35 6.54, 13.02 1.51 M7.54 15.3 C9.35 12.61, 12.78 10.04, 15.71 4.17 M6.52 14.43 C9.16 12.4, 10.58 10.34, 15.36 4.64" stroke="#ced4da" stroke-width="0.5" fill="none"></path><path d="M8.37 -0.63 C9.69 -0.43, 11.31 0.74, 12.42 2.01 C13.53 3.28, 14.93 5.32, 15.01 7.01 C15.1 8.71, 13.93 11.16, 12.92 12.19 C11.91 13.21, 10.41 12.98, 8.95 13.17 C7.49 13.36, 5.56 13.83, 4.19 13.34 C2.81 12.85, 1.22 11.74, 0.69 10.24 C0.16 8.75, 0.6 6.04, 1.01 4.37 C1.41 2.7, 1.71 0.91, 3.11 0.24 C4.51 -0.44, 8.39 0.41, 9.43 0.32 C10.47 0.22, 9.48 -0.53, 9.36 -0.35 M7.83 1 C9.39 0.89, 9.95 1.59, 11.1 2.59 C12.26 3.58, 14.53 5.78, 14.78 6.98 C15.03 8.18, 13.69 8.46, 12.61 9.79 C11.53 11.11, 9.36 14.46, 8.3 14.96 C7.23 15.46, 7.61 13.62, 6.23 12.78 C4.86 11.94, 0.85 10.99, 0.04 9.94 C-0.76 8.89, 1.15 8.06, 1.4 6.49 C1.65 4.92, 0.62 1.59, 1.53 0.53 C2.44 -0.54, 6.07 0.31, 6.86 0.1 C7.65 -0.1, 6.43 -0.95, 6.25 -0.72" stroke="#000000" stroke-width="1" fill="none"></path></g><g stroke-linecap="round"><g transform="translate(519.25 38.04559644468412) rotate(0 50.73526318369437 -1.1182104362826806)"><path d="M1.15 -1.01 C17.59 -1.7, 82.37 -3.08, 99 -3.31 M0.3 1.08 C17.06 0.43, 84.45 -1.91, 101.17 -2.27" stroke="#000000" stroke-width="1" fill="none"></path></g></g><mask></mask><g stroke-linecap="round"><g transform="translate(876.675250704541 34.29304125311751) rotate(0 50.39067952070377 -1.3069231297820778)"><path d="M0.4 0.82 C17.03 0.13, 82.71 -3.02, 99.3 -3.44 M-0.85 0.21 C16.21 -0.44, 84.96 -1.81, 101.63 -2.45" stroke="#000000" stroke-width="1" fill="none"></path></g></g><mask></mask><g stroke-linecap="round"><g transform="translate(845.6801789095159 199.09768248537688) rotate(0 49.886124456357265 -1.870305648073554)"><path d="M0.01 -0.29 C16.95 -0.75, 84.68 -2.98, 101.21 -3.45 M-1.44 -1.49 C15.48 -1.77, 83.71 -2.36, 100.89 -2.47" stroke="#000000" stroke-width="1" fill="none"></path></g></g><mask></mask><g stroke-linecap="round"><g transform="translate(550.8105941196882 208.79587440557378) rotate(0 86.72984423695038 -3.0267292439426114)"><path d="M-0.24 0.63 C28.81 -0.43, 146.02 -5.29, 175.29 -6.69 M-1.83 -0.08 C27.07 -0.92, 145.35 -4.01, 174.85 -5.15" stroke="#000000" stroke-width="1" fill="none"></path></g></g><mask></mask><g stroke-linecap="round"><g transform="translate(546.4842567546666 398.6536400503758) rotate(0 152.45783016859883 -4.6595637837843356)"><path d="M-0.91 0.38 C50.05 -1.4, 254.81 -8.04, 305.82 -9.7 M0.82 -0.47 C51.69 -2.21, 254.71 -7.29, 305.32 -8.67" stroke="#000000" stroke-width="1" fill="none"></path></g></g><mask></mask><g stroke-linecap="round" transform="translate(620.3906413551089 55.61047818210977) rotate(0 7.376055372359588 6.494248471303962)"><path d="M-0.14 3.85 C-0.14 3.85, -0.14 3.85, -0.14 3.85 M-0.14 3.85 C-0.14 3.85, -0.14 3.85, -0.14 3.85 M1.25 7.96 C1.85 7.19, 4.13 5.21, 6.77 3.05 M1.35 7.89 C2.56 6.72, 3.7 5.43, 6.2 2.86 M3.77 11.64 C4.86 10.16, 8.76 4.83, 11.66 1.41 M2.9 11.76 C5.76 9.56, 8.3 6.67, 12.39 1.84 M8.77 11.75 C10.96 9.06, 13.43 6.86, 14.38 5.63 M8.53 12.72 C9.9 10.06, 11.94 7.66, 15.19 4.54" stroke="#40c057" stroke-width="0.5" fill="none"></path><path d="M4.11 0.99 C5.61 0.46, 8.38 -0.1, 9.82 0.19 C11.26 0.48, 11.89 1.53, 12.74 2.74 C13.59 3.94, 14.95 6.01, 14.93 7.42 C14.92 8.83, 13.77 10.42, 12.63 11.19 C11.48 11.96, 9.56 11.78, 8.06 12.05 C6.56 12.32, 4.89 13.58, 3.63 12.81 C2.37 12.03, 1.08 8.94, 0.49 7.41 C-0.1 5.87, -0.83 4.88, 0.08 3.6 C0.99 2.31, 4.83 0.28, 5.96 -0.29 C7.09 -0.86, 6.89 -0.16, 6.86 0.19 M10.14 0.94 C11.55 1.62, 12.36 3.29, 12.88 4.27 C13.41 5.25, 13.2 5.8, 13.29 6.83 C13.38 7.86, 14.36 9.2, 13.41 10.47 C12.46 11.74, 9.11 14.08, 7.58 14.46 C6.04 14.83, 5.36 13.94, 4.23 12.7 C3.09 11.46, 1.15 8.6, 0.75 7.02 C0.34 5.45, 1.33 4.55, 1.8 3.26 C2.26 1.97, 2.14 -0.42, 3.54 -0.72 C4.94 -1.02, 9.18 1.13, 10.22 1.46 C11.25 1.8, 9.94 1.15, 9.76 1.3" stroke="#000000" stroke-width="1" fill="none"></path></g><g stroke-linecap="round" transform="translate(617.6147732848175 220.64797186294078) rotate(0 7.376055372359588 6.494248471303962)"><path d="M0.52 4.43 C0.52 4.43, 0.52 4.43, 0.52 4.43 M0.52 4.43 C0.52 4.43, 0.52 4.43, 0.52 4.43 M1.05 8.8 C3.35 6.13, 4.88 4.6, 9.04 0.54 M1.31 9.37 C3.63 7.3, 4.64 4.84, 8.86 -0.23 M3.01 11.52 C7.29 7.79, 10.01 4.71, 12.06 3.76 M4.25 12.34 C6.34 9.8, 9.93 5.98, 12.58 3.35 M8.53 12.98 C9.17 12.75, 12.02 10.01, 14.31 6.16 M8.12 14.1 C10.35 12.15, 11.45 9.78, 14.31 6.76" stroke="#40c057" stroke-width="0.5" fill="none"></path><path d="M8.09 -0.43 C9.56 -0.1, 12.06 1.45, 13.05 2.59 C14.04 3.73, 14.1 5.06, 14.03 6.42 C13.97 7.78, 13.69 9.58, 12.67 10.76 C11.65 11.94, 9.49 13.37, 7.91 13.49 C6.33 13.61, 4.5 12.41, 3.19 11.49 C1.88 10.57, 0.48 9.19, 0.06 7.98 C-0.36 6.77, 0.06 5.29, 0.67 4.24 C1.29 3.2, 2.25 2.2, 3.74 1.74 C5.23 1.27, 8.44 1.61, 9.6 1.47 C10.76 1.33, 10.62 0.78, 10.69 0.89 M9.38 0.17 C10.64 0.26, 13.26 1.27, 14.05 2.74 C14.84 4.22, 14.39 7.36, 14.1 9.03 C13.8 10.7, 13.25 12.18, 12.29 12.75 C11.33 13.32, 9.95 12.62, 8.33 12.46 C6.72 12.3, 3.84 12.44, 2.63 11.78 C1.41 11.13, 1.43 10.04, 1.05 8.54 C0.67 7.05, -0.39 4.25, 0.33 2.8 C1.05 1.35, 3.79 0.37, 5.39 -0.14 C7 -0.65, 8.93 -0.37, 9.96 -0.27 C10.99 -0.16, 11.54 0.03, 11.59 0.49" stroke="#000000" stroke-width="1" fill="none"></path></g><g stroke-linecap="round" transform="translate(608.5025397060105 404.8764583268871) rotate(0 7.376055372359588 6.49424847130399)"><path d="M4.09 -0.42 C4.09 -0.42, 4.09 -0.42, 4.09 -0.42 M4.09 -0.42 C4.09 -0.42, 4.09 -0.42, 4.09 -0.42 M2.14 9.47 C4.71 4.67, 6.34 3.45, 9.22 0.68 M1.73 9.12 C3.1 6.89, 4.84 5.03, 9.02 0.13 M3.69 12.34 C7.34 8.04, 8.84 5.83, 11.69 1.66 M2.93 12.63 C5.15 9.98, 7.19 7.87, 12.04 2.11 M8.76 13.07 C10.88 9.49, 13.16 5.53, 15.64 4.04 M7.58 13.97 C10.1 10.95, 12.2 8.35, 15.43 3.86" stroke="#40c057" stroke-width="0.5" fill="none"></path><path d="M8.81 0.31 C10.24 0.77, 12.5 1.79, 13.51 2.94 C14.51 4.08, 15.07 5.82, 14.85 7.17 C14.63 8.53, 13.45 10.01, 12.18 11.07 C10.9 12.13, 8.66 13.41, 7.19 13.52 C5.71 13.64, 4.58 12.8, 3.33 11.75 C2.07 10.71, -0.07 8.53, -0.33 7.25 C-0.59 5.97, 1.05 5.34, 1.78 4.07 C2.5 2.81, 2.43 0.15, 4.02 -0.35 C5.61 -0.85, 9.75 0.73, 11.3 1.07 C12.86 1.41, 13.29 1.65, 13.37 1.67 M5.85 1.52 C7.36 1.17, 9.85 0.6, 11.36 1.09 C12.87 1.58, 14.52 3.02, 14.91 4.47 C15.29 5.91, 14.5 8.45, 13.69 9.77 C12.88 11.09, 11.54 12.05, 10.06 12.38 C8.58 12.71, 6.43 12.06, 4.8 11.75 C3.18 11.43, 1.31 11.55, 0.32 10.47 C-0.67 9.4, -1.51 6.56, -1.14 5.29 C-0.76 4.03, 1.3 3.63, 2.57 2.88 C3.83 2.13, 5.73 1.43, 6.47 0.78 C7.2 0.14, 6.9 -0.85, 6.96 -0.99" stroke="#000000" stroke-width="1" fill="none"></path></g><g stroke-linecap="round"><g transform="translate(636.184424065698 62.08744963245053) rotate(0 50.9279940859322 -0.6909191012468057)"><path d="M0.54 -0.96 C17.52 -1.23, 85.71 -2.49, 102.49 -2.53 M-0.63 1.15 C16.2 1.12, 85.15 -0.53, 101.95 -1.24" stroke="#000000" stroke-width="1" fill="none"></path></g></g><mask></mask><g stroke-linecap="round"><g transform="translate(632.4308582556916 228.8937309043808) rotate(0 47.25236488605566 -0.7203406425315677)"><path d="M0.62 0.51 C16.45 0.15, 79.45 -1.58, 95.02 -1.95 M-0.52 -0.26 C15.15 -0.53, 77.89 -0.8, 94.04 -0.89" stroke="#000000" stroke-width="1" fill="none"></path></g></g><mask></mask><g stroke-linecap="round"><g transform="translate(623.3186246768846 413.1222173683271) rotate(0 47.20466554239107 -0.714272973884988)"><path d="M0.47 0.74 C16.49 0.18, 79.54 -1.87, 95.14 -2.17 M-0.73 0.08 C15.21 0.13, 78.02 -1.24, 94.23 -1.21" stroke="#000000" stroke-width="1" fill="none"></path></g></g><mask></mask><g stroke-linecap="round" transform="translate(737.5541051252485 51.70359879694786) rotate(0 6.0896547167019435 6.480416206189361)"><path d="M2.91 -0.12 C2.91 -0.12, 2.91 -0.12, 2.91 -0.12 M2.91 -0.12 C2.91 -0.12, 2.91 -0.12, 2.91 -0.12 M1.98 8.64 C3.06 5.19, 4.89 4.63, 9.37 -0.84 M1.37 8.12 C3.9 5.28, 6.63 1.99, 8.4 -0.36 M2.32 13.93 C4.95 9.52, 8.34 6.35, 10.45 0.9 M1.75 12.54 C5.38 8.74, 8.45 6.05, 11.31 2.72 M5.56 14.63 C8.99 11.03, 9.88 8.79, 12.61 6.93 M6.03 14.97 C7.93 12.55, 9.54 10.01, 12.22 8.18" stroke="#40c057" stroke-width="0.5" fill="none"></path><path d="M3.17 -0.42 C4.27 -1.16, 7.64 -1.04, 8.95 -0.42 C10.25 0.21, 10.63 2.02, 11 3.33 C11.37 4.64, 11.18 6.03, 11.17 7.45 C11.16 8.88, 11.89 10.9, 10.93 11.87 C9.96 12.85, 6.91 13.34, 5.39 13.32 C3.87 13.3, 2.6 12.76, 1.78 11.77 C0.97 10.78, 0.61 8.72, 0.5 7.39 C0.39 6.06, 0.43 5.1, 1.14 3.8 C1.86 2.49, 3.89 0.21, 4.78 -0.45 C5.66 -1.12, 6.57 -0.37, 6.45 -0.21 M7.53 1.93 C8.26 2.51, 9.12 2.4, 10 3.46 C10.87 4.51, 12.83 6.7, 12.77 8.24 C12.71 9.78, 10.56 11.79, 9.64 12.72 C8.72 13.65, 8.36 13.83, 7.25 13.81 C6.15 13.8, 4.2 13.74, 3.01 12.61 C1.82 11.48, 0.6 8.58, 0.11 7.03 C-0.37 5.48, -0.44 4.23, 0.09 3.31 C0.61 2.39, 1.89 1.99, 3.26 1.52 C4.63 1.05, 7.56 0.46, 8.31 0.49 C9.07 0.52, 7.64 1.51, 7.78 1.69" stroke="#000000" stroke-width="1" fill="none"></path></g><g stroke-linecap="round" transform="translate(726.8896676901445 219.17656466137538) rotate(0 6.0896547167019435 6.480416206189375)"><path d="M0.11 4.07 C0.11 4.07, 0.11 4.07, 0.11 4.07 M0.11 4.07 C0.11 4.07, 0.11 4.07, 0.11 4.07 M0.25 8.92 C2.72 6.39, 6.01 3.28, 7.56 0.89 M0.75 9.79 C2.19 6.88, 4.4 4.11, 8.96 0.5 M3.48 11.36 C4.88 9.94, 7.11 8.73, 11.84 2.09 M3 12.69 C5.66 9.91, 7.69 8.1, 11.11 2.83" stroke="#40c057" stroke-width="0.5" fill="none"></path><path d="M3.71 0.52 C4.86 0, 6.09 -0.4, 7.32 0.01 C8.56 0.42, 10.4 1.67, 11.12 3 C11.84 4.34, 11.86 6.7, 11.65 8.01 C11.44 9.32, 10.82 10.1, 9.87 10.84 C8.92 11.59, 7.19 12.32, 5.94 12.47 C4.7 12.62, 3.42 12.37, 2.41 11.75 C1.41 11.13, 0.33 10, -0.08 8.75 C-0.49 7.5, -0.71 5.78, -0.06 4.27 C0.58 2.76, 2.86 0.2, 3.8 -0.32 C4.75 -0.85, 5.29 0.81, 5.61 1.11 M8.72 -0.23 C9.96 0.48, 10.51 3.19, 11.14 4.76 C11.76 6.33, 12.5 8.1, 12.48 9.18 C12.45 10.26, 12.08 10.54, 10.98 11.25 C9.88 11.97, 7.25 13.31, 5.89 13.5 C4.53 13.68, 3.93 13.46, 2.8 12.37 C1.68 11.28, -0.59 8.61, -0.85 6.94 C-1.11 5.28, 0.39 3.63, 1.23 2.38 C2.06 1.13, 2.7 -0.24, 4.16 -0.56 C5.62 -0.89, 9.22 0, 10 0.44 C10.77 0.88, 8.99 1.92, 8.8 2.09" stroke="#000000" stroke-width="1" fill="none"></path></g><g stroke-linecap="round" transform="translate(717.7774341113375 403.4050511253217) rotate(0 6.0896547167019435 6.480416206189375)"><path d="M3.48 0.37 C3.48 0.37, 3.48 0.37, 3.48 0.37 M3.48 0.37 C3.48 0.37, 3.48 0.37, 3.48 0.37 M1.73 8.16 C2.87 7.34, 6.09 4.2, 7.87 -0.07 M1.15 9.16 C3.22 6.82, 5.75 3.87, 8.59 0.5 M4.51 11.38 C6.07 9.13, 8.68 5.31, 10.43 3.69 M3.43 12.11 C5.93 9.52, 8.04 6.9, 12.01 3.76 M7.94 13.28 C9.21 11, 11.36 9.25, 12.41 8.45 M7.95 13.55 C9.46 11.7, 10.89 9.57, 12.77 7.97" stroke="#40c057" stroke-width="0.5" fill="none"></path><path d="M3.28 0.6 C4.51 -0.09, 6.42 -0.3, 7.68 0 C8.93 0.3, 10.15 1.17, 10.82 2.41 C11.48 3.65, 11.65 5.98, 11.67 7.42 C11.69 8.86, 11.85 10.25, 10.95 11.06 C10.05 11.87, 7.49 12.04, 6.27 12.28 C5.06 12.51, 4.76 13.27, 3.66 12.47 C2.57 11.67, 0.23 8.9, -0.3 7.48 C-0.82 6.06, -0.39 5.24, 0.51 3.97 C1.42 2.69, 4.15 0.5, 5.13 -0.19 C6.11 -0.89, 6.51 -0.34, 6.38 -0.2 M7.43 0.2 C8.84 0.15, 10.72 1.22, 11.44 2.45 C12.15 3.68, 11.96 6.14, 11.71 7.56 C11.45 8.99, 10.85 10.3, 9.89 11.01 C8.92 11.72, 7.3 11.68, 5.92 11.85 C4.54 12.01, 2.73 12.72, 1.6 11.99 C0.46 11.27, -0.8 8.72, -0.89 7.51 C-0.98 6.31, 0.36 5.77, 1.06 4.75 C1.76 3.74, 2.16 2.39, 3.31 1.43 C4.45 0.47, 7.19 -0.68, 7.92 -0.99 C8.65 -1.3, 7.9 -0.68, 7.67 -0.42" stroke="#000000" stroke-width="1" fill="none"></path></g><g stroke-linecap="round" transform="translate(757.0402696821841 51.964616883460565) rotate(0 5.973809496367153 6.502029120430919)"><path d="M1.15 3.65 C1.15 3.65, 1.15 3.65, 1.15 3.65 M1.15 3.65 C1.15 3.65, 1.15 3.65, 1.15 3.65 M2.45 8.33 C4.15 5.58, 6.47 4.3, 8.97 -0.75 M1.6 9.84 C3.9 5.62, 6.52 2.79, 10 0.77 M3.07 12.23 C5.55 8.86, 9.63 5.76, 13.27 3.98 M3.79 13.21 C6.43 9.91, 10.14 5.45, 12.92 2.63" stroke="#fa5252" stroke-width="0.5" fill="none"></path><path d="M9.06 -0.04 C10.41 0.15, 11.59 1.48, 12.07 2.91 C12.54 4.34, 12.47 7.25, 11.91 8.57 C11.34 9.88, 9.8 9.95, 8.68 10.81 C7.56 11.67, 6.47 13.63, 5.19 13.72 C3.92 13.81, 2.02 12.32, 1.06 11.33 C0.1 10.34, -0.52 9.03, -0.56 7.8 C-0.59 6.58, 0.04 5.21, 0.85 3.99 C1.65 2.77, 2.98 1.18, 4.26 0.48 C5.55 -0.21, 7.61 -0.46, 8.54 -0.17 C9.46 0.11, 9.67 1.85, 9.82 2.17 M2.74 -0.09 C4.07 -0.4, 6.61 -0.53, 8.15 0.21 C9.69 0.95, 11.35 2.98, 11.98 4.34 C12.61 5.69, 12.36 7.11, 11.93 8.33 C11.5 9.54, 10.31 10.87, 9.39 11.63 C8.47 12.39, 7.87 13.13, 6.42 12.91 C4.96 12.7, 1.84 11.03, 0.67 10.33 C-0.51 9.64, -0.83 9.84, -0.61 8.73 C-0.39 7.63, 0.99 5.22, 1.99 3.7 C2.99 2.18, 4.96 0.37, 5.39 -0.38 C5.81 -1.13, 4.9 -1.02, 4.53 -0.8" stroke="#000000" stroke-width="1" fill="none"></path></g><g stroke-linecap="round" transform="translate(748.5818494865271 219.17818773130296) rotate(0 5.973809496367153 6.502029120430933)"><path d="M-0.13 3.86 C-0.13 3.86, -0.13 3.86, -0.13 3.86 M-0.13 3.86 C-0.13 3.86, -0.13 3.86, -0.13 3.86 M0.88 8.24 C2.32 6.13, 5.94 3.65, 8.94 1.16 M1.07 8.86 C3.14 5.9, 5.57 2.91, 7.86 0.88 M2.37 11.14 C4.59 10.22, 8.11 5.51, 11.5 2.01 M3.18 12.16 C5.46 9.9, 7.6 7.25, 12.06 2.16 M7.18 13.64 C9.89 11.18, 11.11 10.26, 12.81 6.82 M7.93 13.54 C9.34 11.24, 10.29 10.22, 13.2 6.97" stroke="#fa5252" stroke-width="0.5" fill="none"></path><path d="M7.1 -0.62 C8.47 -0.55, 10.51 0.55, 11.36 1.76 C12.2 2.97, 12.34 5.03, 12.2 6.63 C12.06 8.23, 11.32 10.33, 10.51 11.36 C9.7 12.39, 8.73 12.84, 7.33 12.79 C5.94 12.75, 3.42 11.87, 2.14 11.09 C0.87 10.31, 0.1 9.28, -0.32 8.11 C-0.73 6.95, -1.03 5.31, -0.35 4.11 C0.33 2.91, 2.45 1.56, 3.75 0.92 C5.05 0.27, 6.56 0.09, 7.43 0.23 C8.3 0.37, 8.99 1.46, 8.96 1.76 M5.91 1.03 C7.04 1.01, 9.73 0.12, 10.64 1.22 C11.54 2.31, 11.58 5.89, 11.33 7.6 C11.08 9.31, 10.13 10.49, 9.15 11.47 C8.17 12.45, 6.76 13.16, 5.44 13.47 C4.12 13.78, 2.01 13.96, 1.24 13.34 C0.48 12.73, 0.76 11.32, 0.86 9.77 C0.96 8.23, 1.68 5.41, 1.83 4.08 C1.98 2.75, 0.86 2.37, 1.77 1.79 C2.67 1.22, 6.15 0.62, 7.25 0.62 C8.35 0.62, 8.42 1.68, 8.36 1.79" stroke="#000000" stroke-width="1" fill="none"></path></g><g stroke-linecap="round" transform="translate(850.9382678528759 404.2111432106835) rotate(0 5.973809496367153 6.502029120430905)"><path d="M3.66 0.53 C3.66 0.53, 3.66 0.53, 3.66 0.53 M3.66 0.53 C3.66 0.53, 3.66 0.53, 3.66 0.53 M2.56 8.32 C4.97 5.3, 5.59 4.23, 8.29 1.07 M1.94 8.41 C3.93 6.12, 6.79 3.65, 8.02 2.06 M3.49 11.38 C7.05 8.98, 10.49 5.05, 11.82 3.21 M4.71 11.31 C5.94 9.74, 7.22 8.07, 11.28 3.4" stroke="#fa5252" stroke-width="0.5" fill="none"></path><path d="M5.92 -0.78 C7.23 -0.6, 9.18 1.46, 10.33 2.8 C11.48 4.14, 12.64 6.1, 12.83 7.25 C13.02 8.39, 12.31 8.75, 11.46 9.69 C10.61 10.62, 8.99 12.49, 7.75 12.86 C6.52 13.23, 5.12 12.75, 4.05 11.92 C2.99 11.09, 2.03 8.97, 1.35 7.87 C0.67 6.77, -0.4 6.52, -0.03 5.31 C0.35 4.09, 2.38 1.33, 3.61 0.58 C4.84 -0.16, 6.66 0.97, 7.37 0.86 C8.07 0.75, 7.9 0.02, 7.84 -0.07 M2.66 -0.08 C3.8 -0.74, 5.43 0.18, 6.63 0.88 C7.83 1.58, 8.94 3.21, 9.86 4.11 C10.79 5.01, 12.32 5.05, 12.18 6.27 C12.05 7.49, 10.21 10.24, 9.05 11.45 C7.9 12.65, 6.37 13.26, 5.24 13.49 C4.11 13.72, 3.31 13.86, 2.27 12.8 C1.22 11.74, -0.57 8.55, -1.02 7.13 C-1.48 5.7, -1.01 5.51, -0.46 4.24 C0.09 2.97, 1.44 0.15, 2.27 -0.5 C3.11 -1.14, 4.48 0.33, 4.55 0.39" stroke="#000000" stroke-width="1" fill="none"></path></g><g stroke-linecap="round" transform="translate(864.5324645281191 50.40416722001217) rotate(0 5.973809496367153 6.502029120430919)"><path d="M1.15 2.33 C1.15 2.33, 1.15 2.33, 1.15 2.33 M1.15 2.33 C1.15 2.33, 1.15 2.33, 1.15 2.33 M1.26 8.18 C3.34 6.95, 3.3 5.36, 7.88 0.9 M1.7 8.28 C3.26 5.29, 5.46 3.7, 7.67 1.09 M4.44 11.53 C4.72 10.36, 7.55 8.66, 11.05 3.39 M3.17 12.07 C6.9 8.34, 9.06 5.29, 10.74 2.53" stroke="#fa5252" stroke-width="0.5" fill="none"></path><path d="M9.13 1.56 C10.2 2.17, 10.65 3.71, 10.92 4.72 C11.18 5.74, 11.05 6.57, 10.72 7.67 C10.39 8.77, 9.67 10.54, 8.92 11.32 C8.18 12.1, 7.55 12.47, 6.25 12.34 C4.95 12.21, 2.22 11.47, 1.13 10.52 C0.03 9.57, -0.27 7.95, -0.3 6.62 C-0.32 5.29, 0.04 3.64, 0.98 2.53 C1.93 1.41, 4.02 0.33, 5.36 -0.06 C6.69 -0.45, 8.24 -0.11, 8.99 0.2 C9.74 0.51, 10.04 1.57, 9.86 1.82 M8.39 1.52 C9.66 1.39, 11.01 1.03, 11.81 1.94 C12.6 2.85, 13.43 5.62, 13.16 6.98 C12.89 8.33, 11.29 9.26, 10.19 10.05 C9.1 10.84, 7.95 11.48, 6.58 11.7 C5.22 11.92, 2.89 11.77, 2.01 11.36 C1.12 10.96, 1.46 10.64, 1.26 9.24 C1.05 7.84, 0.33 4.47, 0.77 2.96 C1.22 1.46, 2.65 0.77, 3.93 0.22 C5.21 -0.34, 7.89 -0.54, 8.44 -0.36 C9 -0.18, 7.4 0.89, 7.26 1.32" stroke="#000000" stroke-width="1" fill="none"></path></g><g stroke-linecap="round" transform="translate(833.5216038111425 217.6161431286381) rotate(0 5.973809496367153 6.502029120430933)"><path d="M1.59 1.38 C1.59 1.38, 1.59 1.38, 1.59 1.38 M1.59 1.38 C1.59 1.38, 1.59 1.38, 1.59 1.38 M1.01 7.15 C2.86 6.27, 4.48 4.98, 6.37 2.87 M1.4 7.58 C2.88 5.76, 4.35 4.14, 6.19 2.4 M2.12 10.97 C6.13 9.37, 6.65 6.19, 10.62 2.6 M3.06 11.7 C5.66 9.02, 7.89 7.21, 10.76 2.86 M9.02 12.1 C9.53 10.58, 11.37 9.05, 12.93 6.1 M8.93 11.71 C9.53 9.94, 11.23 9.22, 13.06 6.13" stroke="#fa5252" stroke-width="0.5" fill="none"></path><path d="M4.6 0.79 C5.7 0.61, 7.48 0.7, 8.67 1.35 C9.86 2, 11.19 3.34, 11.76 4.7 C12.32 6.06, 12.6 8.38, 12.05 9.53 C11.51 10.67, 9.9 11.12, 8.48 11.56 C7.07 12, 4.86 12.49, 3.55 12.17 C2.24 11.84, 1.23 10.5, 0.62 9.6 C0.02 8.7, -0.26 8.16, -0.07 6.76 C0.12 5.36, 0.68 2.36, 1.75 1.19 C2.82 0.02, 5.25 0, 6.35 -0.24 C7.46 -0.48, 8.17 -0.49, 8.37 -0.26 M7.41 -0.08 C8.39 0.1, 7.98 0.52, 8.86 1.33 C9.74 2.15, 12.27 3.51, 12.69 4.79 C13.1 6.07, 12.16 7.93, 11.38 9.01 C10.59 10.1, 9.09 10.66, 7.99 11.32 C6.89 11.98, 5.8 13.1, 4.79 12.97 C3.78 12.84, 2.65 12.17, 1.91 10.56 C1.16 8.94, 0.04 4.85, 0.33 3.27 C0.62 1.69, 2.56 1.44, 3.67 1.08 C4.79 0.72, 6.27 1.3, 7 1.1 C7.73 0.9, 8.04 -0.13, 8.03 -0.12" stroke="#000000" stroke-width="1" fill="none"></path></g><g stroke-linecap="round" transform="translate(959.3794173701406 401.60800111863165) rotate(0 5.973809496367153 6.502029120430905)"><path d="M3.14 0.08 C3.14 0.08, 3.14 0.08, 3.14 0.08 M3.14 0.08 C3.14 0.08, 3.14 0.08, 3.14 0.08 M0.79 9.67 C2.44 5.31, 6.25 3.69, 6.83 1.77 M0.89 8.4 C2.57 7.49, 4.06 5.28, 7.94 1.52 M2.11 12.86 C5.49 10.86, 7.06 7.05, 10.8 2.14 M2.03 12.79 C5.75 8.46, 9.36 4.7, 11.02 3.45 M6.7 14.99 C7.24 13.15, 9.04 13.05, 11.57 8.78 M5.92 14.85 C8.24 12.47, 10.06 10.74, 11.47 8.76" stroke="#fa5252" stroke-width="0.5" fill="none"></path><path d="M2.98 0.27 C4.14 0.04, 6.99 0.62, 8.49 1.24 C9.99 1.87, 11.54 2.86, 11.96 4.01 C12.37 5.17, 11.31 6.78, 10.96 8.17 C10.61 9.57, 10.72 11.43, 9.86 12.4 C8.99 13.36, 7.23 14.16, 5.8 13.96 C4.36 13.76, 2.04 12.11, 1.25 11.19 C0.45 10.27, 1.17 9.75, 1.03 8.44 C0.89 7.12, -0.3 4.68, 0.41 3.3 C1.13 1.92, 4.56 0.73, 5.32 0.16 C6.07 -0.41, 5.12 -0.06, 4.95 -0.1 M2.79 -0.24 C3.85 -0.9, 6.68 -1.27, 8.27 -0.72 C9.85 -0.16, 11.83 1.97, 12.32 3.08 C12.81 4.19, 11.5 4.82, 11.21 5.94 C10.92 7.06, 11.27 8.7, 10.56 9.82 C9.85 10.93, 8.14 12.52, 6.95 12.64 C5.76 12.76, 4.73 11.46, 3.41 10.54 C2.1 9.62, -0.55 8.46, -0.96 7.13 C-1.36 5.8, 0.44 3.49, 0.99 2.59 C1.55 1.68, 2 2.18, 2.37 1.7 C2.73 1.23, 3.18 -0.25, 3.18 -0.25" stroke="#000000" stroke-width="1" fill="none"></path></g><g stroke-linecap="round"><g transform="translate(768.6506860306226 59.28888224445055) rotate(0 48.001394476338646 -0.5864110605421757)"><path d="M-0.96 -1.12 C14.82 -1.21, 78.54 -0.56, 94.8 -0.53 M0.73 0.91 C16.87 0.5, 81.05 -1.44, 96.97 -2.08" stroke="#000000" stroke-width="1" fill="none"></path></g></g><mask></mask><g stroke-linecap="round"><g transform="translate(760.5208233135647 225.45457802705204) rotate(0 36.82928034486645 -0.511201367644901)"><path d="M0.45 -0.26 C12.83 -0.55, 62.24 -1.13, 74.43 -1.12 M-0.77 -1.44 C11.43 -1.57, 60.66 0.53, 73.46 0.42" stroke="#000000" stroke-width="1" fill="none"></path></g></g><mask></mask><g stroke-linecap="round"><g transform="translate(862.8772416799136 410.4875335064325) rotate(0 47.87557075961615 -0.9537519023983805)"><path d="M0.38 -0.87 C16.53 -1.31, 80.81 -2.97, 96.63 -3.19 M-0.88 1.28 C15.16 0.99, 79.41 -1.9, 95.83 -2.27" stroke="#000000" stroke-width="1" fill="none"></path></g></g><mask></mask><g transform="translate(532.4695696391286 17.175817307962234) rotate(0 32.5 7)"><text x="0" y="10" font-family="Virgil, Segoe UI Emoji" font-size="11.000191404067312px" fill="#000000" text-anchor="start" style="white-space: pre;" direction="ltr">html parsing</text></g><g transform="translate(645.6579307796967 376.1697273746341) rotate(0 32.5 7)"><text x="0" y="10" font-family="Virgil, Segoe UI Emoji" font-size="11.000191404067312px" fill="#000000" text-anchor="start" style="white-space: pre;" direction="ltr">html parsing</text></g><g transform="translate(600.782540806553 188.25051918640247) rotate(0 32.5 7)"><text x="0" y="10" font-family="Virgil, Segoe UI Emoji" font-size="11.000191404067312px" fill="#000000" text-anchor="start" style="white-space: pre;" direction="ltr">html parsing</text></g><g transform="translate(639.4849373612149 45.28954198976038) rotate(0 42 7)"><text x="0" y="10" font-family="Virgil, Segoe UI Emoji" font-size="11.000191404067312px" fill="#000000" text-anchor="start" style="white-space: pre;" direction="ltr">script download</text></g><g transform="translate(638.8881527996414 233.6491629481443) rotate(0 42 7)"><text x="0" y="10" font-family="Virgil, Segoe UI Emoji" font-size="11.000191404067312px" fill="#000000" text-anchor="start" style="white-space: pre;" direction="ltr">script download</text></g><g transform="translate(630.4102013208899 416.80746920851385) rotate(0 42 7)"><text x="0" y="10" font-family="Virgil, Segoe UI Emoji" font-size="11.000191404067312px" fill="#000000" text-anchor="start" style="white-space: pre;" direction="ltr">script download</text></g><g transform="translate(773.271359832265 42.46144587144548) rotate(0 43.5 7)"><text x="0" y="10" font-family="Virgil, Segoe UI Emoji" font-size="11.000191404067312px" fill="#000000" text-anchor="start" style="white-space: pre;" direction="ltr">script execution</text></g><g transform="translate(759.405602509647 206.48014028627296) rotate(0 43.5 7)"><text x="0" y="10" font-family="Virgil, Segoe UI Emoji" font-size="11.000191404067312px" fill="#000000" text-anchor="start" style="white-space: pre;" direction="ltr">script execution</text></g><g transform="translate(869.9498768562835 387.87316734412383) rotate(0 43.5 7)"><text x="0" y="10" font-family="Virgil, Segoe UI Emoji" font-size="11.000191404067312px" fill="#000000" text-anchor="start" style="white-space: pre;" direction="ltr">script execution</text></g><g transform="translate(880.45154406857 10) rotate(0 51 7)"><text x="0" y="10" font-family="Virgil, Segoe UI Emoji" font-size="11.000191404067312px" fill="#000000" text-anchor="start" style="white-space: pre;" direction="ltr">html parsing cont...</text></g><g transform="translate(847.80638382596 177.57990889863487) rotate(0 51 7)"><text x="0" y="10" font-family="Virgil, Segoe UI Emoji" font-size="11.000191404067312px" fill="#000000" text-anchor="start" style="white-space: pre;" direction="ltr">html parsing cont...</text></g></svg>