<svg version="1.1" xmlns="http://www.w3.org/2000/svg" viewBox="0 0 1070.8829356459203 460.07493149296056" width="2141.7658712918405" height="920.1498629859211" filter="invert(93%) hue-rotate(180deg)">
  <!-- svg-source:excalidraw -->
  
  <defs>
    <style class="style-fonts">
      @font-face {
        font-family: "Virgil";
        src: url("https://excalidraw.com/Virgil.woff2");
      }
      @font-face {
        font-family: "Cascadia";
        src: url("https://excalidraw.com/Cascadia.woff2");
      }
    </style>
  </defs>
  <rect x="0" y="0" width="1070.8829356459203" height="460.07493149296056" fill="#ffffff"></rect><g transform="translate(16.6953125 52.796422010153464) rotate(0 89.5 12.5)"><text x="0" y="18" font-family="Virgil, Segoe UI Emoji" font-size="20px" fill="#000000" text-anchor="start" style="white-space: pre;" direction="ltr">&lt;script src="..." /&gt;</text></g><g transform="translate(12.34765625 220.59720326015346) rotate(0 121 12.5)"><text x="0" y="18" font-family="Virgil, Segoe UI Emoji" font-size="20px" fill="#000000" text-anchor="start" style="white-space: pre;" direction="ltr">&lt;script async src="..." /&gt;</text></g><g transform="translate(10 404.3706407601535) rotate(0 120.5 12.5)"><text x="0" y="18" font-family="Virgil, Segoe UI Emoji" font-size="20px" fill="#000000" text-anchor="start" style="white-space: pre;" direction="ltr">&lt;script defer src="..." /&gt;</text></g><g transform="translate(272.9344844274523 24.357082934087174) rotate(0 67 37.5)"><text x="0" y="18" font-family="Virgil, Segoe UI Emoji" font-size="20px" fill="#000000" text-anchor="start" style="white-space: pre;" direction="ltr">HTML Parsing</text><text x="0" y="43" font-family="Virgil, Segoe UI Emoji" font-size="20px" fill="#000000" text-anchor="start" style="white-space: pre;" direction="ltr"></text><text x="0" y="68" font-family="Virgil, Segoe UI Emoji" font-size="20px" fill="#000000" text-anchor="start" style="white-space: pre;" direction="ltr">Script</text></g><g transform="translate(279.21548602037524 193.23657768863254) rotate(0 67 37.5)"><text x="0" y="18" font-family="Virgil, Segoe UI Emoji" font-size="20px" fill="#000000" text-anchor="start" style="white-space: pre;" direction="ltr">HTML Parsing</text><text x="0" y="43" font-family="Virgil, Segoe UI Emoji" font-size="20px" fill="#000000" text-anchor="start" style="white-space: pre;" direction="ltr"></text><text x="0" y="68" font-family="Virgil, Segoe UI Emoji" font-size="20px" fill="#000000" text-anchor="start" style="white-space: pre;" direction="ltr">Script</text></g><g transform="translate(269.0764726234868 375.07493149296056) rotate(0 67 37.49999999999997)"><text x="0" y="18" font-family="Virgil, Segoe UI Emoji" font-size="20px" fill="#000000" text-anchor="start" style="white-space: pre;" direction="ltr">HTML Parsing</text><text x="0" y="43" font-family="Virgil, Segoe UI Emoji" font-size="20px" fill="#000000" text-anchor="start" style="white-space: pre;" direction="ltr"></text><text x="0" y="68" font-family="Virgil, Segoe UI Emoji" font-size="20px" fill="#000000" text-anchor="start" style="white-space: pre;" direction="ltr">Script</text></g><g stroke-linecap="round" transform="translate(432.1654059968471 26.509921778221525) rotate(0 90.12504255584463 10.213595135912499)"><path d="M0.29 2.9 C0.29 2.9, 0.29 2.9, 0.29 2.9 M0.29 2.9 C0.29 2.9, 0.29 2.9, 0.29 2.9 M0.03 9.3 C2.1 7.38, 4.15 4.8, 6.59 1.75 M0.03 9.3 C2.22 6.9, 4.11 4.31, 6.59 1.75 M-0.23 15.7 C2.49 12.9, 6.64 6.55, 12.23 1.36 M-0.23 15.7 C4.35 11.84, 7.8 7.57, 12.23 1.36 M1.48 19.83 C4.91 13.04, 9.64 7.61, 17.22 1.72 M1.48 19.83 C6.4 14.31, 12.12 7.92, 17.22 1.72 M5.81 20.95 C12.69 13.14, 16.36 6.45, 22.86 1.33 M5.81 20.95 C12.81 12.53, 18.3 5.06, 22.86 1.33 M10.79 21.31 C18.23 15.24, 21.04 7.66, 27.85 1.69 M10.79 21.31 C16.2 16.52, 19.04 10.8, 27.85 1.69 M16.44 20.91 C19.39 17.23, 25.55 12.18, 33.49 1.29 M16.44 20.91 C20.82 14.18, 27.08 9.12, 33.49 1.29 M21.42 21.27 C24.21 15.83, 30.1 14.14, 38.48 1.65 M21.42 21.27 C24.54 16.37, 27.91 12.31, 38.48 1.65 M27.07 20.88 C31.13 18.39, 35.93 11.38, 44.12 1.26 M27.07 20.88 C31.76 17.18, 34.48 11.95, 44.12 1.26 M32.05 21.24 C37.68 13.56, 43.35 9.62, 49.11 1.62 M32.05 21.24 C36.25 15.62, 40.26 10.88, 49.11 1.62 M37.7 20.84 C41.63 11.99, 51 6.25, 54.75 1.22 M37.7 20.84 C42.85 15.26, 46.76 9.75, 54.75 1.22 M42.68 21.2 C46.45 16.95, 50.71 10.49, 59.74 1.58 M42.68 21.2 C49.39 13.24, 56.68 6.68, 59.74 1.58 M48.33 20.81 C54.14 14.78, 60.04 9.17, 65.38 1.19 M48.33 20.81 C55.69 13.52, 61.71 5.11, 65.38 1.19 M53.31 21.17 C58.97 12.18, 66.09 5.02, 70.37 1.55 M53.31 21.17 C58.2 16.19, 62.57 9.89, 70.37 1.55 M58.96 20.78 C62.97 14.17, 67.01 10.21, 76.01 1.15 M58.96 20.78 C65.36 14.8, 70.03 7.41, 76.01 1.15 M63.94 21.14 C67.72 15.25, 74.29 10.88, 81 1.51 M63.94 21.14 C69.34 14.95, 75.63 6.55, 81 1.51 M69.59 20.74 C74.78 11.44, 83.3 6.27, 86.64 1.12 M69.59 20.74 C74.52 14.44, 79.97 9.75, 86.64 1.12 M74.57 21.1 C79.65 16.07, 82.41 9.83, 91.63 1.48 M74.57 21.1 C80.83 13.19, 86.72 7.74, 91.63 1.48 M80.22 20.71 C85.66 13.68, 92.05 7.01, 96.62 1.84 M80.22 20.71 C84.94 14.51, 89.53 9.3, 96.62 1.84 M85.2 21.07 C90.75 15.31, 91.76 14.15, 102.26 1.44 M85.2 21.07 C90.26 13.98, 95.37 8.13, 102.26 1.44 M90.85 20.67 C96.05 13.74, 102.71 8.26, 107.25 1.8 M90.85 20.67 C95.95 14.28, 100.6 8.66, 107.25 1.8 M95.83 21.03 C100.83 14.96, 105.08 11.45, 112.89 1.41 M95.83 21.03 C98.85 16.76, 104.7 12.87, 112.89 1.41 M101.48 20.64 C106.73 14.63, 111.09 11.33, 117.88 1.77 M101.48 20.64 C106.54 14.04, 112.39 7.43, 117.88 1.77 M106.46 21 C111.79 15.14, 115.71 7.27, 123.52 1.38 M106.46 21 C113.34 13.69, 118.53 6, 123.52 1.38 M111.45 21.36 C117.3 14.76, 125.23 5.96, 128.51 1.74 M111.45 21.36 C117.12 14.58, 125.08 6.18, 128.51 1.74 M117.09 20.96 C120.33 13.95, 126.04 11.05, 134.15 1.34 M117.09 20.96 C124.31 13.45, 130.21 5.96, 134.15 1.34 M122.08 21.32 C127.49 16, 132.83 12.16, 139.14 1.7 M122.08 21.32 C126.01 16.36, 131.57 10.99, 139.14 1.7 M127.72 20.93 C133.22 15.4, 139.88 10.12, 144.78 1.31 M127.72 20.93 C134.86 13.84, 140.18 6.54, 144.78 1.31 M132.71 21.29 C138.44 15.62, 147.49 6.18, 149.77 1.67 M132.71 21.29 C137.66 14.18, 142.87 8.82, 149.77 1.67 M138.35 20.89 C143.87 13.74, 150.46 7.89, 155.41 1.27 M138.35 20.89 C142.34 15.99, 147.68 10.91, 155.41 1.27 M143.34 21.25 C149.8 13.06, 152.92 9.21, 160.4 1.63 M143.34 21.25 C148.01 16.01, 153.92 8.9, 160.4 1.63 M148.98 20.86 C152.34 17.41, 157.61 9.87, 166.04 1.24 M148.98 20.86 C155.43 14.8, 161.83 8.27, 166.04 1.24 M153.97 21.22 C159.8 13.22, 164.7 9.01, 171.03 1.6 M153.97 21.22 C159.77 15.25, 164.38 11.13, 171.03 1.6 M159.62 20.83 C165.33 16.54, 169.45 9.24, 176.67 1.2 M159.62 20.83 C165.44 12.72, 172.12 7.2, 176.67 1.2 M164.6 21.19 C168.16 16.03, 173.59 11.54, 180.35 3.07 M164.6 21.19 C170.13 14.4, 176.72 8.13, 180.35 3.07 M170.25 20.79 C172.96 17.03, 176.07 13.11, 180.74 8.72 M170.25 20.79 C173.79 16.75, 177.1 11.82, 180.74 8.72 M175.23 21.15 C176.68 20.1, 177.72 19.24, 180.48 15.11 M175.23 21.15 C177.14 18.95, 179.3 16.96, 180.48 15.11 M1.63 19.46 C1.63 19.46, 1.63 19.46, 1.63 19.46 M1.63 19.46 C1.63 19.46, 1.63 19.46, 1.63 19.46 M6.52 18.41 C5.24 17.83, 4.16 16.48, 1.24 13.82 M6.52 18.41 C4.74 16.86, 3.2 15.55, 1.24 13.82 M12.92 18.67 C8.22 14.4, 2.65 11.37, 1.6 8.83 M12.92 18.67 C8.18 15.43, 3.54 11.66, 1.6 8.83 M18.56 18.28 C10.27 11.95, 6.01 7.79, 0.45 2.53 M18.56 18.28 C12.48 12.91, 5.5 6.95, 0.45 2.53 M24.96 18.54 C18.89 12.38, 7.44 4.12, 3.83 0.17 M24.96 18.54 C18.19 11.9, 10.99 6.13, 3.83 0.17 M31.36 18.8 C22.52 13.04, 17.04 6.35, 7.21 -2.19 M31.36 18.8 C23.09 11.64, 16.52 5.62, 7.21 -2.19 M37 18.41 C31.87 13.19, 26.49 9.46, 12.85 -2.59 M37 18.41 C31.23 12.77, 24.67 6.83, 12.85 -2.59 M43.4 18.67 C39.66 15.62, 34.37 10.3, 19.25 -2.33 M43.4 18.67 C37.05 13.13, 32.04 9.44, 19.25 -2.33 M49.04 18.27 C41.08 13.16, 36.98 6.83, 25.65 -2.07 M49.04 18.27 C44.2 13.65, 38.3 8.47, 25.65 -2.07 M55.44 18.53 C48.33 12.65, 43.56 7.47, 31.29 -2.46 M55.44 18.53 C48.88 14.25, 44.68 9.36, 31.29 -2.46 M61.84 18.79 C53.26 11.5, 45.19 6.45, 37.69 -2.2 M61.84 18.79 C57 15.43, 50.75 9.63, 37.69 -2.2 M67.48 18.4 C58.52 10.48, 52.41 2.43, 43.33 -2.59 M67.48 18.4 C59.02 10.24, 49.63 1.8, 43.33 -2.59 M73.88 18.66 C65.44 14.25, 57.26 5.18, 49.73 -2.33 M73.88 18.66 C67.76 13.79, 63.53 9.39, 49.73 -2.33 M79.52 18.27 C68.84 11.56, 62.09 2.87, 56.13 -2.07 M79.52 18.27 C71.07 11.1, 65.17 5.6, 56.13 -2.07 M85.92 18.53 C80.91 13.5, 74.49 5.08, 61.77 -2.47 M85.92 18.53 C80.18 13.19, 74.67 7.19, 61.77 -2.47 M92.32 18.79 C86.09 13.13, 75.68 3.19, 68.17 -2.2 M92.32 18.79 C85.96 14.17, 79.85 8.67, 68.17 -2.2 M97.96 18.4 C89.9 11.68, 80.59 4.47, 73.81 -2.6 M97.96 18.4 C93.42 12.76, 87.02 9.43, 73.81 -2.6 M104.36 18.66 C99.62 14.18, 93.06 7.83, 80.21 -2.34 M104.36 18.66 C95.92 12.2, 88.99 4.73, 80.21 -2.34 M110 18.26 C105.27 13.19, 98.22 8.23, 86.61 -2.08 M110 18.26 C102.13 12.84, 95.13 5.74, 86.61 -2.08 M116.4 18.52 C107.22 12.14, 99.39 3.38, 92.25 -2.47 M116.4 18.52 C109.32 13.08, 103.19 5.29, 92.25 -2.47 M122.8 18.79 C112.16 12.07, 105.63 3.29, 98.65 -2.21 M122.8 18.79 C115.67 12.24, 108.24 5.93, 98.65 -2.21 M128.44 18.39 C122.72 14.12, 116.01 5.98, 104.29 -2.6 M128.44 18.39 C122.04 12.05, 115.12 6.12, 104.29 -2.6 M134.84 18.65 C128.61 11.65, 121.57 7.74, 110.69 -2.34 M134.84 18.65 C129.76 13.5, 123.26 8.6, 110.69 -2.34 M140.48 18.26 C131.79 13.29, 123.86 6.1, 117.08 -2.08 M140.48 18.26 C130.71 11.13, 122.94 3.23, 117.08 -2.08 M146.88 18.52 C136.8 10.71, 132.26 3.51, 122.73 -2.48 M146.88 18.52 C140.25 12.3, 132.75 4.58, 122.73 -2.48 M153.28 18.78 C147.91 13.15, 142.51 11.31, 129.13 -2.21 M153.28 18.78 C148.5 13.09, 141.84 9.81, 129.13 -2.21 M158.92 18.39 C150.83 9.32, 144.16 2.45, 134.77 -2.61 M158.92 18.39 C153.81 14.74, 149.56 9.95, 134.77 -2.61 M165.32 18.65 C161.08 13.6, 153.97 11.19, 141.17 -2.35 M165.32 18.65 C159.15 13.02, 154.42 9.27, 141.17 -2.35 M170.96 18.25 C162.88 10.13, 157.3 4.87, 147.56 -2.09 M170.96 18.25 C161.76 11.47, 153.41 2.94, 147.56 -2.09 M177.36 18.51 C172.55 11.3, 164.59 6.38, 153.21 -2.48 M177.36 18.51 C172.02 13.8, 166.25 7.44, 153.21 -2.48 M181.49 16.81 C176.97 11.87, 168.93 6.84, 159.6 -2.22 M181.49 16.81 C174.07 11.31, 167.19 4.56, 159.6 -2.22 M182.61 12.48 C178.33 9.68, 176.93 6.91, 165.25 -2.61 M182.61 12.48 C175.91 7.32, 170.03 0.52, 165.25 -2.61 M182.21 6.83 C179.64 3.46, 177.17 2.11, 171.65 -2.35 M182.21 6.83 C179.12 3.11, 174.19 0.18, 171.65 -2.35" stroke="#868e96" stroke-width="0.5" fill="none"></path><path d="M5.11 0 M5.11 0 C57.95 -0.92, 109.84 1.5, 175.14 0 M5.11 0 C39.77 0.82, 75.02 0.97, 175.14 0 M175.14 0 C178.41 0.48, 181.57 0.37, 180.25 5.11 M175.14 0 C176.45 -0.54, 179.08 -0.36, 180.25 5.11 M180.25 5.11 C180.5 6.92, 179.71 9.89, 180.25 15.32 M180.25 5.11 C180.15 8.95, 180.56 12.03, 180.25 15.32 M180.25 15.32 C179.28 19.54, 179.21 20.83, 175.14 20.43 M180.25 15.32 C179.16 19.87, 176.37 18.85, 175.14 20.43 M175.14 20.43 C120.83 23.46, 62.19 23.83, 5.11 20.43 M175.14 20.43 C115.09 21.61, 53.76 22.44, 5.11 20.43 M5.11 20.43 C0.76 20.81, -0.85 16.74, 0 15.32 M5.11 20.43 C2.93 19.71, 1.61 19.96, 0 15.32 M0 15.32 C-0.28 11.03, -0.63 7.34, 0 5.11 M0 15.32 C-0.12 11.89, 0.36 9.57, 0 5.11 M0 5.11 C1.65 1.62, 3.18 1.3, 5.11 0 M0 5.11 C0.39 1.76, 0.35 -1.05, 5.11 0" stroke="#000000" stroke-width="1" fill="none"></path></g><g stroke-linecap="round" transform="translate(438.4555079121362 201.48663251826858) rotate(0 154.54622458773474 10.695912221332776)"><path d="M0.37 2.97 C0.37 2.97, 0.37 2.97, 0.37 2.97 M0.37 2.97 C0.37 2.97, 0.37 2.97, 0.37 2.97 M0.11 9.37 C0.97 7.93, 4.37 6.27, 7.32 1.07 M0.11 9.37 C1.39 7.73, 3.24 5.83, 7.32 1.07 M-0.16 15.77 C4.24 11.7, 8.93 8.26, 12.31 1.43 M-0.16 15.77 C2.98 11.32, 8.21 7.58, 12.31 1.43 M1.55 19.9 C5.53 14.5, 11.75 10.47, 17.3 1.79 M1.55 19.9 C5.16 15.94, 10.04 9.82, 17.3 1.79 M5.23 21.77 C11.11 14.65, 13.29 12.6, 22.94 1.39 M5.23 21.77 C8.66 16.43, 13.64 12.29, 22.94 1.39 M10.87 21.37 C16.4 14.65, 24.31 5.05, 27.93 1.75 M10.87 21.37 C16.41 16.37, 20.86 10.8, 27.93 1.75 M15.86 21.73 C22.72 14.24, 28.18 6.42, 33.57 1.36 M15.86 21.73 C22.63 15.03, 29.27 7.71, 33.57 1.36 M21.5 21.34 C26.26 15.64, 32.69 8.64, 38.56 1.72 M21.5 21.34 C25.88 15.78, 30.25 12.25, 38.56 1.72 M26.49 21.7 C30.16 18.07, 33.39 12.73, 44.2 1.32 M26.49 21.7 C31.73 15.26, 39 7.95, 44.2 1.32 M32.13 21.3 C34.55 16.85, 40.28 11.36, 49.19 1.68 M32.13 21.3 C36.98 15.08, 44.21 8.38, 49.19 1.68 M37.12 21.66 C41.06 15.56, 48.01 7.43, 54.83 1.29 M37.12 21.66 C42.13 16.46, 47.03 10.38, 54.83 1.29 M42.76 21.27 C45.76 14.4, 50.75 13.1, 59.82 1.65 M42.76 21.27 C46.57 16.35, 51.72 12.19, 59.82 1.65 M47.75 21.63 C52.54 14.21, 58.92 8.46, 65.46 1.25 M47.75 21.63 C52.75 16.75, 56.15 11.58, 65.46 1.25 M53.39 21.24 C60.59 15.06, 65.94 6.96, 70.45 1.61 M53.39 21.24 C58.72 13.85, 65.68 6.52, 70.45 1.61 M58.38 21.6 C64.02 14.98, 68.61 8.57, 76.09 1.22 M58.38 21.6 C61.88 17.7, 66.07 11.97, 76.09 1.22 M64.02 21.2 C70.3 14.79, 73.88 7.74, 81.08 1.58 M64.02 21.2 C68.74 16.65, 73.28 10.06, 81.08 1.58 M69.01 21.56 C71.46 17.37, 77.08 10.79, 86.72 1.18 M69.01 21.56 C72.58 17.63, 77.09 13.21, 86.72 1.18 M74.65 21.17 C78.76 16.02, 83.96 11.41, 91.71 1.54 M74.65 21.17 C80.61 15.73, 86.48 9.22, 91.71 1.54 M79.64 21.53 C85.59 18.44, 88.83 13.17, 97.35 1.15 M79.64 21.53 C84.39 16.03, 89.15 10.4, 97.35 1.15 M85.28 21.13 C91.37 15.09, 98.18 8.51, 102.34 1.51 M85.28 21.13 C91.32 15.96, 94.73 9.39, 102.34 1.51 M90.27 21.49 C96.43 14.15, 100.65 8.34, 107.98 1.12 M90.27 21.49 C94.08 16.14, 99.64 10.95, 107.98 1.12 M95.25 21.85 C99.25 19.14, 103.47 14.54, 112.97 1.48 M95.25 21.85 C98.58 18.17, 102.19 13.32, 112.97 1.48 M100.9 21.46 C106.45 13.34, 115.99 7.39, 118.61 1.08 M100.9 21.46 C104.92 15.65, 109.61 11.04, 118.61 1.08 M105.88 21.82 C111.91 14.91, 117.59 5.96, 123.6 1.44 M105.88 21.82 C113.09 14.5, 119.28 6.9, 123.6 1.44 M111.53 21.42 C116.86 15.66, 121.78 12.11, 128.58 1.8 M111.53 21.42 C118.23 13.26, 125.25 6.51, 128.58 1.8 M116.51 21.78 C119.27 17.75, 123.5 13.97, 134.23 1.41 M116.51 21.78 C120.28 16.01, 126.45 12.03, 134.23 1.41 M122.16 21.39 C124.93 18.21, 130.92 10.5, 139.21 1.77 M122.16 21.39 C126.53 17.34, 129.78 12.49, 139.21 1.77 M127.14 21.75 C132.52 15.89, 137.65 7.05, 144.86 1.37 M127.14 21.75 C134.57 13.54, 140.94 5.62, 144.86 1.37 M132.79 21.35 C138.62 16.75, 143.3 9.61, 149.85 1.73 M132.79 21.35 C139.95 13.33, 145.87 6.58, 149.85 1.73 M137.77 21.71 C145.26 15.72, 146.95 10.84, 155.49 1.34 M137.77 21.71 C142.11 17.32, 144.93 11.8, 155.49 1.34 M143.42 21.32 C149.92 15.94, 153.84 6.72, 160.48 1.7 M143.42 21.32 C149.67 13.19, 156.52 6.68, 160.48 1.7 M148.4 21.68 C152.11 17.57, 157.14 9.27, 166.12 1.3 M148.4 21.68 C154.03 14.25, 159.49 8.32, 166.12 1.3 M154.05 21.29 C159.25 15.63, 162.42 13.82, 171.11 1.66 M154.05 21.29 C159.32 14.19, 166.72 6.64, 171.11 1.66 M159.03 21.65 C164.61 15.54, 172.66 6.68, 176.75 1.27 M159.03 21.65 C164.72 14.22, 171.76 7.69, 176.75 1.27 M164.68 21.25 C167.89 16.77, 174.79 13.8, 181.74 1.63 M164.68 21.25 C170.1 15.73, 175.17 8.8, 181.74 1.63 M169.66 21.61 C174.04 18.07, 177.73 14.48, 187.38 1.23 M169.66 21.61 C174.55 16.41, 178.61 12.99, 187.38 1.23 M175.31 21.22 C182.76 15.3, 187.99 7.98, 192.37 1.59 M175.31 21.22 C179.83 16.59, 184.48 11.32, 192.37 1.59 M180.29 21.58 C185.52 15.42, 190.44 12.21, 198.01 1.2 M180.29 21.58 C184.05 16.54, 189.09 11.16, 198.01 1.2 M185.94 21.18 C190.52 16.09, 193.64 12.11, 203 1.56 M185.94 21.18 C193.28 14.42, 197.82 7.63, 203 1.56 M190.92 21.54 C196.77 12.26, 205.95 6.64, 208.64 1.16 M190.92 21.54 C194.32 17.93, 198.44 12.28, 208.64 1.16 M196.57 21.15 C203.79 14.65, 207.97 4.45, 213.63 1.53 M196.57 21.15 C203.46 14.81, 209.02 7.39, 213.63 1.53 M201.56 21.51 C206.04 15.02, 213.77 8.95, 219.27 1.13 M201.56 21.51 C207.79 13.3, 214.75 5.1, 219.27 1.13 M206.54 21.87 C212.23 17.09, 217.07 10.91, 224.26 1.49 M206.54 21.87 C211.24 16.79, 216.98 10.01, 224.26 1.49 M212.19 21.47 C217.44 15.45, 219.5 12.03, 229.9 1.1 M212.19 21.47 C217.52 14.82, 222.87 7.46, 229.9 1.1 M217.17 21.83 C223.88 12.91, 230.99 5.3, 234.89 1.46 M217.17 21.83 C223.05 14.55, 230.35 7.07, 234.89 1.46 M222.82 21.44 C227.21 16.5, 234.68 10.63, 240.53 1.06 M222.82 21.44 C228.22 14.91, 234.33 8.6, 240.53 1.06 M227.8 21.8 C234.71 16.88, 236.62 7.6, 245.52 1.42 M227.8 21.8 C234 13.37, 242.18 7.07, 245.52 1.42 M233.45 21.4 C238.76 18.19, 241.91 13.45, 250.5 1.78 M233.45 21.4 C240.08 13.6, 247.08 7.17, 250.5 1.78 M238.43 21.76 C244.17 15.81, 247.18 9.51, 256.15 1.39 M238.43 21.76 C243.88 15.73, 248.82 10.27, 256.15 1.39 M244.08 21.37 C250.89 15.05, 255.52 5.67, 261.13 1.75 M244.08 21.37 C246.89 16.88, 250.95 14.29, 261.13 1.75 M249.06 21.73 C255.01 15.27, 261.91 7.12, 266.78 1.35 M249.06 21.73 C254.16 15.12, 261.45 8.29, 266.78 1.35 M254.71 21.34 C259.47 15.2, 264.23 11.06, 271.76 1.71 M254.71 21.34 C260.99 14.67, 267.45 5.5, 271.76 1.71 M259.69 21.7 C266.14 14.4, 269.58 9.84, 277.41 1.32 M259.69 21.7 C266.33 14.62, 273.52 6.82, 277.41 1.32 M265.34 21.3 C269.81 12.88, 277.4 6.2, 282.39 1.68 M265.34 21.3 C270.04 17.36, 272.17 13.47, 282.39 1.68 M270.32 21.66 C275.14 15.11, 282.5 7.22, 288.04 1.28 M270.32 21.66 C273.71 17.14, 278.39 13.87, 288.04 1.28 M275.97 21.27 C280.14 12.72, 286.16 6.46, 293.02 1.64 M275.97 21.27 C280.87 14.7, 286.5 8.14, 293.02 1.64 M280.95 21.63 C283.41 15.93, 286.67 13.24, 298.67 1.25 M280.95 21.63 C287.29 14.36, 294.56 6.31, 298.67 1.25 M286.6 21.23 C295.19 12.85, 301.12 7.11, 304.31 0.85 M286.6 21.23 C291.37 16.71, 294.99 12.54, 304.31 0.85 M291.58 21.59 C295.39 15, 303.55 11.31, 307.98 2.72 M291.58 21.59 C294.34 16.93, 299.36 13.2, 307.98 2.72 M297.23 21.2 C298.93 18.97, 302.51 13.58, 311 5.35 M297.23 21.2 C302.1 16.51, 306.97 10.49, 311 5.35 M302.21 21.56 C305.45 18.08, 308.85 14.14, 311.4 10.99 M302.21 21.56 C305.33 17.2, 309.24 13.4, 311.4 10.99 M1.21 19.95 C1.21 19.95, 1.21 19.95, 1.21 19.95 M1.21 19.95 C1.21 19.95, 1.21 19.95, 1.21 19.95 M6.85 19.55 C6.1 18.56, 4.36 16.69, 1.57 14.96 M6.85 19.55 C5.06 17.53, 2.66 16.06, 1.57 14.96 M13.25 19.81 C10.54 15.54, 4.61 12.27, 1.18 9.32 M13.25 19.81 C8.7 15.44, 4.56 11.3, 1.18 9.32 M18.9 19.42 C14.86 16.55, 8.2 13.09, 1.54 4.33 M18.9 19.42 C12.58 13.52, 6.76 9.17, 1.54 4.33 M25.29 19.68 C22.31 17.58, 15.58 13.31, 2.65 0 M25.29 19.68 C19.67 14.77, 12.74 8.69, 2.65 0 M30.94 19.28 C21.92 14.45, 18.75 8.84, 6.79 -1.71 M30.94 19.28 C24.73 13.69, 16.48 8.12, 6.79 -1.71 M37.33 19.55 C29.79 12.71, 21.71 6.26, 13.18 -1.45 M37.33 19.55 C30.59 12.54, 23.69 6.88, 13.18 -1.45 M43.73 19.81 C34.77 12.59, 26.2 6.05, 18.83 -1.84 M43.73 19.81 C34.94 11.98, 25.88 4.69, 18.83 -1.84 M49.37 19.41 C42.67 12.49, 30.8 3.34, 25.22 -1.58 M49.37 19.41 C40.11 10.8, 31.02 2.83, 25.22 -1.58 M55.77 19.67 C45.1 10.5, 36.37 3.78, 30.87 -1.98 M55.77 19.67 C48.85 12.13, 39.61 5.57, 30.87 -1.98 M61.42 19.28 C53.14 13.37, 45.61 4.28, 37.27 -1.71 M61.42 19.28 C55.02 14.88, 50.72 9.09, 37.27 -1.71 M67.81 19.54 C59.8 11.85, 48.4 1.79, 43.66 -1.45 M67.81 19.54 C62.03 14.35, 58.07 11.46, 43.66 -1.45 M74.21 19.8 C68.6 13.47, 60.7 9.11, 49.31 -1.85 M74.21 19.8 C65.24 12.69, 56.96 5.42, 49.31 -1.85 M79.85 19.41 C70.74 13.82, 61.96 2.47, 55.7 -1.59 M79.85 19.41 C71.66 13.31, 63.51 5.45, 55.7 -1.59 M86.25 19.67 C74.63 12.98, 67.49 0.89, 61.35 -1.98 M86.25 19.67 C76.03 11.15, 67.83 3.49, 61.35 -1.98 M91.9 19.28 C81.51 10.99, 74.13 1.84, 67.74 -1.72 M91.9 19.28 C86.04 13.78, 80.26 8.41, 67.74 -1.72 M98.29 19.54 C93.7 14.47, 85.17 8.16, 74.14 -1.46 M98.29 19.54 C91.2 13.8, 82.98 6.4, 74.14 -1.46 M104.69 19.8 C98.32 15.01, 93.17 10.49, 79.79 -1.85 M104.69 19.8 C96.82 12.53, 87.58 4.42, 79.79 -1.85 M110.33 19.4 C103.61 13.81, 94.1 7.61, 86.18 -1.59 M110.33 19.4 C105.1 14.2, 99.66 9.95, 86.18 -1.59 M116.73 19.67 C112.49 14.3, 104.14 7.24, 91.83 -1.98 M116.73 19.67 C111.36 14.14, 103.55 9.11, 91.83 -1.98 M122.37 19.27 C115.97 13.92, 109.27 7.21, 98.22 -1.72 M122.37 19.27 C117.29 13.82, 111.38 9.94, 98.22 -1.72 M128.77 19.53 C123.21 16.04, 117.53 7.56, 104.62 -1.46 M128.77 19.53 C120.49 12, 113.86 6.15, 104.62 -1.46 M135.17 19.79 C128.39 15.3, 120.43 8.35, 110.27 -1.86 M135.17 19.79 C127.11 14.13, 120.36 7.37, 110.27 -1.86 M140.81 19.4 C133.84 14.55, 128.39 9.09, 116.66 -1.6 M140.81 19.4 C133.72 12.01, 126.21 6.45, 116.66 -1.6 M147.21 19.66 C138.84 10.9, 130.8 3.97, 122.31 -1.99 M147.21 19.66 C138.32 11.77, 130.07 6.37, 122.31 -1.99 M153.61 19.92 C147.45 12.51, 139.17 7.67, 128.7 -1.73 M153.61 19.92 C147.95 15.45, 142.6 10.82, 128.7 -1.73 M159.25 19.53 C151.05 10.66, 139.98 4.38, 135.1 -1.47 M159.25 19.53 C152.85 14.61, 146.38 9.39, 135.1 -1.47 M165.65 19.79 C160.82 16.24, 153.13 11.08, 140.74 -1.86 M165.65 19.79 C157.24 11.35, 146.52 4.11, 140.74 -1.86 M171.29 19.39 C165.77 12.38, 157.3 6.03, 147.14 -1.6 M171.29 19.39 C165.66 15.28, 160.95 10.31, 147.14 -1.6 M177.69 19.66 C169.38 14.74, 160.87 6.1, 152.79 -1.99 M177.69 19.66 C172.63 14.5, 167.07 10.02, 152.79 -1.99 M184.09 19.92 C175.22 12.65, 168.53 4.66, 159.18 -1.73 M184.09 19.92 C174.89 11.5, 165.7 3.99, 159.18 -1.73 M189.73 19.52 C184.94 16.52, 178.43 11.94, 165.58 -1.47 M189.73 19.52 C184.23 14.7, 179.79 10.56, 165.58 -1.47 M196.13 19.78 C189.09 13.12, 180.48 8.73, 171.22 -1.87 M196.13 19.78 C189.96 13.88, 183.2 6.68, 171.22 -1.87 M201.77 19.39 C192.12 14.16, 186.52 8.03, 177.62 -1.6 M201.77 19.39 C193.84 12.73, 184.87 3.41, 177.62 -1.6 M208.17 19.65 C200.18 10.66, 190.5 1.16, 183.26 -2 M208.17 19.65 C202.83 13.79, 194.74 9.14, 183.26 -2 M214.57 19.91 C207.37 15.29, 198.44 5.51, 189.66 -1.74 M214.57 19.91 C205.24 12.69, 195.21 4.38, 189.66 -1.74 M220.21 19.52 C210.29 11.32, 204.87 6, 196.06 -1.48 M220.21 19.52 C212.65 13.57, 205.3 7.42, 196.06 -1.48 M226.61 19.78 C216.78 12.5, 207.13 1.94, 201.7 -1.87 M226.61 19.78 C217.76 11, 207.66 4.21, 201.7 -1.87 M232.25 19.38 C224.58 11.76, 216.52 4.99, 208.1 -1.61 M232.25 19.38 C223.5 13.03, 216.8 5.96, 208.1 -1.61 M238.65 19.65 C230.78 14.65, 224.84 10.81, 213.74 -2 M238.65 19.65 C233.37 15.59, 227.68 11.21, 213.74 -2 M245.05 19.91 C236.04 10.55, 228.2 5.15, 220.14 -1.74 M245.05 19.91 C236.42 12.55, 226.55 3.37, 220.14 -1.74 M250.69 19.51 C240.02 13.39, 232.8 5.29, 226.54 -1.48 M250.69 19.51 C244.52 13.76, 236.12 6.91, 226.54 -1.48 M257.09 19.77 C249.97 15.26, 247.38 11.91, 232.18 -1.88 M257.09 19.77 C247.67 11.14, 240.38 4.93, 232.18 -1.88 M262.73 19.38 C256.38 13.24, 246.35 3.67, 238.58 -1.61 M262.73 19.38 C254.35 12.23, 244.7 3.3, 238.58 -1.61 M269.13 19.64 C263.38 12.23, 258.1 6.44, 244.22 -2.01 M269.13 19.64 C262 13.71, 255.9 8.42, 244.22 -2.01 M275.53 19.9 C265.22 11.43, 255.21 2.03, 250.62 -1.75 M275.53 19.9 C266.75 12.37, 256.55 3.25, 250.62 -1.75 M281.17 19.51 C273.64 11.05, 262.2 2.98, 257.02 -1.49 M281.17 19.51 C273.3 13.11, 268.04 7.15, 257.02 -1.49 M287.57 19.77 C278.15 11.07, 271.49 2.9, 262.66 -1.88 M287.57 19.77 C278.85 11.38, 269.68 4.38, 262.66 -1.88 M293.21 19.37 C286.69 16.76, 282.65 9.34, 269.06 -1.62 M293.21 19.37 C287.48 14.91, 283.1 10.5, 269.06 -1.62 M299.61 19.64 C290.59 13.43, 280.9 3.81, 275.46 -1.36 M299.61 19.64 C290.88 10.53, 280.05 2.28, 275.46 -1.36 M305.25 19.24 C298.65 13.88, 292.84 9.2, 281.1 -1.75 M305.25 19.24 C298.84 13.22, 293.29 9.92, 281.1 -1.75 M309.39 17.53 C302.09 11.91, 296.02 6.34, 287.5 -1.49 M309.39 17.53 C304.48 13.05, 299.54 9.16, 287.5 -1.49 M311.26 13.86 C304.41 9.77, 297.78 1.89, 293.14 -1.89 M311.26 13.86 C304.39 8.45, 298.43 2.41, 293.14 -1.89 M310.86 8.22 C308.05 5.09, 305.14 3.51, 299.54 -1.62 M310.86 8.22 C306.64 5.12, 301.56 1.13, 299.54 -1.62" stroke="#868e96" stroke-width="0.5" fill="none"></path><path d="M5.35 0 M5.35 0 C73.17 0.86, 140.59 1.71, 303.74 0 M5.35 0 C110.82 0.5, 214.52 0.12, 303.74 0 M303.74 0 C308.62 -1.78, 308.79 1.39, 309.09 5.35 M303.74 0 C307.19 1.93, 310.56 3.4, 309.09 5.35 M309.09 5.35 C309.82 6.75, 309.37 9.66, 309.09 16.04 M309.09 5.35 C309.33 9.19, 309.5 12.44, 309.09 16.04 M309.09 16.04 C307.32 18, 306.66 21.03, 303.74 21.39 M309.09 16.04 C309.8 18.35, 305.68 22.72, 303.74 21.39 M303.74 21.39 C187.49 20.51, 70.68 20.16, 5.35 21.39 M303.74 21.39 C216.49 22.88, 127.54 23.28, 5.35 21.39 M5.35 21.39 C1.93 23.36, -0.26 19.13, 0 16.04 M5.35 21.39 C1.34 20.24, -0.88 18.12, 0 16.04 M0 16.04 C0.5 13.21, -0.85 8.16, 0 5.35 M0 16.04 C0.17 13.45, -0.14 10.08, 0 5.35 M0 5.35 C-1.25 2.31, 1.18 1.44, 5.35 0 M0 5.35 C-1.33 0.89, 0.82 0.91, 5.35 0" stroke="#000000" stroke-width="1" fill="none"></path></g><g stroke-linecap="round" transform="translate(426.996947772117 379.14793835640967) rotate(0 154.54622458773474 10.695912221332776)"><path d="M0.37 2.97 C0.37 2.97, 0.37 2.97, 0.37 2.97 M0.37 2.97 C0.37 2.97, 0.37 2.97, 0.37 2.97 M0.11 9.37 C3.51 6.77, 4.42 2.85, 7.32 1.07 M0.11 9.37 C2.95 6.41, 5.33 3.25, 7.32 1.07 M-0.16 15.77 C5.13 9.4, 7.57 8.29, 12.31 1.43 M-0.16 15.77 C2.83 11.79, 6.1 8.75, 12.31 1.43 M1.55 19.9 C7.49 14.69, 10.9 11.17, 17.3 1.79 M1.55 19.9 C5.24 14.86, 10.22 10.46, 17.3 1.79 M5.23 21.77 C9.33 15.32, 14.56 11.35, 22.94 1.39 M5.23 21.77 C11.91 13.47, 17.46 7.4, 22.94 1.39 M10.87 21.37 C17.99 13.55, 21.28 9.32, 27.93 1.75 M10.87 21.37 C15.57 15.43, 21.85 9.04, 27.93 1.75 M15.86 21.73 C22.58 14.6, 25.1 11.34, 33.57 1.36 M15.86 21.73 C19.49 16.07, 24.62 10.95, 33.57 1.36 M21.5 21.34 C23.34 18.44, 29.02 14.29, 38.56 1.72 M21.5 21.34 C25.41 17.26, 28.87 12.7, 38.56 1.72 M26.49 21.7 C32.32 17.55, 35.38 10.98, 44.2 1.32 M26.49 21.7 C30.53 17.19, 35.46 10.51, 44.2 1.32 M32.13 21.3 C35.95 19.04, 41.3 12.76, 49.19 1.68 M32.13 21.3 C39 14.22, 44.46 4.97, 49.19 1.68 M37.12 21.66 C41.76 17.72, 46.33 10.88, 54.83 1.29 M37.12 21.66 C41.99 16.09, 48.64 9.61, 54.83 1.29 M42.76 21.27 C48.27 16.75, 52.38 9.37, 59.82 1.65 M42.76 21.27 C48.71 15.22, 54 8.59, 59.82 1.65 M47.75 21.63 C50.44 18.34, 56.1 12.17, 65.46 1.25 M47.75 21.63 C52.92 15.62, 57.76 10.42, 65.46 1.25 M53.39 21.24 C59.9 12.52, 67.55 8.19, 70.45 1.61 M53.39 21.24 C57.32 16.3, 61.2 13.77, 70.45 1.61 M58.38 21.6 C62.67 16.55, 70.65 6.82, 76.09 1.22 M58.38 21.6 C63.06 16.8, 65.69 14.35, 76.09 1.22 M64.02 21.2 C71.62 11.91, 75.54 7.8, 81.08 1.58 M64.02 21.2 C69.24 15.96, 73.35 11.29, 81.08 1.58 M69.01 21.56 C75.56 15.32, 82.54 7.62, 86.72 1.18 M69.01 21.56 C74.57 14.5, 80.18 7.67, 86.72 1.18 M74.65 21.17 C80.89 15.34, 85.7 9.6, 91.71 1.54 M74.65 21.17 C80.16 16.15, 83.97 9.31, 91.71 1.54 M79.64 21.53 C85.73 11.8, 94.45 6.4, 97.35 1.15 M79.64 21.53 C84.14 15.53, 87.93 11.94, 97.35 1.15 M85.28 21.13 C87.8 16.96, 91.64 14.62, 102.34 1.51 M85.28 21.13 C91.65 14.32, 97.8 7.67, 102.34 1.51 M90.27 21.49 C95.77 17.63, 100.35 12.38, 107.98 1.12 M90.27 21.49 C96.27 14.86, 102.51 7.64, 107.98 1.12 M95.25 21.85 C102.28 13.23, 104.95 9.94, 112.97 1.48 M95.25 21.85 C99.92 16.66, 106.74 8.76, 112.97 1.48 M100.9 21.46 C106.5 17.11, 110.6 12.25, 118.61 1.08 M100.9 21.46 C106.02 15.75, 112.5 8.94, 118.61 1.08 M105.88 21.82 C111.98 13.62, 117.74 6.04, 123.6 1.44 M105.88 21.82 C109.57 17.34, 113.82 13.87, 123.6 1.44 M111.53 21.42 C117.46 14.46, 120.33 7.89, 128.58 1.8 M111.53 21.42 C115.42 16.37, 121.22 12, 128.58 1.8 M116.51 21.78 C123.65 14.77, 129.08 8.03, 134.23 1.41 M116.51 21.78 C120.09 18.55, 123.44 13.55, 134.23 1.41 M122.16 21.39 C127.8 14.03, 135.43 9.52, 139.21 1.77 M122.16 21.39 C127.75 15.63, 130.82 10.3, 139.21 1.77 M127.14 21.75 C132.01 14.34, 139.64 7.99, 144.86 1.37 M127.14 21.75 C134.65 14.39, 141.41 6.6, 144.86 1.37 M132.79 21.35 C136.99 15.21, 142.95 5.91, 149.85 1.73 M132.79 21.35 C136.8 16.25, 140.86 12.78, 149.85 1.73 M137.77 21.71 C142.29 17.34, 145.46 9.42, 155.49 1.34 M137.77 21.71 C142.75 16.48, 148.98 9.65, 155.49 1.34 M143.42 21.32 C145.8 15.08, 150.49 12.22, 160.48 1.7 M143.42 21.32 C148.13 15.18, 152.83 9.62, 160.48 1.7 M148.4 21.68 C153.07 13.13, 160.74 9.85, 166.12 1.3 M148.4 21.68 C154.89 14.87, 160.59 9.58, 166.12 1.3 M154.05 21.29 C158.27 16.57, 165.12 8.48, 171.11 1.66 M154.05 21.29 C158.6 16.37, 163.51 10.93, 171.11 1.66 M159.03 21.65 C162.7 18.25, 169.29 10.18, 176.75 1.27 M159.03 21.65 C162.31 18.07, 166.48 12, 176.75 1.27 M164.68 21.25 C171.57 13.75, 175.31 10.62, 181.74 1.63 M164.68 21.25 C170.66 15.63, 175.26 9.9, 181.74 1.63 M169.66 21.61 C176.08 14.59, 181.81 10.28, 187.38 1.23 M169.66 21.61 C172.55 17.9, 176.29 13.81, 187.38 1.23 M175.31 21.22 C179.91 16.74, 183.33 13.56, 192.37 1.59 M175.31 21.22 C181.82 14.16, 186.94 6.15, 192.37 1.59 M180.29 21.58 C187.01 14.39, 191.23 8.5, 198.01 1.2 M180.29 21.58 C185.42 14.48, 192.1 8.31, 198.01 1.2 M185.94 21.18 C189.26 15.02, 193.73 12.58, 203 1.56 M185.94 21.18 C190.38 15.51, 195.31 8.69, 203 1.56 M190.92 21.54 C198.37 12.22, 205.35 7.34, 208.64 1.16 M190.92 21.54 C197.14 13.82, 204.86 4.91, 208.64 1.16 M196.57 21.15 C202.22 16.03, 205.63 11.68, 213.63 1.53 M196.57 21.15 C200.91 15.81, 203.7 12.31, 213.63 1.53 M201.56 21.51 C209.02 16.05, 215.86 6.6, 219.27 1.13 M201.56 21.51 C206.97 15.09, 212.3 10.22, 219.27 1.13 M206.54 21.87 C212.97 13.4, 219.88 5.85, 224.26 1.49 M206.54 21.87 C211.78 15.77, 217.97 9.27, 224.26 1.49 M212.19 21.47 C218.55 15.52, 225.41 9.69, 229.9 1.1 M212.19 21.47 C216.42 15.82, 221.45 11.2, 229.9 1.1 M217.17 21.83 C223.43 12.86, 227.46 9.75, 234.89 1.46 M217.17 21.83 C220.82 17.26, 225.4 12.63, 234.89 1.46 M222.82 21.44 C226.49 15.49, 232.55 11.08, 240.53 1.06 M222.82 21.44 C226.94 14.88, 231.95 10.33, 240.53 1.06 M227.8 21.8 C232.58 16.7, 234.46 10.76, 245.52 1.42 M227.8 21.8 C234.44 15.37, 239.43 9.09, 245.52 1.42 M233.45 21.4 C240.82 13.63, 245.77 4.24, 250.5 1.78 M233.45 21.4 C236.23 17.78, 241.5 13.02, 250.5 1.78 M238.43 21.76 C244.99 15.22, 253.32 7.35, 256.15 1.39 M238.43 21.76 C244.97 13.32, 251.57 6.94, 256.15 1.39 M244.08 21.37 C251.64 14.44, 253.82 8.64, 261.13 1.75 M244.08 21.37 C249.3 16.36, 252.83 12.52, 261.13 1.75 M249.06 21.73 C254.23 18.69, 254.37 15.16, 266.78 1.35 M249.06 21.73 C253.05 16.67, 258.23 11.87, 266.78 1.35 M254.71 21.34 C260.37 15.83, 264.73 7.83, 271.76 1.71 M254.71 21.34 C260.05 15.48, 265.58 7.77, 271.76 1.71 M259.69 21.7 C265.51 12.95, 270.16 7.86, 277.41 1.32 M259.69 21.7 C265.68 14.96, 270.15 8.46, 277.41 1.32 M265.34 21.3 C271.52 13.93, 278.34 7.23, 282.39 1.68 M265.34 21.3 C269.69 15.63, 273.16 11.17, 282.39 1.68 M270.32 21.66 C277.45 12.21, 284 4.82, 288.04 1.28 M270.32 21.66 C275.91 14.64, 282.11 7.52, 288.04 1.28 M275.97 21.27 C281.34 14.79, 285.04 8.01, 293.02 1.64 M275.97 21.27 C279.48 16.58, 283.83 12.61, 293.02 1.64 M280.95 21.63 C288.49 15.17, 294.98 4.58, 298.67 1.25 M280.95 21.63 C284.07 17.95, 289.03 12.7, 298.67 1.25 M286.6 21.23 C295.51 14.82, 299.65 5.46, 304.31 0.85 M286.6 21.23 C290.34 16.75, 296.03 10.5, 304.31 0.85 M291.58 21.59 C297.91 15.68, 302.18 10.25, 307.98 2.72 M291.58 21.59 C297.48 16.1, 302.14 9.98, 307.98 2.72 M297.23 21.2 C301.57 17.62, 305.02 13.86, 311 5.35 M297.23 21.2 C299.29 18.19, 303.4 14.5, 311 5.35 M302.21 21.56 C304.1 18.34, 307.05 15.54, 311.4 10.99 M302.21 21.56 C303.48 18.85, 306.64 17.24, 311.4 10.99 M1.21 19.95 C1.21 19.95, 1.21 19.95, 1.21 19.95 M1.21 19.95 C1.21 19.95, 1.21 19.95, 1.21 19.95 M6.85 19.55 C5.62 18.46, 5.16 17.22, 1.57 14.96 M6.85 19.55 C5.73 18.13, 4.45 16.95, 1.57 14.96 M13.25 19.81 C10.91 15.59, 7.36 15.31, 1.18 9.32 M13.25 19.81 C7.9 14.92, 3.53 11.48, 1.18 9.32 M18.9 19.42 C12.05 14.4, 5.58 7.25, 1.54 4.33 M18.9 19.42 C13.38 14.97, 7.09 8.67, 1.54 4.33 M25.29 19.68 C19.21 10.9, 9.27 4.55, 2.65 0 M25.29 19.68 C20.32 15.48, 15.59 11.49, 2.65 0 M30.94 19.28 C25.33 15.41, 18.79 10.49, 6.79 -1.71 M30.94 19.28 C21.69 12.12, 13.15 2.41, 6.79 -1.71 M37.33 19.55 C29.37 10.65, 19.77 1.28, 13.18 -1.45 M37.33 19.55 C28.25 12.71, 20.27 4.89, 13.18 -1.45 M43.73 19.81 C36.04 11.85, 30.31 6.36, 18.83 -1.84 M43.73 19.81 C38.52 16.23, 32.07 10.85, 18.83 -1.84 M49.37 19.41 C42.7 12.56, 35.56 7.05, 25.22 -1.58 M49.37 19.41 C41.94 12.86, 31.79 5.96, 25.22 -1.58 M55.77 19.67 C45.93 13.82, 35.88 3.59, 30.87 -1.98 M55.77 19.67 C49.33 14.05, 44.29 9.54, 30.87 -1.98 M61.42 19.28 C54.91 11.19, 43.32 6.18, 37.27 -1.71 M61.42 19.28 C53.59 10.92, 44.45 4.08, 37.27 -1.71 M67.81 19.54 C58.35 12.51, 51.48 4.67, 43.66 -1.45 M67.81 19.54 C61.39 13.03, 54.71 8.26, 43.66 -1.45 M74.21 19.8 C65.52 10.15, 53.14 4.46, 49.31 -1.85 M74.21 19.8 C68.05 14.81, 63.79 10.09, 49.31 -1.85 M79.85 19.41 C73.66 13.94, 68.26 11.22, 55.7 -1.59 M79.85 19.41 C73.94 14.38, 67.36 7.17, 55.7 -1.59 M86.25 19.67 C78.97 11.42, 73.05 4.82, 61.35 -1.98 M86.25 19.67 C78.69 12.42, 71.09 6.77, 61.35 -1.98 M91.9 19.28 C80.58 12.29, 73.42 4.16, 67.74 -1.72 M91.9 19.28 C83.67 11.82, 73.45 4.3, 67.74 -1.72 M98.29 19.54 C91.21 11.51, 81.77 3.44, 74.14 -1.46 M98.29 19.54 C92.07 13.57, 84.82 7.55, 74.14 -1.46 M104.69 19.8 C96.38 13.54, 89.21 5.64, 79.79 -1.85 M104.69 19.8 C97.31 14.39, 91.96 8.23, 79.79 -1.85 M110.33 19.4 C104.27 12.76, 94.49 8.72, 86.18 -1.59 M110.33 19.4 C102.77 12.39, 93.49 5.04, 86.18 -1.59 M116.73 19.67 C109.97 16.65, 104.38 9.78, 91.83 -1.98 M116.73 19.67 C110.31 14.24, 104.71 9.65, 91.83 -1.98 M122.37 19.27 C113.64 10.21, 103.66 5.54, 98.22 -1.72 M122.37 19.27 C113.88 11.29, 103.35 3.27, 98.22 -1.72 M128.77 19.53 C118.49 10.19, 109.03 4.2, 104.62 -1.46 M128.77 19.53 C120.07 13.37, 112.25 6.1, 104.62 -1.46 M135.17 19.79 C127.43 15.76, 120.5 9.83, 110.27 -1.86 M135.17 19.79 C126.36 13.59, 119.25 4.83, 110.27 -1.86 M140.81 19.4 C136.19 13.44, 127.08 7.08, 116.66 -1.6 M140.81 19.4 C132.55 12.73, 124.23 5.05, 116.66 -1.6 M147.21 19.66 C140.44 11.99, 130.7 7.92, 122.31 -1.99 M147.21 19.66 C140.23 13.86, 133.85 8.13, 122.31 -1.99 M153.61 19.92 C144.91 12.52, 136.92 3.47, 128.7 -1.73 M153.61 19.92 C145.6 13.11, 140.13 7.07, 128.7 -1.73 M159.25 19.53 C154.26 13.89, 149.05 8.91, 135.1 -1.47 M159.25 19.53 C151.79 12.71, 144.64 7.1, 135.1 -1.47 M165.65 19.79 C161.05 13.55, 152.82 10.85, 140.74 -1.86 M165.65 19.79 C158.12 13.18, 150.08 5.9, 140.74 -1.86 M171.29 19.39 C163.34 13.31, 157.77 9.45, 147.14 -1.6 M171.29 19.39 C166.16 13.57, 160.18 8.75, 147.14 -1.6 M177.69 19.66 C171.85 13.96, 166.36 9.14, 152.79 -1.99 M177.69 19.66 C170.35 12.82, 162.21 7.29, 152.79 -1.99 M184.09 19.92 C178.77 16.98, 174.89 12.14, 159.18 -1.73 M184.09 19.92 C179.63 14.62, 174.14 10.91, 159.18 -1.73 M189.73 19.52 C182.2 13.13, 174.56 4.36, 165.58 -1.47 M189.73 19.52 C184.62 15.32, 179.15 9.86, 165.58 -1.47 M196.13 19.78 C186.93 11.86, 177.07 3.18, 171.22 -1.87 M196.13 19.78 C191.28 15.73, 184.88 9.53, 171.22 -1.87 M201.77 19.39 C193.19 11.92, 184.76 4.18, 177.62 -1.6 M201.77 19.39 C195.36 14.99, 189.72 9.44, 177.62 -1.6 M208.17 19.65 C204.13 13.19, 198.25 11.76, 183.26 -2 M208.17 19.65 C201.26 12.99, 194.58 6.51, 183.26 -2 M214.57 19.91 C206.64 13.99, 201.91 10.3, 189.66 -1.74 M214.57 19.91 C207.15 12.35, 199 5.9, 189.66 -1.74 M220.21 19.52 C209.78 12.51, 204.68 5.94, 196.06 -1.48 M220.21 19.52 C213.94 15.19, 207.72 9.08, 196.06 -1.48 M226.61 19.78 C217.77 11.75, 210.81 6.19, 201.7 -1.87 M226.61 19.78 C216.79 11.16, 208.37 3.74, 201.7 -1.87 M232.25 19.38 C227.31 12.32, 218.83 7.63, 208.1 -1.61 M232.25 19.38 C223.26 12.23, 215.13 4.61, 208.1 -1.61 M238.65 19.65 C229.55 12.32, 221.57 4.71, 213.74 -2 M238.65 19.65 C229.13 11.3, 218.59 2.1, 213.74 -2 M245.05 19.91 C238.96 13.32, 228.44 8.14, 220.14 -1.74 M245.05 19.91 C239.38 13.39, 231.69 8.93, 220.14 -1.74 M250.69 19.51 C244.35 14.19, 235.08 7.43, 226.54 -1.48 M250.69 19.51 C241.67 11.49, 234.02 4.58, 226.54 -1.48 M257.09 19.77 C250.43 16.47, 243.96 10.1, 232.18 -1.88 M257.09 19.77 C249.7 12.91, 242.57 6.65, 232.18 -1.88 M262.73 19.38 C254.88 10.75, 245.38 4.71, 238.58 -1.61 M262.73 19.38 C254.94 11.16, 246.31 5.53, 238.58 -1.61 M269.13 19.64 C260.68 10.39, 251.25 2.16, 244.22 -2.01 M269.13 19.64 C261 11.1, 252.2 4.39, 244.22 -2.01 M275.53 19.9 C271.12 17.25, 265.77 10.82, 250.62 -1.75 M275.53 19.9 C269.85 15.24, 263.45 8.81, 250.62 -1.75 M281.17 19.51 C274.55 13.33, 266.53 6.35, 257.02 -1.49 M281.17 19.51 C271.87 12.25, 264.6 3.32, 257.02 -1.49 M287.57 19.77 C279.84 14.17, 271.65 7.35, 262.66 -1.88 M287.57 19.77 C277.69 11.7, 268.36 4.2, 262.66 -1.88 M293.21 19.37 C287.11 14, 282.13 9.18, 269.06 -1.62 M293.21 19.37 C286.94 12.61, 279.7 7.79, 269.06 -1.62 M299.61 19.64 C290.36 12.78, 283.12 4.4, 275.46 -1.36 M299.61 19.64 C292.49 14.57, 285.58 7.23, 275.46 -1.36 M305.25 19.24 C295.87 13.4, 285.11 4.15, 281.1 -1.75 M305.25 19.24 C297.58 11.63, 289.4 6.05, 281.1 -1.75 M309.39 17.53 C305.16 14.36, 297.79 8.7, 287.5 -1.49 M309.39 17.53 C304.79 12.54, 299.3 8.24, 287.5 -1.49 M311.26 13.86 C308.42 8.4, 303.58 6.44, 293.14 -1.89 M311.26 13.86 C306.43 10.66, 302.52 5.63, 293.14 -1.89 M310.86 8.22 C306.99 4.47, 301.57 2.02, 299.54 -1.62 M310.86 8.22 C307.68 5.23, 302.39 0.87, 299.54 -1.62" stroke="#868e96" stroke-width="0.5" fill="none"></path><path d="M5.35 0 M5.35 0 C103.9 1.38, 199.96 -0.1, 303.74 0 M5.35 0 C80.7 1.09, 155.39 1.9, 303.74 0 M303.74 0 C306.79 1.81, 309.87 2.63, 309.09 5.35 M303.74 0 C305.67 0.51, 310.76 4, 309.09 5.35 M309.09 5.35 C308.23 8.59, 308.24 11.13, 309.09 16.04 M309.09 5.35 C309.66 8.22, 309.04 9.86, 309.09 16.04 M309.09 16.04 C310.16 19.56, 308.92 22.65, 303.74 21.39 M309.09 16.04 C307.68 17.44, 307.53 21.45, 303.74 21.39 M303.74 21.39 C193.39 23.96, 83.53 22.1, 5.35 21.39 M303.74 21.39 C184.47 22.89, 66.94 22.53, 5.35 21.39 M5.35 21.39 C3.33 22.53, -1.2 20.29, 0 16.04 M5.35 21.39 C0.7 23.19, 0.37 18.72, 0 16.04 M0 16.04 C0.99 12.8, 0.37 9.83, 0 5.35 M0 16.04 C-0.38 12.42, 0.02 8.84, 0 5.35 M0 5.35 C0.45 0.26, 2.82 -1.95, 5.35 0 M0 5.35 C-0.32 1.95, -0.29 2.06, 5.35 0" stroke="#000000" stroke-width="1" fill="none"></path></g><g stroke-linecap="round" transform="translate(874.3427486189419 30.145763003304836) rotate(0 90.12504255584463 10.213595135912499)"><path d="M0.29 2.9 C0.29 2.9, 0.29 2.9, 0.29 2.9 M0.29 2.9 C0.29 2.9, 0.29 2.9, 0.29 2.9 M0.03 9.3 C1.03 8.44, 3.46 6.37, 6.59 1.75 M0.03 9.3 C2.57 6.47, 4.3 4.49, 6.59 1.75 M-0.23 15.7 C2.17 13.26, 5.13 7.26, 12.23 1.36 M-0.23 15.7 C2.59 12.36, 7.45 7.44, 12.23 1.36 M1.48 19.83 C7.72 12.69, 11.74 10.14, 17.22 1.72 M1.48 19.83 C5.82 14.9, 10.02 11.42, 17.22 1.72 M5.81 20.95 C13.87 12.73, 18.99 4, 22.86 1.33 M5.81 20.95 C9.01 17.63, 12.83 12.01, 22.86 1.33 M10.79 21.31 C19.39 15.05, 22.71 3.99, 27.85 1.69 M10.79 21.31 C14.46 16.72, 18.74 12.11, 27.85 1.69 M16.44 20.91 C20.28 14.07, 27.49 11.38, 33.49 1.29 M16.44 20.91 C20.09 17.02, 23.15 12.41, 33.49 1.29 M21.42 21.27 C28.13 15.81, 29.81 11.05, 38.48 1.65 M21.42 21.27 C26.42 14.81, 32.75 9.1, 38.48 1.65 M27.07 20.88 C32.45 14.15, 39.06 6.8, 44.12 1.26 M27.07 20.88 C31.67 14.75, 36.89 10.37, 44.12 1.26 M32.05 21.24 C40.1 15.72, 45.53 8.04, 49.11 1.62 M32.05 21.24 C39.15 14.16, 45.96 5.43, 49.11 1.62 M37.7 20.84 C43.97 15.2, 46.73 8.73, 54.75 1.22 M37.7 20.84 C42.87 13.74, 49.45 7.16, 54.75 1.22 M42.68 21.2 C48.73 15.47, 49.76 13.37, 59.74 1.58 M42.68 21.2 C46.2 16.45, 50.23 13.57, 59.74 1.58 M48.33 20.81 C50.38 17.03, 56.5 13.92, 65.38 1.19 M48.33 20.81 C52.14 16.98, 56.3 11.58, 65.38 1.19 M53.31 21.17 C59.58 15.21, 64.67 8.81, 70.37 1.55 M53.31 21.17 C60.2 13.07, 65.41 6.42, 70.37 1.55 M58.96 20.78 C65.7 14.7, 73.03 5.05, 76.01 1.15 M58.96 20.78 C63.35 15.27, 67.55 11.75, 76.01 1.15 M63.94 21.14 C69.3 15.74, 72.1 14.09, 81 1.51 M63.94 21.14 C71.47 13.79, 76.18 7.25, 81 1.51 M69.59 20.74 C73.98 12.47, 81.03 6.31, 86.64 1.12 M69.59 20.74 C74 15.67, 76.9 11.33, 86.64 1.12 M74.57 21.1 C79.31 16.92, 81.34 11.82, 91.63 1.48 M74.57 21.1 C80.8 14.71, 85.18 8.27, 91.63 1.48 M80.22 20.71 C85.02 16.04, 86.38 10.3, 96.62 1.84 M80.22 20.71 C85.04 15.17, 89.12 9.6, 96.62 1.84 M85.2 21.07 C87.75 15.4, 93.82 10.85, 102.26 1.44 M85.2 21.07 C92.33 13.78, 98.01 8.03, 102.26 1.44 M90.85 20.67 C96.21 18.52, 98.03 13.16, 107.25 1.8 M90.85 20.67 C94.26 15.79, 99.7 11.57, 107.25 1.8 M95.83 21.03 C103.88 15.06, 109.96 6.96, 112.89 1.41 M95.83 21.03 C101.23 15.18, 107.74 7.54, 112.89 1.41 M101.48 20.64 C108.18 13.68, 113.55 6.9, 117.88 1.77 M101.48 20.64 C105.64 14.64, 111.56 9.49, 117.88 1.77 M106.46 21 C113.68 12.95, 118.31 10.52, 123.52 1.38 M106.46 21 C111.42 15.41, 117.18 8.63, 123.52 1.38 M111.45 21.36 C114.88 14.58, 121.38 10.37, 128.51 1.74 M111.45 21.36 C114.85 16.69, 119.14 12.29, 128.51 1.74 M117.09 20.96 C120.49 16.39, 124.06 13.92, 134.15 1.34 M117.09 20.96 C120.05 16.25, 124.25 12.79, 134.15 1.34 M122.08 21.32 C127.77 14.88, 133.43 11.11, 139.14 1.7 M122.08 21.32 C127.32 15.81, 129.76 12.01, 139.14 1.7 M127.72 20.93 C132.38 15.04, 135.36 9.52, 144.78 1.31 M127.72 20.93 C131.82 14.78, 137.44 9.3, 144.78 1.31 M132.71 21.29 C138.79 14.94, 143.69 6.85, 149.77 1.67 M132.71 21.29 C138.36 14.51, 146.01 6.05, 149.77 1.67 M138.35 20.89 C141.11 16.17, 145.69 10.72, 155.41 1.27 M138.35 20.89 C143.28 13.98, 149.5 7.62, 155.41 1.27 M143.34 21.25 C147.34 17.29, 151.35 12.27, 160.4 1.63 M143.34 21.25 C148.73 13.94, 155.32 7.96, 160.4 1.63 M148.98 20.86 C152.82 12.88, 159.99 6.51, 166.04 1.24 M148.98 20.86 C151.9 15.38, 157.72 12.16, 166.04 1.24 M153.97 21.22 C159.38 13.94, 163.43 8.42, 171.03 1.6 M153.97 21.22 C158.9 15.81, 164.36 9.36, 171.03 1.6 M159.62 20.83 C166.91 12.56, 170.07 7.61, 176.67 1.2 M159.62 20.83 C166.62 13.03, 172.95 6.48, 176.67 1.2 M164.6 21.19 C169.25 16.48, 174.62 10.7, 180.35 3.07 M164.6 21.19 C169.95 15.61, 174.49 9.57, 180.35 3.07 M170.25 20.79 C174.44 15.98, 178.47 10.87, 180.74 8.72 M170.25 20.79 C173.47 16.3, 178.44 12.16, 180.74 8.72 M175.23 21.15 C176.75 19.19, 178.18 18.3, 180.48 15.11 M175.23 21.15 C177.14 18.85, 178.64 17.23, 180.48 15.11 M1.63 19.46 C1.63 19.46, 1.63 19.46, 1.63 19.46 M1.63 19.46 C1.63 19.46, 1.63 19.46, 1.63 19.46 M6.52 18.41 C5.55 17.89, 4.24 16.47, 1.24 13.82 M6.52 18.41 C5.11 17.44, 3.57 16.19, 1.24 13.82 M12.92 18.67 C10.23 15.06, 6.12 13.26, 1.6 8.83 M12.92 18.67 C9.85 16.13, 5.77 12.78, 1.6 8.83 M18.56 18.28 C14.2 11.59, 7.84 10.47, 0.45 2.53 M18.56 18.28 C14.26 13.78, 9.73 10.43, 0.45 2.53 M24.96 18.54 C21.77 13.49, 16.05 11.95, 3.83 0.17 M24.96 18.54 C19.49 13.51, 15.92 11.03, 3.83 0.17 M31.36 18.8 C21.22 11.74, 13.1 3.72, 7.21 -2.19 M31.36 18.8 C24.68 14.06, 17.99 7.92, 7.21 -2.19 M37 18.41 C29.58 11.6, 21.11 3.43, 12.85 -2.59 M37 18.41 C28.97 12.37, 20.53 5.35, 12.85 -2.59 M43.4 18.67 C36.33 11.48, 25.11 4.25, 19.25 -2.33 M43.4 18.67 C34.67 9.48, 24.93 1.74, 19.25 -2.33 M49.04 18.27 C40.02 11.93, 34.12 4.31, 25.65 -2.07 M49.04 18.27 C40.2 11.99, 33.02 3.38, 25.65 -2.07 M55.44 18.53 C49.12 12.56, 41.59 5.11, 31.29 -2.46 M55.44 18.53 C49.55 13.96, 43.9 8.64, 31.29 -2.46 M61.84 18.79 C55.86 11.14, 47.39 6.53, 37.69 -2.2 M61.84 18.79 C53.1 11.59, 43.12 3.13, 37.69 -2.2 M67.48 18.4 C61.31 14.97, 57.22 7.89, 43.33 -2.59 M67.48 18.4 C60.09 13.15, 53.67 6.86, 43.33 -2.59 M73.88 18.66 C67.07 12, 59.55 9.51, 49.73 -2.33 M73.88 18.66 C68.76 13.55, 62.59 8.46, 49.73 -2.33 M79.52 18.27 C69.28 9.14, 61.29 3.2, 56.13 -2.07 M79.52 18.27 C72.17 10.9, 63.88 5.26, 56.13 -2.07 M85.92 18.53 C78.81 11.52, 67.49 3.76, 61.77 -2.47 M85.92 18.53 C76.58 10.29, 67.39 2.13, 61.77 -2.47 M92.32 18.79 C86.17 11.58, 76.14 8.08, 68.17 -2.2 M92.32 18.79 C84.91 11.62, 76.17 5.6, 68.17 -2.2 M97.96 18.4 C93.88 13.51, 89.42 10.83, 73.81 -2.6 M97.96 18.4 C91.55 12.53, 82.44 4.75, 73.81 -2.6 M104.36 18.66 C95.96 11.81, 85.81 3.79, 80.21 -2.34 M104.36 18.66 C98.67 12.72, 91.09 7.33, 80.21 -2.34 M110 18.26 C104.64 15.58, 101.24 10.92, 86.61 -2.08 M110 18.26 C101.53 11.96, 93.83 3.71, 86.61 -2.08 M116.4 18.52 C108.87 11.25, 100.9 3.78, 92.25 -2.47 M116.4 18.52 C110.14 14.03, 104.3 8.67, 92.25 -2.47 M122.8 18.79 C114.92 13.35, 109.85 5.93, 98.65 -2.21 M122.8 18.79 C115.75 11.92, 107.5 6.09, 98.65 -2.21 M128.44 18.39 C120.23 11.91, 116.21 8.53, 104.29 -2.6 M128.44 18.39 C121.14 11.32, 111.85 3.58, 104.29 -2.6 M134.84 18.65 C126.73 14.87, 120.65 8.53, 110.69 -2.34 M134.84 18.65 C127.84 13.51, 121.83 6.21, 110.69 -2.34 M140.48 18.26 C136.11 13.74, 128.43 9.27, 117.08 -2.08 M140.48 18.26 C135.59 13.66, 129.48 9.09, 117.08 -2.08 M146.88 18.52 C140.6 12.65, 133.77 6.71, 122.73 -2.48 M146.88 18.52 C136.55 11.1, 128.31 3.15, 122.73 -2.48 M153.28 18.78 C149.44 12.07, 140.9 10.58, 129.13 -2.21 M153.28 18.78 C144.15 11.79, 134.65 2.08, 129.13 -2.21 M158.92 18.39 C153.58 11.41, 146.16 6.57, 134.77 -2.61 M158.92 18.39 C149.41 10.63, 140.52 2.51, 134.77 -2.61 M165.32 18.65 C158.55 13.5, 150.3 5.9, 141.17 -2.35 M165.32 18.65 C156.76 10.69, 149.09 4.81, 141.17 -2.35 M170.96 18.25 C167.37 14.84, 161.31 8.9, 147.56 -2.09 M170.96 18.25 C164.42 12.77, 156.81 6.94, 147.56 -2.09 M177.36 18.51 C171.35 14.05, 167.58 8.23, 153.21 -2.48 M177.36 18.51 C171.14 13.24, 163.28 5.59, 153.21 -2.48 M181.49 16.81 C173.57 11.03, 171 8.18, 159.6 -2.22 M181.49 16.81 C172.84 10.29, 165.44 1.43, 159.6 -2.22 M182.61 12.48 C178.58 8.76, 173.13 3.62, 165.25 -2.61 M182.61 12.48 C177.63 8.04, 173.56 5.67, 165.25 -2.61 M182.21 6.83 C178.99 3.48, 173.33 -1.78, 171.65 -2.35 M182.21 6.83 C179.01 3.85, 176.93 2.54, 171.65 -2.35" stroke="#868e96" stroke-width="0.5" fill="none"></path><path d="M5.11 0 M5.11 0 C54.46 -0.89, 101.04 -1.37, 175.14 0 M5.11 0 C40.89 1.55, 77.94 0.33, 175.14 0 M175.14 0 C176.98 -0.46, 178.66 1.12, 180.25 5.11 M175.14 0 C176.53 0.93, 179.4 0.3, 180.25 5.11 M180.25 5.11 C181.15 7.64, 180.11 9.1, 180.25 15.32 M180.25 5.11 C180.62 8.91, 179.88 13.35, 180.25 15.32 M180.25 15.32 C179.52 19.71, 179.84 18.88, 175.14 20.43 M180.25 15.32 C179.47 18.3, 180.29 20.38, 175.14 20.43 M175.14 20.43 C115.42 21.23, 56.63 20.31, 5.11 20.43 M175.14 20.43 C112.41 17.89, 50.37 17.8, 5.11 20.43 M5.11 20.43 C3.68 18.66, -0.78 18.58, 0 15.32 M5.11 20.43 C2.06 18.23, 2.22 16.51, 0 15.32 M0 15.32 C-0.86 12.2, 0.48 9.06, 0 5.11 M0 15.32 C-0.39 12.34, 0.13 9.42, 0 5.11 M0 5.11 C1.21 2.77, 0.03 1.4, 5.11 0 M0 5.11 C-0.71 -0.14, 3.19 -2.08, 5.11 0" stroke="#000000" stroke-width="1" fill="none"></path></g><g stroke-linecap="round" transform="translate(880.632850534231 205.1224737433519) rotate(0 90.12504255584463 10.213595135912499)"><path d="M0.29 2.9 C0.29 2.9, 0.29 2.9, 0.29 2.9 M0.29 2.9 C0.29 2.9, 0.29 2.9, 0.29 2.9 M0.03 9.3 C2.12 8.22, 4.01 5.01, 6.59 1.75 M0.03 9.3 C2.26 6.9, 4.23 4.9, 6.59 1.75 M-0.23 15.7 C3.32 13.29, 7.49 8.57, 12.23 1.36 M-0.23 15.7 C2.99 12.73, 6.92 8.04, 12.23 1.36 M1.48 19.83 C5 16.67, 9.87 10.53, 17.22 1.72 M1.48 19.83 C7.13 14.63, 10.59 8.34, 17.22 1.72 M5.81 20.95 C9.32 13.45, 17.9 8.14, 22.86 1.33 M5.81 20.95 C11.68 13.68, 18.77 8, 22.86 1.33 M10.79 21.31 C17.05 15.52, 20.45 8.61, 27.85 1.69 M10.79 21.31 C17.73 14.19, 24.1 7.53, 27.85 1.69 M16.44 20.91 C22.94 12.89, 29.12 6.88, 33.49 1.29 M16.44 20.91 C23.29 14.49, 29.51 6.41, 33.49 1.29 M21.42 21.27 C27.05 16.11, 31.37 7.64, 38.48 1.65 M21.42 21.27 C27.04 14.34, 34.68 6.12, 38.48 1.65 M27.07 20.88 C33.6 13.64, 38.44 7.91, 44.12 1.26 M27.07 20.88 C33.33 15.03, 38.7 6.39, 44.12 1.26 M32.05 21.24 C38.17 15.01, 43.22 7.18, 49.11 1.62 M32.05 21.24 C36.04 17.82, 39.58 12.35, 49.11 1.62 M37.7 20.84 C42.27 15.94, 44.84 9.99, 54.75 1.22 M37.7 20.84 C42.18 16.06, 45.8 11.46, 54.75 1.22 M42.68 21.2 C47.48 13.16, 57.86 4.28, 59.74 1.58 M42.68 21.2 C45.8 18.12, 49.69 12.89, 59.74 1.58 M48.33 20.81 C50.29 17.7, 53.9 11.4, 65.38 1.19 M48.33 20.81 C53.48 14.59, 58.32 9.62, 65.38 1.19 M53.31 21.17 C57.71 17.52, 60.17 12.9, 70.37 1.55 M53.31 21.17 C59.24 14.23, 65.2 6.93, 70.37 1.55 M58.96 20.78 C62.9 15.32, 67.04 8.88, 76.01 1.15 M58.96 20.78 C65.18 14.04, 69.57 9.18, 76.01 1.15 M63.94 21.14 C69.35 13.85, 74.11 6.98, 81 1.51 M63.94 21.14 C69.27 15.91, 72.59 9.33, 81 1.51 M69.59 20.74 C75.14 15.14, 78.27 6.87, 86.64 1.12 M69.59 20.74 C76.5 14.05, 82.93 4.89, 86.64 1.12 M74.57 21.1 C78.5 16.99, 82.98 12.07, 91.63 1.48 M74.57 21.1 C81.7 14.77, 87.73 6.25, 91.63 1.48 M80.22 20.71 C85.78 16.8, 89.16 11.26, 96.62 1.84 M80.22 20.71 C86.1 14.01, 91.87 7.5, 96.62 1.84 M85.2 21.07 C91.26 15.99, 96.78 9.12, 102.26 1.44 M85.2 21.07 C91.69 13.52, 96.77 7.72, 102.26 1.44 M90.85 20.67 C94.4 14.98, 99.49 8.51, 107.25 1.8 M90.85 20.67 C97.41 13.41, 104.13 5.3, 107.25 1.8 M95.83 21.03 C104.11 14.13, 110.5 4.07, 112.89 1.41 M95.83 21.03 C102.13 14.2, 107.24 8.4, 112.89 1.41 M101.48 20.64 C105.22 17.59, 111.12 10.38, 117.88 1.77 M101.48 20.64 C106.17 14.25, 112.06 9.76, 117.88 1.77 M106.46 21 C113.12 12.58, 117.74 9.64, 123.52 1.38 M106.46 21 C111.24 15.73, 115.74 10.81, 123.52 1.38 M111.45 21.36 C117.24 15.11, 125.27 9.18, 128.51 1.74 M111.45 21.36 C116.93 14.92, 123.83 6.67, 128.51 1.74 M117.09 20.96 C122.78 14.39, 128.75 7.45, 134.15 1.34 M117.09 20.96 C122.57 15.09, 129.85 6.77, 134.15 1.34 M122.08 21.32 C129.57 15.1, 132.54 6.44, 139.14 1.7 M122.08 21.32 C128.71 14.18, 134.54 6.72, 139.14 1.7 M127.72 20.93 C134.55 12.76, 138.42 10.11, 144.78 1.31 M127.72 20.93 C131.82 15.62, 136.23 11.31, 144.78 1.31 M132.71 21.29 C139.04 15.64, 142.83 11.68, 149.77 1.67 M132.71 21.29 C136.73 15.85, 142.05 11.06, 149.77 1.67 M138.35 20.89 C142.32 14.61, 147.4 10.81, 155.41 1.27 M138.35 20.89 C144.8 12.87, 150.12 7.07, 155.41 1.27 M143.34 21.25 C150.46 13.43, 153.75 9.2, 160.4 1.63 M143.34 21.25 C148.04 15.31, 154.33 8.92, 160.4 1.63 M148.98 20.86 C155.53 13.93, 157.86 10.87, 166.04 1.24 M148.98 20.86 C152.46 15.38, 157.42 10.44, 166.04 1.24 M153.97 21.22 C155.82 18.32, 161.5 14.17, 171.03 1.6 M153.97 21.22 C157.89 17.14, 161.34 12.58, 171.03 1.6 M159.62 20.83 C165.26 16.89, 168.13 10.53, 176.67 1.2 M159.62 20.83 C163.49 16.51, 168.25 10.03, 176.67 1.2 M164.6 21.19 C168.15 19.24, 173.22 13.29, 180.35 3.07 M164.6 21.19 C170.96 14.7, 175.91 6.03, 180.35 3.07 M170.25 20.79 C173.1 18.62, 175.91 14.12, 180.74 8.72 M170.25 20.79 C173.05 17.64, 177.27 13.72, 180.74 8.72 M175.23 21.15 C177 19.87, 178.19 17.43, 180.48 15.11 M175.23 21.15 C177.11 19.29, 178.74 17.2, 180.48 15.11 M1.63 19.46 C1.63 19.46, 1.63 19.46, 1.63 19.46 M1.63 19.46 C1.63 19.46, 1.63 19.46, 1.63 19.46 M6.52 18.41 C4.71 16.19, 3.27 15.51, 1.24 13.82 M6.52 18.41 C5.55 17.26, 4.59 16.85, 1.24 13.82 M12.92 18.67 C8.09 16.57, 5.97 11.07, 1.6 8.83 M12.92 18.67 C11.37 15.98, 8.31 15.25, 1.6 8.83 M18.56 18.28 C13.01 10.55, 3.75 7.9, 0.45 2.53 M18.56 18.28 C14.87 14.19, 10.11 10.5, 0.45 2.53 M24.96 18.54 C16.66 12.91, 8.78 5.98, 3.83 0.17 M24.96 18.54 C17.2 12.02, 9.47 5.88, 3.83 0.17 M31.36 18.8 C26.03 12.64, 19.27 6.51, 7.21 -2.19 M31.36 18.8 C24.75 13.31, 16.44 6.07, 7.21 -2.19 M37 18.41 C27.16 8.6, 19.97 2.96, 12.85 -2.59 M37 18.41 C30.66 12.06, 23.6 8.31, 12.85 -2.59 M43.4 18.67 C37.41 14.13, 32.74 11.51, 19.25 -2.33 M43.4 18.67 C35.43 11.08, 27.23 3.95, 19.25 -2.33 M49.04 18.27 C44.85 14.17, 39.74 8.94, 25.65 -2.07 M49.04 18.27 C41.04 11.58, 33.28 4.38, 25.65 -2.07 M55.44 18.53 C48.69 10.06, 37.59 6.55, 31.29 -2.46 M55.44 18.53 C47.47 12.92, 41.67 4.84, 31.29 -2.46 M61.84 18.79 C56.29 14.63, 49.25 9.6, 37.69 -2.2 M61.84 18.79 C54.51 12.9, 48.54 5.91, 37.69 -2.2 M67.48 18.4 C57.64 10.23, 47.46 2.42, 43.33 -2.59 M67.48 18.4 C62.31 13.83, 57.71 10.23, 43.33 -2.59 M73.88 18.66 C67.7 11.4, 58.47 4.42, 49.73 -2.33 M73.88 18.66 C67.08 12.96, 62.18 8.23, 49.73 -2.33 M79.52 18.27 C72.32 11.19, 63.42 4.46, 56.13 -2.07 M79.52 18.27 C74.65 14.72, 69.56 9.72, 56.13 -2.07 M85.92 18.53 C77.34 10.64, 70.73 5.66, 61.77 -2.47 M85.92 18.53 C80.12 12.27, 71.78 6.56, 61.77 -2.47 M92.32 18.79 C81.49 11.52, 73.44 4.94, 68.17 -2.2 M92.32 18.79 C83.88 11.2, 74.69 3.17, 68.17 -2.2 M97.96 18.4 C87.64 11.52, 79.06 1.74, 73.81 -2.6 M97.96 18.4 C92.91 13.36, 87.92 9.59, 73.81 -2.6 M104.36 18.66 C98.21 13.92, 90.71 5.85, 80.21 -2.34 M104.36 18.66 C96.51 13.17, 89.93 6.15, 80.21 -2.34 M110 18.26 C102.21 11.49, 96.73 8.46, 86.61 -2.08 M110 18.26 C103.42 11.61, 96.83 5.85, 86.61 -2.08 M116.4 18.52 C106.81 9.51, 100.23 6.02, 92.25 -2.47 M116.4 18.52 C109.5 11.24, 101.81 5.75, 92.25 -2.47 M122.8 18.79 C115.37 14.05, 110.56 5.58, 98.65 -2.21 M122.8 18.79 C116.39 13.82, 110.33 8.01, 98.65 -2.21 M128.44 18.39 C122.18 14.52, 118.84 6.3, 104.29 -2.6 M128.44 18.39 C122.09 14.38, 116.63 8.17, 104.29 -2.6 M134.84 18.65 C129.67 10.35, 121.35 6.83, 110.69 -2.34 M134.84 18.65 C127.98 12.72, 119.72 6.56, 110.69 -2.34 M140.48 18.26 C134.35 11.14, 127.53 6.84, 117.08 -2.08 M140.48 18.26 C134.47 14.43, 129.31 10.34, 117.08 -2.08 M146.88 18.52 C141.96 13.52, 135.87 10.03, 122.73 -2.48 M146.88 18.52 C138.2 11.07, 128.14 2.55, 122.73 -2.48 M153.28 18.78 C144.91 11.71, 134.07 5.6, 129.13 -2.21 M153.28 18.78 C144.66 11.8, 137.6 5.42, 129.13 -2.21 M158.92 18.39 C151.84 12.17, 145.91 9.38, 134.77 -2.61 M158.92 18.39 C150.68 12.26, 142.95 5.02, 134.77 -2.61 M165.32 18.65 C157.22 9.2, 148.66 4.09, 141.17 -2.35 M165.32 18.65 C155.43 10.63, 147.05 1.48, 141.17 -2.35 M170.96 18.25 C167.83 13.27, 162.45 8.77, 147.56 -2.09 M170.96 18.25 C166.36 12.79, 160.21 9.14, 147.56 -2.09 M177.36 18.51 C169.61 12.42, 161.24 2.75, 153.21 -2.48 M177.36 18.51 C171.21 12.2, 164.98 7.16, 153.21 -2.48 M181.49 16.81 C172.51 8.88, 164.01 1.87, 159.6 -2.22 M181.49 16.81 C173.94 11.3, 167.37 5.23, 159.6 -2.22 M182.61 12.48 C177.89 8.2, 173.68 4.04, 165.25 -2.61 M182.61 12.48 C177.65 8.19, 173.47 4.96, 165.25 -2.61 M182.21 6.83 C178.84 2.46, 173.9 1.99, 171.65 -2.35 M182.21 6.83 C179.19 4.89, 176.78 2.89, 171.65 -2.35" stroke="#868e96" stroke-width="0.5" fill="none"></path><path d="M5.11 0 M5.11 0 C48.58 0.44, 94.49 1.35, 175.14 0 M5.11 0 C51.1 -2.04, 98.03 -0.99, 175.14 0 M175.14 0 C177.28 1.27, 179.65 2.42, 180.25 5.11 M175.14 0 C178.16 -1.82, 178.57 2.62, 180.25 5.11 M180.25 5.11 C180.52 7.04, 181.17 10.96, 180.25 15.32 M180.25 5.11 C180.35 7.83, 179.91 10.62, 180.25 15.32 M180.25 15.32 C181.14 17.17, 176.97 21.32, 175.14 20.43 M180.25 15.32 C182.15 18.47, 180.01 19.41, 175.14 20.43 M175.14 20.43 C111.45 21.84, 45.57 22.21, 5.11 20.43 M175.14 20.43 C134.71 19.78, 95.36 20.01, 5.11 20.43 M5.11 20.43 C1.5 22.29, -0.18 16.89, 0 15.32 M5.11 20.43 C2.59 19.31, 0.4 18.44, 0 15.32 M0 15.32 C1.02 10.27, 0.84 6.24, 0 5.11 M0 15.32 C0.34 11.19, 0.33 6.92, 0 5.11 M0 5.11 C-1.15 2.1, 1.47 1.64, 5.11 0 M0 5.11 C0.52 -0.52, 0.42 -0.03, 5.11 0" stroke="#000000" stroke-width="1" fill="none"></path></g><g stroke-linecap="round" transform="translate(617.4891832675141 64.44191750168451) rotate(0 63.250273887410685 11.193396510697085)"><path d="M1.49 1.3 C1.49 1.3, 1.49 1.3, 1.49 1.3 M1.49 1.3 C1.49 1.3, 1.49 1.3, 1.49 1.3 M1.88 6.94 C3.41 5.23, 4.5 3.85, 7.13 0.9 M1.88 6.94 C3.37 4.85, 5.13 3.39, 7.13 0.9 M1.62 13.34 C3.11 10.06, 6.07 9.05, 12.12 1.26 M1.62 13.34 C4.57 10.72, 6.43 7.21, 12.12 1.26 M1.36 19.73 C8.14 15.54, 12.51 8.38, 17.76 0.87 M1.36 19.73 C5.7 15, 9.27 9.64, 17.76 0.87 M3.72 23.11 C8.33 17.5, 11.54 11.95, 22.75 1.23 M3.72 23.11 C9.25 16.26, 15.21 10.81, 22.75 1.23 M9.37 22.72 C14.98 15.3, 18.85 10.57, 27.74 1.59 M9.37 22.72 C15.42 15.35, 21.09 9.89, 27.74 1.59 M14.35 23.08 C18.62 14.33, 24.52 9.47, 33.38 1.19 M14.35 23.08 C19.6 16.7, 24.56 10.76, 33.38 1.19 M20 22.68 C24.95 17.92, 26.69 13.98, 38.37 1.55 M20 22.68 C24.65 16.41, 29.94 10.09, 38.37 1.55 M24.98 23.04 C32.4 14.51, 36.92 7.46, 44.01 1.16 M24.98 23.04 C31.23 15.58, 37.62 9.81, 44.01 1.16 M30.63 22.65 C36.72 19.08, 38.17 10.97, 49 1.52 M30.63 22.65 C36.6 16.66, 41.22 9.63, 49 1.52 M35.61 23.01 C39.41 20.06, 42.92 12.33, 54.64 1.12 M35.61 23.01 C42.11 15.74, 49.09 7.88, 54.64 1.12 M41.26 22.61 C44.78 15.11, 51.26 11.54, 59.63 1.48 M41.26 22.61 C44.35 18.37, 48.22 12.7, 59.63 1.48 M46.24 22.97 C53.35 16.41, 59.39 6.04, 65.27 1.09 M46.24 22.97 C51.19 18.16, 53.69 14.24, 65.27 1.09 M51.89 22.58 C55.21 16.51, 61.38 13.66, 70.26 1.45 M51.89 22.58 C56.36 17.55, 58.89 12.93, 70.26 1.45 M56.87 22.94 C61.8 14.9, 71 9.01, 75.9 1.05 M56.87 22.94 C64.57 14.31, 71.58 6.61, 75.9 1.05 M61.86 23.3 C67.21 20.11, 69.21 13.26, 80.89 1.41 M61.86 23.3 C68.38 16.04, 74.79 7.7, 80.89 1.41 M67.5 22.91 C75.44 16.74, 79.89 6.96, 86.53 1.02 M67.5 22.91 C70.77 17.03, 75.29 13.18, 86.53 1.02 M72.49 23.27 C76.55 18.3, 81.71 12.32, 91.52 1.38 M72.49 23.27 C77.59 17.29, 82.83 11.49, 91.52 1.38 M78.13 22.87 C85.56 12.95, 93.87 7.16, 96.5 1.74 M78.13 22.87 C84.61 15.09, 91.12 7.15, 96.5 1.74 M83.12 23.23 C90.74 16.42, 98.1 9.01, 102.15 1.34 M83.12 23.23 C88.2 16.4, 94.56 10.76, 102.15 1.34 M88.76 22.84 C93.29 16.59, 98.76 11.24, 107.13 1.7 M88.76 22.84 C95.2 15.73, 100.39 10.47, 107.13 1.7 M93.75 23.2 C98.27 16.15, 104.75 8.44, 112.78 1.31 M93.75 23.2 C97.57 18.91, 102.93 13.47, 112.78 1.31 M99.4 22.8 C106.77 14.66, 110.97 9.88, 117.76 1.67 M99.4 22.8 C103.34 18.38, 107.64 12.07, 117.76 1.67 M104.38 23.16 C108.47 18.2, 116.87 9.94, 124.06 0.52 M104.38 23.16 C111.11 15.5, 116.72 10.09, 124.06 0.52 M110.03 22.77 C114.8 17.43, 119.35 14.89, 126.43 3.9 M110.03 22.77 C117.09 15.08, 122.75 7.15, 126.43 3.9 M115.01 23.13 C116.72 21.88, 119.62 16.34, 126.82 9.54 M115.01 23.13 C120.51 18.44, 123.64 11.57, 126.82 9.54 M120.66 22.73 C121.77 21.22, 123.4 19.62, 126.56 15.94 M120.66 22.73 C122.12 20.51, 124.32 19.23, 126.56 15.94 M3.27 22.15 C3.27 22.15, 3.27 22.15, 3.27 22.15 M3.27 22.15 C3.27 22.15, 3.27 22.15, 3.27 22.15 M8.92 21.75 C6.9 19.71, 6 18.31, 2.88 16.5 M8.92 21.75 C7.09 20.06, 5.52 18.18, 2.88 16.5 M15.31 22.01 C11.24 17.63, 8.17 16.51, 2.48 10.86 M15.31 22.01 C11.29 18.49, 6.16 14.18, 2.48 10.86 M21.71 22.27 C14.9 16.64, 7.65 7.43, 1.34 4.56 M21.71 22.27 C16.22 16.98, 9.03 11.41, 1.34 4.56 M27.36 21.88 C17.05 13.75, 9.53 6.77, 2.45 0.23 M27.36 21.88 C22.57 16.49, 15.21 12.65, 2.45 0.23 M33.75 22.14 C28.53 15.8, 24.26 13.18, 6.58 -1.48 M33.75 22.14 C27.52 17.72, 23.33 13.35, 6.58 -1.48 M40.15 22.4 C33.24 18.19, 27 11.09, 12.98 -1.22 M40.15 22.4 C32.7 15.56, 24.76 8.31, 12.98 -1.22 M45.79 22.01 C35.89 11.34, 22.5 4.13, 18.62 -1.61 M45.79 22.01 C35.07 13.79, 24.59 3.49, 18.62 -1.61 M52.19 22.27 C46.21 15.62, 39.75 12.38, 25.02 -1.35 M52.19 22.27 C47.22 16.98, 41.04 13.23, 25.02 -1.35 M57.84 21.88 C49.74 12.83, 36.03 5.96, 31.42 -1.09 M57.84 21.88 C47.25 12.61, 37.94 4.7, 31.42 -1.09 M64.23 22.14 C59.81 15.82, 52.29 10.54, 37.06 -1.48 M64.23 22.14 C58.33 16.74, 51.14 11.01, 37.06 -1.48 M70.63 22.4 C63.37 15.03, 52.39 7.2, 43.46 -1.22 M70.63 22.4 C65.04 17.13, 57.71 11.05, 43.46 -1.22 M76.27 22 C70.08 15.18, 62.42 7.99, 49.86 -0.96 M76.27 22 C68.54 15.93, 62.64 10.3, 49.86 -0.96 M82.67 22.26 C75.06 12.76, 64.7 6.8, 55.5 -1.35 M82.67 22.26 C78.09 18.11, 71.73 12.52, 55.5 -1.35 M89.07 22.53 C80.81 16.46, 76.54 11.58, 61.9 -1.09 M89.07 22.53 C79.84 14.51, 69.74 5.38, 61.9 -1.09 M94.71 22.13 C85.56 15.68, 78.63 5.75, 68.3 -0.83 M94.71 22.13 C85.67 14.13, 76.04 5.93, 68.3 -0.83 M101.11 22.39 C92.12 14.82, 86.67 8.6, 73.94 -1.22 M101.11 22.39 C93.49 14.07, 84.49 8.48, 73.94 -1.22 M107.51 22.65 C98.98 16.06, 92 7.21, 80.34 -0.96 M107.51 22.65 C100.27 16.14, 94.6 10.59, 80.34 -0.96 M113.15 22.26 C104.91 17.05, 98.46 12.08, 85.98 -1.36 M113.15 22.26 C106.92 17.25, 100.79 12.96, 85.98 -1.36 M119.55 22.52 C111.27 16.82, 105.5 13.52, 92.38 -1.1 M119.55 22.52 C112.3 15.31, 105.13 9.56, 92.38 -1.1 M122.93 20.16 C118.86 13.53, 109.38 10.43, 98.78 -0.84 M122.93 20.16 C116.41 14.49, 109.02 8.68, 98.78 -0.84 M127.06 18.45 C119.04 11.98, 114.25 6.55, 104.42 -1.23 M127.06 18.45 C118.93 11.61, 110.22 4.03, 104.42 -1.23 M126.67 12.81 C119.4 9.01, 116.11 1.58, 110.82 -0.97 M126.67 12.81 C122.49 9.56, 119.21 5.92, 110.82 -0.97 M127.03 7.82 C122.99 4.33, 120.72 1.56, 117.22 -0.71 M127.03 7.82 C124.96 5.92, 122.92 3.82, 117.22 -0.71" stroke="#40c057" stroke-width="0.5" fill="none"></path><path d="M5.6 0 M5.6 0 C45.18 -0.45, 87.24 1.56, 120.9 0 M5.6 0 C41.93 -1.14, 79.86 -1.17, 120.9 0 M120.9 0 C123.23 0.13, 126.83 -0.12, 126.5 5.6 M120.9 0 C122.46 2.09, 127.29 2.14, 126.5 5.6 M126.5 5.6 C126.06 8.68, 126.4 12.86, 126.5 16.79 M126.5 5.6 C126.68 9.15, 126.21 12.31, 126.5 16.79 M126.5 16.79 C128.2 22.21, 126.09 21.18, 120.9 22.39 M126.5 16.79 C124.88 21.4, 126.43 24.54, 120.9 22.39 M120.9 22.39 C84.37 23.08, 45.61 22.08, 5.6 22.39 M120.9 22.39 C84.39 23.44, 47.81 23.44, 5.6 22.39 M5.6 22.39 C2.81 23.62, 0.07 21.19, 0 16.79 M5.6 22.39 C0.81 24.51, 1.63 18.58, 0 16.79 M0 16.79 C-0.36 13.9, -0.83 9.92, 0 5.6 M0 16.79 C-0.06 13.77, 0.11 11.63, 0 5.6 M0 5.6 C0.96 0.25, 3.51 -0.51, 5.6 0 M0 5.6 C0.31 3.83, 2.57 1.82, 5.6 0" stroke="#000000" stroke-width="1" fill="none"></path></g><g stroke-linecap="round" transform="translate(623.7792851828033 239.41862824173162) rotate(0 63.250273887410685 11.193396510697085)"><path d="M1.49 1.3 C1.49 1.3, 1.49 1.3, 1.49 1.3 M1.49 1.3 C1.49 1.3, 1.49 1.3, 1.49 1.3 M1.88 6.94 C4.02 5.79, 4.45 3.38, 7.13 0.9 M1.88 6.94 C2.95 5.74, 4.33 4.01, 7.13 0.9 M1.62 13.34 C5.59 11.12, 7.61 5.91, 12.12 1.26 M1.62 13.34 C5.41 10.24, 7.74 5.77, 12.12 1.26 M1.36 19.73 C5.97 16.56, 7.59 11.93, 17.76 0.87 M1.36 19.73 C5.18 14.9, 7.9 11.87, 17.76 0.87 M3.72 23.11 C7.69 18.66, 13.87 11.49, 22.75 1.23 M3.72 23.11 C10.59 15.92, 19 6.94, 22.75 1.23 M9.37 22.72 C15.57 14.83, 20.63 10.9, 27.74 1.59 M9.37 22.72 C15.73 16.22, 22.57 8.81, 27.74 1.59 M14.35 23.08 C19.99 15.62, 27.64 10.39, 33.38 1.19 M14.35 23.08 C19.65 18.2, 23.33 12.71, 33.38 1.19 M20 22.68 C26.56 15.38, 29.82 11.6, 38.37 1.55 M20 22.68 C25.39 17.64, 29.49 11.26, 38.37 1.55 M24.98 23.04 C32.13 14, 40.78 6.47, 44.01 1.16 M24.98 23.04 C30.66 17.27, 33.52 13.05, 44.01 1.16 M30.63 22.65 C36.3 15.79, 40.34 10.74, 49 1.52 M30.63 22.65 C38.41 14.77, 44.11 6.98, 49 1.52 M35.61 23.01 C43.52 12.48, 50.34 4.45, 54.64 1.12 M35.61 23.01 C42.79 14.77, 50.16 6.58, 54.64 1.12 M41.26 22.61 C47.2 17.39, 52.28 6.78, 59.63 1.48 M41.26 22.61 C48.39 15.62, 53.36 7.75, 59.63 1.48 M46.24 22.97 C52.5 15.41, 55.57 11.08, 65.27 1.09 M46.24 22.97 C50.54 17.37, 56.12 11.19, 65.27 1.09 M51.89 22.58 C57.98 15.36, 63.15 12.11, 70.26 1.45 M51.89 22.58 C56.63 16.83, 60.99 11.96, 70.26 1.45 M56.87 22.94 C61.35 16.39, 64.84 12.53, 75.9 1.05 M56.87 22.94 C60.72 17.66, 66.4 12.47, 75.9 1.05 M61.86 23.3 C66.33 15.98, 71.25 11.11, 80.89 1.41 M61.86 23.3 C68.99 14.48, 74.78 7.4, 80.89 1.41 M67.5 22.91 C72.09 16.18, 73.98 15.26, 86.53 1.02 M67.5 22.91 C74.83 15.61, 79.7 7.66, 86.53 1.02 M72.49 23.27 C78.52 17.19, 83.72 12.21, 91.52 1.38 M72.49 23.27 C77.83 18.53, 80.99 11.8, 91.52 1.38 M78.13 22.87 C84.74 17.04, 89.74 9.66, 96.5 1.74 M78.13 22.87 C84.77 15.25, 91.6 7.98, 96.5 1.74 M83.12 23.23 C90.64 16.79, 96.38 8.64, 102.15 1.34 M83.12 23.23 C86.91 17.63, 92.49 12.01, 102.15 1.34 M88.76 22.84 C93.69 15.93, 97.86 13.51, 107.13 1.7 M88.76 22.84 C94.11 17.28, 98.57 11.62, 107.13 1.7 M93.75 23.2 C99.56 18.61, 102.21 11.87, 112.78 1.31 M93.75 23.2 C98.79 16.87, 104.85 10.82, 112.78 1.31 M99.4 22.8 C106.32 18.18, 109.07 11.29, 117.76 1.67 M99.4 22.8 C105.64 15.59, 113.74 7.85, 117.76 1.67 M104.38 23.16 C109.24 15.32, 119.55 6.66, 124.06 0.52 M104.38 23.16 C111.31 15.49, 118.59 6.94, 124.06 0.52 M110.03 22.77 C116.98 17.45, 124.25 9.45, 126.43 3.9 M110.03 22.77 C116.72 16.22, 121.6 8.65, 126.43 3.9 M115.01 23.13 C119.49 18.43, 123.65 13.29, 126.82 9.54 M115.01 23.13 C119.8 19.45, 122.4 14.62, 126.82 9.54 M120.66 22.73 C123.11 19.65, 124.48 18.17, 126.56 15.94 M120.66 22.73 C123.1 19.93, 125.39 17.58, 126.56 15.94 M3.27 22.15 C3.27 22.15, 3.27 22.15, 3.27 22.15 M3.27 22.15 C3.27 22.15, 3.27 22.15, 3.27 22.15 M8.92 21.75 C7.49 20.6, 6.74 18.98, 2.88 16.5 M8.92 21.75 C6.5 19.99, 4.33 17.42, 2.88 16.5 M15.31 22.01 C9.68 19.99, 6.12 16.17, 2.48 10.86 M15.31 22.01 C10.85 18.41, 8.27 16.09, 2.48 10.86 M21.71 22.27 C14.59 15.71, 11.08 12.09, 1.34 4.56 M21.71 22.27 C17.52 18.42, 12.89 14.21, 1.34 4.56 M27.36 21.88 C20.51 16.82, 17.51 11.68, 2.45 0.23 M27.36 21.88 C19.97 16, 13.1 9.14, 2.45 0.23 M33.75 22.14 C28.09 16.45, 21.22 8.86, 6.58 -1.48 M33.75 22.14 C26.05 14.3, 17.81 7.54, 6.58 -1.48 M40.15 22.4 C36.31 16.45, 30.03 12.21, 12.98 -1.22 M40.15 22.4 C33.16 15.19, 23.98 7.83, 12.98 -1.22 M45.79 22.01 C37.23 14.81, 24.63 5.43, 18.62 -1.61 M45.79 22.01 C37.8 13.8, 27.67 6.61, 18.62 -1.61 M52.19 22.27 C45.63 17, 36.18 9.69, 25.02 -1.35 M52.19 22.27 C43.29 14.93, 33.52 5.62, 25.02 -1.35 M57.84 21.88 C49.76 14.12, 38.87 6.42, 31.42 -1.09 M57.84 21.88 C51.04 16.64, 43.66 9.26, 31.42 -1.09 M64.23 22.14 C54.77 13.87, 42.44 3.22, 37.06 -1.48 M64.23 22.14 C54.16 14.28, 44.84 6.07, 37.06 -1.48 M70.63 22.4 C59.49 15.93, 52.75 3.93, 43.46 -1.22 M70.63 22.4 C63.75 17.91, 59.35 12.44, 43.46 -1.22 M76.27 22 C67.53 13.56, 54.08 1.78, 49.86 -0.96 M76.27 22 C69.6 16.89, 65.22 12.41, 49.86 -0.96 M82.67 22.26 C70.38 12.37, 63.31 3.55, 55.5 -1.35 M82.67 22.26 C76.37 17.84, 70.68 12.91, 55.5 -1.35 M89.07 22.53 C82.38 15.31, 74.22 9.01, 61.9 -1.09 M89.07 22.53 C78.49 12.45, 68.12 3.91, 61.9 -1.09 M94.71 22.13 C88.89 18.81, 83.16 12.62, 68.3 -0.83 M94.71 22.13 C86.3 13.7, 76.06 7.15, 68.3 -0.83 M101.11 22.39 C88.4 14.55, 80.03 2.89, 73.94 -1.22 M101.11 22.39 C93.55 15.39, 88.37 9.47, 73.94 -1.22 M107.51 22.65 C98.14 13.88, 90.6 7.41, 80.34 -0.96 M107.51 22.65 C101.08 17.61, 94.76 10.8, 80.34 -0.96 M113.15 22.26 C105.52 16.73, 96.47 8.29, 85.98 -1.36 M113.15 22.26 C103.88 14.23, 94.01 5.9, 85.98 -1.36 M119.55 22.52 C109.42 13.62, 104.66 8.52, 92.38 -1.1 M119.55 22.52 C109.98 14.19, 97.66 3.69, 92.38 -1.1 M122.93 20.16 C114.49 12.51, 105.57 3.75, 98.78 -0.84 M122.93 20.16 C117.93 16.34, 111.82 11.58, 98.78 -0.84 M127.06 18.45 C119.08 10.28, 111.74 3.54, 104.42 -1.23 M127.06 18.45 C121.37 13.94, 116.69 8.74, 104.42 -1.23 M126.67 12.81 C120.51 7.38, 114.73 3.44, 110.82 -0.97 M126.67 12.81 C121.97 9.46, 117.98 5.02, 110.82 -0.97 M127.03 7.82 C124.14 5.45, 121.44 1.53, 117.22 -0.71 M127.03 7.82 C124.6 4.98, 121.05 2.86, 117.22 -0.71" stroke="#40c057" stroke-width="0.5" fill="none"></path><path d="M5.6 0 M5.6 0 C32.76 1.58, 62.79 -0.25, 120.9 0 M5.6 0 C30.73 -1.76, 56.34 -0.08, 120.9 0 M120.9 0 C126.38 1.77, 124.91 2.25, 126.5 5.6 M120.9 0 C123.95 1.92, 128.36 0.41, 126.5 5.6 M126.5 5.6 C127.29 9.37, 127.16 12.4, 126.5 16.79 M126.5 5.6 C125.88 7.82, 125.95 11.23, 126.5 16.79 M126.5 16.79 C128.28 21.2, 123.36 23.71, 120.9 22.39 M126.5 16.79 C126.97 19.48, 122.34 21.3, 120.9 22.39 M120.9 22.39 C85.47 21.62, 54.89 21.19, 5.6 22.39 M120.9 22.39 C90.89 22.42, 60.25 22.06, 5.6 22.39 M5.6 22.39 C-0.01 20.93, -1.48 21.14, 0 16.79 M5.6 22.39 C1.39 20.3, -1.8 19.99, 0 16.79 M0 16.79 C0.49 13.91, -0.65 11.05, 0 5.6 M0 16.79 C0.1 14.37, -0.38 12.45, 0 5.6 M0 5.6 C-0.83 3.56, 3.49 -0.34, 5.6 0 M0 5.6 C-1.46 3.94, 1.03 1.14, 5.6 0" stroke="#000000" stroke-width="1" fill="none"></path></g><g stroke-linecap="round" transform="translate(612.320725042784 417.07993407987294) rotate(0 63.250273887410685 11.193396510697085)"><path d="M1.49 1.3 C1.49 1.3, 1.49 1.3, 1.49 1.3 M1.49 1.3 C1.49 1.3, 1.49 1.3, 1.49 1.3 M1.88 6.94 C2.66 4.86, 4.88 4.86, 7.13 0.9 M1.88 6.94 C3.76 4.76, 6.05 2.45, 7.13 0.9 M1.62 13.34 C3.99 11.85, 6.18 7.67, 12.12 1.26 M1.62 13.34 C5.19 9.51, 8.34 5.05, 12.12 1.26 M1.36 19.73 C6.8 15.27, 11.27 8.87, 17.76 0.87 M1.36 19.73 C7.69 13.32, 11.93 6.81, 17.76 0.87 M3.72 23.11 C12.83 13.28, 19.89 5.73, 22.75 1.23 M3.72 23.11 C9.54 16.26, 16.96 8.5, 22.75 1.23 M9.37 22.72 C14.13 17.17, 22.1 6.64, 27.74 1.59 M9.37 22.72 C14.8 16.71, 19.55 10.01, 27.74 1.59 M14.35 23.08 C17.78 18.99, 21.51 12.83, 33.38 1.19 M14.35 23.08 C19.63 16.5, 23.58 11.2, 33.38 1.19 M20 22.68 C27.54 15.73, 32.75 6.7, 38.37 1.55 M20 22.68 C23.16 18.68, 27.37 12.96, 38.37 1.55 M24.98 23.04 C28.87 17.58, 34.63 10.55, 44.01 1.16 M24.98 23.04 C29.88 16.47, 34.36 12.21, 44.01 1.16 M30.63 22.65 C37.18 17.04, 41.6 12.1, 49 1.52 M30.63 22.65 C36.26 13.96, 43.05 7.06, 49 1.52 M35.61 23.01 C42.9 14.29, 48.28 9.27, 54.64 1.12 M35.61 23.01 C43.81 15, 49.85 6.83, 54.64 1.12 M41.26 22.61 C48.26 13.76, 55.5 5.45, 59.63 1.48 M41.26 22.61 C47.15 15.85, 51.16 10.94, 59.63 1.48 M46.24 22.97 C53.62 14.91, 58.39 9.52, 65.27 1.09 M46.24 22.97 C50.43 18.43, 54.47 14.79, 65.27 1.09 M51.89 22.58 C59.19 17.64, 61.04 8.36, 70.26 1.45 M51.89 22.58 C59.69 15.17, 66.65 6.96, 70.26 1.45 M56.87 22.94 C62.73 15.72, 64.93 10.11, 75.9 1.05 M56.87 22.94 C60.7 19.31, 65.61 14.47, 75.9 1.05 M61.86 23.3 C66.93 17.57, 73.41 7.32, 80.89 1.41 M61.86 23.3 C68.96 15.72, 75.91 7.98, 80.89 1.41 M67.5 22.91 C72.47 18.65, 78.29 13.15, 86.53 1.02 M67.5 22.91 C71.74 17.25, 77.34 10.56, 86.53 1.02 M72.49 23.27 C79.59 15.93, 84.14 10.55, 91.52 1.38 M72.49 23.27 C77.15 16.57, 83.97 11.65, 91.52 1.38 M78.13 22.87 C85.89 16.38, 89.71 7.9, 96.5 1.74 M78.13 22.87 C81.89 18.5, 86.64 12.61, 96.5 1.74 M83.12 23.23 C87.97 18.64, 94.89 9.71, 102.15 1.34 M83.12 23.23 C87.92 18.32, 91.11 13.41, 102.15 1.34 M88.76 22.84 C94.81 18.07, 98.28 13.65, 107.13 1.7 M88.76 22.84 C94.23 16.81, 99.44 10.83, 107.13 1.7 M93.75 23.2 C98.93 16.64, 108.19 8.41, 112.78 1.31 M93.75 23.2 C99.49 16.79, 102.82 13.26, 112.78 1.31 M99.4 22.8 C106.78 16.39, 113.29 4.95, 117.76 1.67 M99.4 22.8 C105.86 16.03, 111.25 10.43, 117.76 1.67 M104.38 23.16 C110.05 14.81, 117 5.6, 124.06 0.52 M104.38 23.16 C110.84 16.89, 116.53 9.33, 124.06 0.52 M110.03 22.77 C114.08 14.76, 119.8 10.52, 126.43 3.9 M110.03 22.77 C114.72 19.09, 118.14 14.12, 126.43 3.9 M115.01 23.13 C118.45 19.7, 119.86 15.65, 126.82 9.54 M115.01 23.13 C117.33 20.02, 120.66 16.48, 126.82 9.54 M120.66 22.73 C122.98 21.55, 123.85 18.14, 126.56 15.94 M120.66 22.73 C121.78 20.79, 124.14 19.47, 126.56 15.94 M3.27 22.15 C3.27 22.15, 3.27 22.15, 3.27 22.15 M3.27 22.15 C3.27 22.15, 3.27 22.15, 3.27 22.15 M8.92 21.75 C6.77 19.82, 5.41 19.57, 2.88 16.5 M8.92 21.75 C6.81 19.75, 4.02 17.23, 2.88 16.5 M15.31 22.01 C10.77 17.55, 8.95 17.17, 2.48 10.86 M15.31 22.01 C12.08 19.29, 7.63 15.91, 2.48 10.86 M21.71 22.27 C16.02 18.94, 12.71 12.7, 1.34 4.56 M21.71 22.27 C16.94 17.31, 13.12 13.89, 1.34 4.56 M27.36 21.88 C21.75 18.42, 15.99 11.21, 2.45 0.23 M27.36 21.88 C22.18 17.51, 15.32 10.98, 2.45 0.23 M33.75 22.14 C24.53 11.51, 11.96 3.48, 6.58 -1.48 M33.75 22.14 C23.9 13.6, 12.71 4.73, 6.58 -1.48 M40.15 22.4 C36.12 15.43, 26.83 10.39, 12.98 -1.22 M40.15 22.4 C33.26 16.86, 27.84 11.99, 12.98 -1.22 M45.79 22.01 C40.69 17.61, 34.69 10.47, 18.62 -1.61 M45.79 22.01 C36.53 15.34, 27.88 6.06, 18.62 -1.61 M52.19 22.27 C45.86 16.76, 35.55 10.63, 25.02 -1.35 M52.19 22.27 C44.16 17.05, 37.05 10.37, 25.02 -1.35 M57.84 21.88 C51.43 17.46, 45.93 12.19, 31.42 -1.09 M57.84 21.88 C48.32 13.84, 41.02 6.97, 31.42 -1.09 M64.23 22.14 C52.07 14.95, 44.12 4.25, 37.06 -1.48 M64.23 22.14 C54.39 13.45, 43.56 4.05, 37.06 -1.48 M70.63 22.4 C59.78 14.9, 50.72 5.91, 43.46 -1.22 M70.63 22.4 C61.87 15.16, 55.65 9.01, 43.46 -1.22 M76.27 22 C68.91 15.27, 60.67 6.62, 49.86 -0.96 M76.27 22 C69.14 14.47, 60.45 8.69, 49.86 -0.96 M82.67 22.26 C73.97 12.57, 60.69 2.8, 55.5 -1.35 M82.67 22.26 C73.6 14.57, 66.44 7.74, 55.5 -1.35 M89.07 22.53 C84.97 17.74, 77.52 12.77, 61.9 -1.09 M89.07 22.53 C79.94 13.8, 69.99 5.34, 61.9 -1.09 M94.71 22.13 C86.31 14.92, 79.1 6.35, 68.3 -0.83 M94.71 22.13 C85.78 15.14, 77.19 6.39, 68.3 -0.83 M101.11 22.39 C94.76 16.38, 83.81 9.24, 73.94 -1.22 M101.11 22.39 C93.28 15.81, 85.62 8.44, 73.94 -1.22 M107.51 22.65 C95.4 15.18, 85.57 5.57, 80.34 -0.96 M107.51 22.65 C99 16.28, 90.58 8.12, 80.34 -0.96 M113.15 22.26 C107.43 16.88, 100.22 10.78, 85.98 -1.36 M113.15 22.26 C102.58 13.49, 92.51 5.12, 85.98 -1.36 M119.55 22.52 C110.55 14.64, 105.6 8.57, 92.38 -1.1 M119.55 22.52 C113.02 18.49, 108.57 12.3, 92.38 -1.1 M122.93 20.16 C112.44 10.27, 102.3 4.68, 98.78 -0.84 M122.93 20.16 C118.56 15.49, 113 10.49, 98.78 -0.84 M127.06 18.45 C120.24 11.52, 111.23 4.3, 104.42 -1.23 M127.06 18.45 C121.43 14.28, 116.85 9.87, 104.42 -1.23 M126.67 12.81 C120.11 9.58, 116.38 5.16, 110.82 -0.97 M126.67 12.81 C122.19 9.83, 116.44 5.68, 110.82 -0.97 M127.03 7.82 C123.84 7.09, 122.48 5.33, 117.22 -0.71 M127.03 7.82 C124.99 6.63, 123.2 3.72, 117.22 -0.71" stroke="#40c057" stroke-width="0.5" fill="none"></path><path d="M5.6 0 M5.6 0 C32.62 -1.37, 62.52 -0.23, 120.9 0 M5.6 0 C43.39 -1.37, 82.15 -0.56, 120.9 0 M120.9 0 C125.79 -0.18, 124.79 0.3, 126.5 5.6 M120.9 0 C124.8 0.12, 127.19 2.65, 126.5 5.6 M126.5 5.6 C125.64 10.53, 127.41 13.45, 126.5 16.79 M126.5 5.6 C126.69 8.66, 126.44 12.41, 126.5 16.79 M126.5 16.79 C126.47 19.32, 122.81 22.28, 120.9 22.39 M126.5 16.79 C128.12 20.65, 125.26 23.05, 120.9 22.39 M120.9 22.39 C97.69 19.83, 73.18 20.42, 5.6 22.39 M120.9 22.39 C88.79 21.85, 57.38 21.81, 5.6 22.39 M5.6 22.39 C1.73 20.74, -0.74 18.85, 0 16.79 M5.6 22.39 C3.65 24.68, -0.06 19.89, 0 16.79 M0 16.79 C0.75 13.29, 0.44 9.53, 0 5.6 M0 16.79 C0.4 13.59, -0.18 10.03, 0 5.6 M0 5.6 C1.67 1.18, 3.82 0.97, 5.6 0 M0 5.6 C1.21 4.13, 3.92 -1.08, 5.6 0" stroke="#000000" stroke-width="1" fill="none"></path></g><g stroke-linecap="round" transform="translate(749.5578740498888 64.31325870785858) rotate(0 63.250273887410685 11.193396510697085)"><path d="M1.49 1.3 C1.49 1.3, 1.49 1.3, 1.49 1.3 M1.49 1.3 C1.49 1.3, 1.49 1.3, 1.49 1.3 M1.88 6.94 C3.9 5.7, 4.45 4.13, 7.13 0.9 M1.88 6.94 C2.92 5.29, 4.43 4.04, 7.13 0.9 M1.62 13.34 C6.76 8.31, 10.81 3.33, 12.12 1.26 M1.62 13.34 C5.81 8.83, 8.51 5.25, 12.12 1.26 M1.36 19.73 C5.8 13.27, 14.73 4.33, 17.76 0.87 M1.36 19.73 C4.31 15.18, 8.75 11.63, 17.76 0.87 M3.72 23.11 C9.55 16.36, 16.32 8.5, 22.75 1.23 M3.72 23.11 C10.25 16.61, 14.4 10.36, 22.75 1.23 M9.37 22.72 C14.39 16.78, 19.23 12.97, 27.74 1.59 M9.37 22.72 C15.1 15.83, 19.29 11.19, 27.74 1.59 M14.35 23.08 C19.97 14.66, 28.04 7.97, 33.38 1.19 M14.35 23.08 C18.37 18.34, 22.57 12.91, 33.38 1.19 M20 22.68 C25.79 17.13, 31.51 11.6, 38.37 1.55 M20 22.68 C24.73 16.96, 29.38 11.28, 38.37 1.55 M24.98 23.04 C29.9 17.58, 38.14 8.22, 44.01 1.16 M24.98 23.04 C32.85 13.66, 40.52 6.12, 44.01 1.16 M30.63 22.65 C34.27 17.79, 40.24 10.83, 49 1.52 M30.63 22.65 C36.82 15.24, 42.57 7.46, 49 1.52 M35.61 23.01 C42.4 14.94, 48.54 8.74, 54.64 1.12 M35.61 23.01 C39.19 17.74, 44.5 13.7, 54.64 1.12 M41.26 22.61 C48.16 17.89, 51.72 12.13, 59.63 1.48 M41.26 22.61 C45.44 16.45, 52.34 10.61, 59.63 1.48 M46.24 22.97 C55.76 15.05, 60.65 7.66, 65.27 1.09 M46.24 22.97 C52.86 15.19, 61.4 6.52, 65.27 1.09 M51.89 22.58 C57.29 14.69, 65.18 8.2, 70.26 1.45 M51.89 22.58 C55.2 16.56, 60.74 12.29, 70.26 1.45 M56.87 22.94 C62.78 16.26, 68.5 11.2, 75.9 1.05 M56.87 22.94 C63.21 15.28, 69.1 8.49, 75.9 1.05 M61.86 23.3 C66.45 19.85, 72.18 12.97, 80.89 1.41 M61.86 23.3 C66.64 17.87, 71.15 11.49, 80.89 1.41 M67.5 22.91 C73.36 18.28, 75.07 14.3, 86.53 1.02 M67.5 22.91 C75.5 13.78, 82.44 6.52, 86.53 1.02 M72.49 23.27 C78.96 17.03, 84.86 9.33, 91.52 1.38 M72.49 23.27 C78.9 16.9, 84.07 9.22, 91.52 1.38 M78.13 22.87 C81.93 15.83, 89.86 13.15, 96.5 1.74 M78.13 22.87 C81.88 17.78, 87.53 12.27, 96.5 1.74 M83.12 23.23 C85.2 18.46, 92.82 12.16, 102.15 1.34 M83.12 23.23 C88.39 16.24, 94.6 9.03, 102.15 1.34 M88.76 22.84 C95.56 16.41, 103.67 8.37, 107.13 1.7 M88.76 22.84 C94.91 17.56, 98.56 10.88, 107.13 1.7 M93.75 23.2 C100.41 16.97, 104.65 12.62, 112.78 1.31 M93.75 23.2 C100.6 15.33, 109.58 6.41, 112.78 1.31 M99.4 22.8 C101.98 18.67, 110.08 14.32, 117.76 1.67 M99.4 22.8 C104.64 17.38, 107.4 13.23, 117.76 1.67 M104.38 23.16 C111.8 15.43, 114.63 7.49, 124.06 0.52 M104.38 23.16 C108.4 18.24, 114.64 13.12, 124.06 0.52 M110.03 22.77 C112.42 19.36, 116.87 15.05, 126.43 3.9 M110.03 22.77 C115.48 17.1, 121.03 11.74, 126.43 3.9 M115.01 23.13 C117.32 18.82, 123.65 15.86, 126.82 9.54 M115.01 23.13 C118.19 19.18, 122.35 15.81, 126.82 9.54 M120.66 22.73 C121.78 21.56, 124.03 18.51, 126.56 15.94 M120.66 22.73 C122.5 20.54, 123.51 19.48, 126.56 15.94 M3.27 22.15 C3.27 22.15, 3.27 22.15, 3.27 22.15 M3.27 22.15 C3.27 22.15, 3.27 22.15, 3.27 22.15 M8.92 21.75 C7.67 20.89, 5.48 19.48, 2.88 16.5 M8.92 21.75 C6.79 19.85, 4.4 17.85, 2.88 16.5 M15.31 22.01 C11.59 18.78, 7.49 14.75, 2.48 10.86 M15.31 22.01 C11.4 18.75, 8.22 14.94, 2.48 10.86 M21.71 22.27 C16.76 16.53, 11.67 14.94, 1.34 4.56 M21.71 22.27 C17.36 19.17, 12.83 14.91, 1.34 4.56 M27.36 21.88 C18.03 14.97, 12.66 6.66, 2.45 0.23 M27.36 21.88 C21.31 16.95, 17.02 11.66, 2.45 0.23 M33.75 22.14 C23.59 15.11, 18.29 6.75, 6.58 -1.48 M33.75 22.14 C25.07 15.43, 17.85 7.38, 6.58 -1.48 M40.15 22.4 C32.15 17.49, 24.05 10.22, 12.98 -1.22 M40.15 22.4 C32.61 15.65, 26.2 11.55, 12.98 -1.22 M45.79 22.01 C39.22 15.95, 35.46 11.22, 18.62 -1.61 M45.79 22.01 C38.2 14.43, 31.29 7.78, 18.62 -1.61 M52.19 22.27 C46.62 16.49, 37.86 10.4, 25.02 -1.35 M52.19 22.27 C44.08 14.54, 34.96 5.92, 25.02 -1.35 M57.84 21.88 C46.7 12.68, 38.7 3.9, 31.42 -1.09 M57.84 21.88 C50.51 14.67, 42.63 7.78, 31.42 -1.09 M64.23 22.14 C55.94 18.18, 49.01 10.92, 37.06 -1.48 M64.23 22.14 C56.35 14.58, 47.16 6.81, 37.06 -1.48 M70.63 22.4 C64 17.76, 57.03 8.68, 43.46 -1.22 M70.63 22.4 C63.96 17.06, 58.87 10.83, 43.46 -1.22 M76.27 22 C70.88 18.01, 67.22 12.81, 49.86 -0.96 M76.27 22 C69.64 16.07, 63.49 10.47, 49.86 -0.96 M82.67 22.26 C74.74 16.12, 66.53 8.19, 55.5 -1.35 M82.67 22.26 C77.1 17.64, 70.08 11.78, 55.5 -1.35 M89.07 22.53 C81.95 16.44, 74.75 9.76, 61.9 -1.09 M89.07 22.53 C79.58 14.83, 70.46 6.69, 61.9 -1.09 M94.71 22.13 C88.46 16.45, 76.9 8.27, 68.3 -0.83 M94.71 22.13 C87.57 14.64, 79.47 8.04, 68.3 -0.83 M101.11 22.39 C91.91 16.23, 86.08 10.5, 73.94 -1.22 M101.11 22.39 C95.09 18, 89.3 12.75, 73.94 -1.22 M107.51 22.65 C101.55 18.58, 96.11 12.35, 80.34 -0.96 M107.51 22.65 C96.77 13.46, 87.97 5.43, 80.34 -0.96 M113.15 22.26 C104.78 15.55, 97.74 10.83, 85.98 -1.36 M113.15 22.26 C102.17 13.75, 91.05 4.08, 85.98 -1.36 M119.55 22.52 C109.97 14.86, 98.42 6.2, 92.38 -1.1 M119.55 22.52 C112.12 16.05, 104.56 10.4, 92.38 -1.1 M122.93 20.16 C113.58 11.47, 104.79 5.12, 98.78 -0.84 M122.93 20.16 C117.46 16.22, 112.77 12.11, 98.78 -0.84 M127.06 18.45 C119.75 12.5, 117.12 9.98, 104.42 -1.23 M127.06 18.45 C120.61 14.66, 115.8 8.33, 104.42 -1.23 M126.67 12.81 C124.93 10.61, 120.73 6.35, 110.82 -0.97 M126.67 12.81 C120.73 8.76, 114.67 3.09, 110.82 -0.97 M127.03 7.82 C123.48 4.43, 118.65 1.31, 117.22 -0.71 M127.03 7.82 C124.23 5.57, 121.06 2.6, 117.22 -0.71" stroke="#fa5252" stroke-width="0.5" fill="none"></path><path d="M5.6 0 M5.6 0 C51.33 -1.45, 94.72 0.3, 120.9 0 M5.6 0 C41.9 0.04, 75.39 0.72, 120.9 0 M120.9 0 C123.25 1.2, 126.2 2.61, 126.5 5.6 M120.9 0 C125.27 -2.07, 125.26 2.7, 126.5 5.6 M126.5 5.6 C127.18 8.93, 125.71 14.24, 126.5 16.79 M126.5 5.6 C125.95 9.2, 126.48 12.57, 126.5 16.79 M126.5 16.79 C125.98 18.8, 123.1 24.08, 120.9 22.39 M126.5 16.79 C124.56 19.79, 125.37 21.06, 120.9 22.39 M120.9 22.39 C88.39 21.78, 57.08 19.67, 5.6 22.39 M120.9 22.39 C92.9 21.58, 64.2 20.71, 5.6 22.39 M5.6 22.39 C1.96 20.49, -0.15 21.23, 0 16.79 M5.6 22.39 C0.44 23.3, -0.42 18.24, 0 16.79 M0 16.79 C-0.76 14.11, -0.48 10.47, 0 5.6 M0 16.79 C-0.08 13.47, -0.4 11.36, 0 5.6 M0 5.6 C-0.97 2.16, 3.77 1.96, 5.6 0 M0 5.6 C-0.14 3.9, 2.16 1.35, 5.6 0" stroke="#000000" stroke-width="1" fill="none"></path></g><g stroke-linecap="round" transform="translate(755.847975965178 239.2899694479057) rotate(0 63.250273887410685 11.193396510697085)"><path d="M1.49 1.3 C1.49 1.3, 1.49 1.3, 1.49 1.3 M1.49 1.3 C1.49 1.3, 1.49 1.3, 1.49 1.3 M1.88 6.94 C3.63 5.04, 4.13 3.67, 7.13 0.9 M1.88 6.94 C3.24 5.62, 4.07 4.12, 7.13 0.9 M1.62 13.34 C6.21 9.43, 7.82 5.37, 12.12 1.26 M1.62 13.34 C4.44 10.41, 5.87 7.09, 12.12 1.26 M1.36 19.73 C6.6 13.78, 10.38 7.68, 17.76 0.87 M1.36 19.73 C4.59 14.55, 9.64 9.97, 17.76 0.87 M3.72 23.11 C12.48 14.57, 18.49 9.23, 22.75 1.23 M3.72 23.11 C8.63 19.53, 11.77 14.29, 22.75 1.23 M9.37 22.72 C12.62 17.18, 19.85 12.93, 27.74 1.59 M9.37 22.72 C16.92 15.55, 23.58 7.33, 27.74 1.59 M14.35 23.08 C20.18 17.07, 28.22 7.5, 33.38 1.19 M14.35 23.08 C21.49 15.08, 28.03 7.25, 33.38 1.19 M20 22.68 C24.15 15.56, 31.84 10.06, 38.37 1.55 M20 22.68 C26.79 15.05, 32.22 10.25, 38.37 1.55 M24.98 23.04 C30.41 17.08, 37.37 8.75, 44.01 1.16 M24.98 23.04 C29.3 16.54, 35.18 11.41, 44.01 1.16 M30.63 22.65 C33.54 17.83, 38.25 13.47, 49 1.52 M30.63 22.65 C34.48 17.77, 38.44 14.02, 49 1.52 M35.61 23.01 C38.03 17.63, 42.95 14.73, 54.64 1.12 M35.61 23.01 C41.3 16.45, 47.07 11.18, 54.64 1.12 M41.26 22.61 C47.67 16.02, 48.68 12.89, 59.63 1.48 M41.26 22.61 C46.3 16.5, 50.47 10.66, 59.63 1.48 M46.24 22.97 C50.01 15.66, 56.99 9.6, 65.27 1.09 M46.24 22.97 C53.03 15.52, 59.24 7.15, 65.27 1.09 M51.89 22.58 C57.35 15.85, 66.8 5.68, 70.26 1.45 M51.89 22.58 C55.55 17.63, 60.1 12.31, 70.26 1.45 M56.87 22.94 C61.76 14.74, 69.31 7.64, 75.9 1.05 M56.87 22.94 C61.04 18.43, 65.33 13.29, 75.9 1.05 M61.86 23.3 C67.23 14.8, 75.03 9.02, 80.89 1.41 M61.86 23.3 C67.07 15.4, 74.03 8.33, 80.89 1.41 M67.5 22.91 C69.87 15.95, 78.05 13.5, 86.53 1.02 M67.5 22.91 C73.44 15.39, 78.75 8.87, 86.53 1.02 M72.49 23.27 C78.01 17.45, 84.62 9.53, 91.52 1.38 M72.49 23.27 C79.74 14.79, 85.01 8.06, 91.52 1.38 M78.13 22.87 C86.37 14.18, 93.08 7.91, 96.5 1.74 M78.13 22.87 C83.76 16.7, 89.74 10.02, 96.5 1.74 M83.12 23.23 C90.07 16.52, 95.33 8.83, 102.15 1.34 M83.12 23.23 C90.53 14.7, 97.94 5.89, 102.15 1.34 M88.76 22.84 C93.98 14.81, 103.64 7.63, 107.13 1.7 M88.76 22.84 C93.23 17.41, 97.6 13.34, 107.13 1.7 M93.75 23.2 C101.11 14.32, 106.35 8.82, 112.78 1.31 M93.75 23.2 C98.7 17.82, 103.95 10.67, 112.78 1.31 M99.4 22.8 C105.1 16.84, 108.52 13.8, 117.76 1.67 M99.4 22.8 C104.27 18.71, 108.6 13.19, 117.76 1.67 M104.38 23.16 C109.41 19.07, 113.63 12.86, 124.06 0.52 M104.38 23.16 C111.6 15.44, 117.97 8.86, 124.06 0.52 M110.03 22.77 C117.33 18.27, 121.94 11.79, 126.43 3.9 M110.03 22.77 C115.8 15.89, 120.54 11.91, 126.43 3.9 M115.01 23.13 C118.72 18.89, 122 16.65, 126.82 9.54 M115.01 23.13 C118.53 19.43, 120.88 17.51, 126.82 9.54 M120.66 22.73 C121.53 20.4, 124.02 20.4, 126.56 15.94 M120.66 22.73 C122.77 20.29, 125.34 17.68, 126.56 15.94 M3.27 22.15 C3.27 22.15, 3.27 22.15, 3.27 22.15 M3.27 22.15 C3.27 22.15, 3.27 22.15, 3.27 22.15 M8.92 21.75 C6.95 20.73, 4.58 18.93, 2.88 16.5 M8.92 21.75 C7.09 19.95, 4.43 18.14, 2.88 16.5 M15.31 22.01 C11.64 16.32, 6.2 12.84, 2.48 10.86 M15.31 22.01 C10.5 18.44, 7.02 14.36, 2.48 10.86 M21.71 22.27 C13.22 17.71, 7.91 8.35, 1.34 4.56 M21.71 22.27 C16.29 17.28, 10.21 11.54, 1.34 4.56 M27.36 21.88 C20.97 17.47, 14.89 11.37, 2.45 0.23 M27.36 21.88 C21.07 15.02, 13.46 9.78, 2.45 0.23 M33.75 22.14 C24.11 14.53, 12.12 4.56, 6.58 -1.48 M33.75 22.14 C27.58 17.79, 22.44 11.56, 6.58 -1.48 M40.15 22.4 C31.27 16.82, 24.27 9.31, 12.98 -1.22 M40.15 22.4 C32.83 15.71, 25.07 10.99, 12.98 -1.22 M45.79 22.01 C40.89 16.21, 33.86 10.64, 18.62 -1.61 M45.79 22.01 C35.09 12.72, 25.55 4.92, 18.62 -1.61 M52.19 22.27 C44.07 13.16, 34.03 7.56, 25.02 -1.35 M52.19 22.27 C43 13.93, 31.66 5.12, 25.02 -1.35 M57.84 21.88 C47.63 12.58, 37.67 3.57, 31.42 -1.09 M57.84 21.88 C50.44 14.58, 41.18 9.14, 31.42 -1.09 M64.23 22.14 C56.33 13.76, 45.83 7.79, 37.06 -1.48 M64.23 22.14 C59.09 16.95, 53.82 12.97, 37.06 -1.48 M70.63 22.4 C64.21 16.35, 52.35 6.33, 43.46 -1.22 M70.63 22.4 C60.43 13.68, 49.39 4.49, 43.46 -1.22 M76.27 22 C70.41 14.86, 60.89 8.98, 49.86 -0.96 M76.27 22 C70.31 17.79, 65.44 12.71, 49.86 -0.96 M82.67 22.26 C72.37 15.52, 63.49 4.7, 55.5 -1.35 M82.67 22.26 C73.5 13.98, 64.2 5.63, 55.5 -1.35 M89.07 22.53 C82.03 18.16, 75.84 12.21, 61.9 -1.09 M89.07 22.53 C81.22 16.36, 74.74 9.21, 61.9 -1.09 M94.71 22.13 C87.59 14.39, 77.93 8.67, 68.3 -0.83 M94.71 22.13 C86.46 15.46, 80.39 10.23, 68.3 -0.83 M101.11 22.39 C93.56 14.63, 82.08 5.31, 73.94 -1.22 M101.11 22.39 C93.22 17.03, 86.32 10.5, 73.94 -1.22 M107.51 22.65 C99.37 17.54, 93.3 8.13, 80.34 -0.96 M107.51 22.65 C101.74 17.3, 94.37 11.99, 80.34 -0.96 M113.15 22.26 C108.22 17.08, 100.72 12.06, 85.98 -1.36 M113.15 22.26 C105.73 15.65, 98.04 8.97, 85.98 -1.36 M119.55 22.52 C107.07 14.89, 98.68 6.01, 92.38 -1.1 M119.55 22.52 C114.01 16.09, 106.05 12.14, 92.38 -1.1 M122.93 20.16 C114.04 14.06, 104.28 2.67, 98.78 -0.84 M122.93 20.16 C116.68 13.58, 109.36 8.02, 98.78 -0.84 M127.06 18.45 C117.32 11.1, 108.87 2.97, 104.42 -1.23 M127.06 18.45 C120.43 13.03, 113.04 6.38, 104.42 -1.23 M126.67 12.81 C120.25 6.27, 115.47 3.69, 110.82 -0.97 M126.67 12.81 C123.94 10.27, 119.96 6.47, 110.82 -0.97 M127.03 7.82 C124.38 5.71, 120.26 3.15, 117.22 -0.71 M127.03 7.82 C124.64 6.01, 122.98 3.74, 117.22 -0.71" stroke="#fa5252" stroke-width="0.5" fill="none"></path><path d="M5.6 0 M5.6 0 C40.1 2.01, 71.4 -1.23, 120.9 0 M5.6 0 C35.86 0.16, 68.74 1.31, 120.9 0 M120.9 0 C126.41 -1.59, 126.88 1.27, 126.5 5.6 M120.9 0 C126.56 1.86, 125.05 1.87, 126.5 5.6 M126.5 5.6 C126.96 10.25, 126.63 13.06, 126.5 16.79 M126.5 5.6 C126.06 7.5, 126.77 10.8, 126.5 16.79 M126.5 16.79 C127.18 19.24, 125.96 22.8, 120.9 22.39 M126.5 16.79 C125.46 18.22, 123.54 22.16, 120.9 22.39 M120.9 22.39 C82.21 22.11, 42.98 20.51, 5.6 22.39 M120.9 22.39 C74.53 22.98, 28.27 21.9, 5.6 22.39 M5.6 22.39 C0.41 20.91, 0.62 20.11, 0 16.79 M5.6 22.39 C-0.22 20.59, -0.53 18.69, 0 16.79 M0 16.79 C-0.32 13.08, -0.71 9.77, 0 5.6 M0 16.79 C-0.14 12.96, 0.34 9.62, 0 5.6 M0 5.6 C1.69 3.49, 1.52 -1.27, 5.6 0 M0 5.6 C2.08 1.03, 3 1.49, 5.6 0" stroke="#000000" stroke-width="1" fill="none"></path></g><g stroke-linecap="round" transform="translate(744.3894158251587 416.951275286047) rotate(0 63.250273887410685 11.193396510697085)"><path d="M1.49 1.3 C1.49 1.3, 1.49 1.3, 1.49 1.3 M1.49 1.3 C1.49 1.3, 1.49 1.3, 1.49 1.3 M1.88 6.94 C3.26 5.23, 6.71 2.91, 7.13 0.9 M1.88 6.94 C3.79 5.07, 5.55 2.82, 7.13 0.9 M1.62 13.34 C7.17 8.05, 10.03 4.88, 12.12 1.26 M1.62 13.34 C4.85 9.62, 7.44 6.35, 12.12 1.26 M1.36 19.73 C9.1 12.06, 14.9 6.9, 17.76 0.87 M1.36 19.73 C5.96 13.65, 10.47 10.25, 17.76 0.87 M3.72 23.11 C8.5 17.29, 15.55 9.99, 22.75 1.23 M3.72 23.11 C10.52 16.5, 16.37 9.3, 22.75 1.23 M9.37 22.72 C17.7 15.49, 21.04 7.19, 27.74 1.59 M9.37 22.72 C13.28 17.81, 16.51 12.68, 27.74 1.59 M14.35 23.08 C22.5 13.56, 28.55 5.55, 33.38 1.19 M14.35 23.08 C17.89 17.12, 22.68 13.86, 33.38 1.19 M20 22.68 C24.9 16.86, 27.74 11.8, 38.37 1.55 M20 22.68 C25.69 16.43, 29.68 10.19, 38.37 1.55 M24.98 23.04 C31.86 15.11, 37.19 7.93, 44.01 1.16 M24.98 23.04 C28.77 16.99, 34.88 12.06, 44.01 1.16 M30.63 22.65 C36.09 17.58, 42.25 10.34, 49 1.52 M30.63 22.65 C35.5 15.21, 42.17 9.35, 49 1.52 M35.61 23.01 C40.36 15.83, 48.83 10.21, 54.64 1.12 M35.61 23.01 C40.82 16.91, 45.89 12.17, 54.64 1.12 M41.26 22.61 C46.71 15.68, 52.73 8.26, 59.63 1.48 M41.26 22.61 C47.31 14.1, 55.23 7.73, 59.63 1.48 M46.24 22.97 C50.26 16.77, 56.95 9.76, 65.27 1.09 M46.24 22.97 C52.69 16, 60.02 7.81, 65.27 1.09 M51.89 22.58 C59.2 13.8, 62.16 10.81, 70.26 1.45 M51.89 22.58 C58.81 15.9, 64.92 8.33, 70.26 1.45 M56.87 22.94 C59.7 15.86, 64.16 10.99, 75.9 1.05 M56.87 22.94 C65.45 15.11, 72.78 6.1, 75.9 1.05 M61.86 23.3 C70.44 14.39, 74.48 8.32, 80.89 1.41 M61.86 23.3 C69.12 15.8, 76.23 6.37, 80.89 1.41 M67.5 22.91 C74.42 17.44, 80.12 9.47, 86.53 1.02 M67.5 22.91 C72.64 17.04, 76.75 11.53, 86.53 1.02 M72.49 23.27 C78.91 15.07, 87.29 6.91, 91.52 1.38 M72.49 23.27 C78.82 16.33, 86.94 8.03, 91.52 1.38 M78.13 22.87 C83.86 16.05, 87.58 10.13, 96.5 1.74 M78.13 22.87 C84.37 16.17, 89.05 10.97, 96.5 1.74 M83.12 23.23 C89.53 18.69, 91.59 10.74, 102.15 1.34 M83.12 23.23 C89.52 15.25, 95.9 8.06, 102.15 1.34 M88.76 22.84 C95.83 15.71, 103.25 6.79, 107.13 1.7 M88.76 22.84 C94.36 16.57, 100.02 10.6, 107.13 1.7 M93.75 23.2 C102.43 15.54, 109.42 6.51, 112.78 1.31 M93.75 23.2 C97.44 17.19, 104.02 12.87, 112.78 1.31 M99.4 22.8 C107.55 15.23, 110.7 7.79, 117.76 1.67 M99.4 22.8 C103.88 17.74, 109.55 11.88, 117.76 1.67 M104.38 23.16 C109.6 15.41, 113.97 11.22, 124.06 0.52 M104.38 23.16 C110.66 16.64, 115.66 10.57, 124.06 0.52 M110.03 22.77 C113.87 15.5, 121.47 8.34, 126.43 3.9 M110.03 22.77 C114.72 18.47, 118.12 13.14, 126.43 3.9 M115.01 23.13 C119.49 16.69, 123.36 12.26, 126.82 9.54 M115.01 23.13 C118.38 19.57, 121.34 15.04, 126.82 9.54 M120.66 22.73 C123.09 20.57, 123.29 18.6, 126.56 15.94 M120.66 22.73 C122.75 20.6, 125.46 18.14, 126.56 15.94 M3.27 22.15 C3.27 22.15, 3.27 22.15, 3.27 22.15 M3.27 22.15 C3.27 22.15, 3.27 22.15, 3.27 22.15 M8.92 21.75 C6.95 19.95, 6.69 20.2, 2.88 16.5 M8.92 21.75 C7.02 19.86, 4.52 18.1, 2.88 16.5 M15.31 22.01 C9.86 18.78, 8.57 15.19, 2.48 10.86 M15.31 22.01 C12.15 18.72, 8.57 15.47, 2.48 10.86 M21.71 22.27 C18.26 18.06, 11.63 13.26, 1.34 4.56 M21.71 22.27 C15.33 17.71, 10.2 11.79, 1.34 4.56 M27.36 21.88 C23.8 17.36, 16.08 10.73, 2.45 0.23 M27.36 21.88 C18.77 13.68, 7.84 6.5, 2.45 0.23 M33.75 22.14 C24.93 15.42, 18.95 11.38, 6.58 -1.48 M33.75 22.14 C25.77 14.57, 17.66 7.36, 6.58 -1.48 M40.15 22.4 C30.57 14.76, 23.25 8.24, 12.98 -1.22 M40.15 22.4 C34.04 17.32, 29.09 11.66, 12.98 -1.22 M45.79 22.01 C35.94 12.98, 22.87 3.94, 18.62 -1.61 M45.79 22.01 C37.09 13.73, 26.05 5.14, 18.62 -1.61 M52.19 22.27 C43.99 12.62, 34.96 5.54, 25.02 -1.35 M52.19 22.27 C47.03 16.14, 40.75 11.14, 25.02 -1.35 M57.84 21.88 C50.19 15.48, 41.68 6.87, 31.42 -1.09 M57.84 21.88 C48.22 14.45, 39.87 6.82, 31.42 -1.09 M64.23 22.14 C57.31 14.95, 46.95 8.39, 37.06 -1.48 M64.23 22.14 C58.25 16.25, 51.43 11.98, 37.06 -1.48 M70.63 22.4 C65.46 16.58, 58.51 10.42, 43.46 -1.22 M70.63 22.4 C63.82 17.37, 58.28 11.45, 43.46 -1.22 M76.27 22 C68.28 15.91, 57.94 5.99, 49.86 -0.96 M76.27 22 C68.98 15.78, 63.49 11.86, 49.86 -0.96 M82.67 22.26 C71.19 11.56, 59.44 3.97, 55.5 -1.35 M82.67 22.26 C73.56 14.73, 64.8 5.11, 55.5 -1.35 M89.07 22.53 C78.95 13.88, 69.1 7.29, 61.9 -1.09 M89.07 22.53 C79.89 15.47, 70.64 6.43, 61.9 -1.09 M94.71 22.13 C87.26 16.12, 78.32 10.01, 68.3 -0.83 M94.71 22.13 C88.99 16.85, 81.79 11.33, 68.3 -0.83 M101.11 22.39 C93.03 14.01, 83.96 6.71, 73.94 -1.22 M101.11 22.39 C94.3 16.43, 86.55 10.53, 73.94 -1.22 M107.51 22.65 C101.03 13.9, 91.93 7.74, 80.34 -0.96 M107.51 22.65 C101.52 16.4, 93.95 10.31, 80.34 -0.96 M113.15 22.26 C106.62 15.91, 99.16 11.92, 85.98 -1.36 M113.15 22.26 C107.59 16.24, 102.01 11.37, 85.98 -1.36 M119.55 22.52 C109 15.17, 100.17 4.77, 92.38 -1.1 M119.55 22.52 C110.94 15.01, 100.35 6.73, 92.38 -1.1 M122.93 20.16 C113.13 11.29, 107.63 4.41, 98.78 -0.84 M122.93 20.16 C117.38 16.35, 111.7 11.93, 98.78 -0.84 M127.06 18.45 C120.68 14.38, 114.23 5.52, 104.42 -1.23 M127.06 18.45 C121.39 13.2, 115.14 7.02, 104.42 -1.23 M126.67 12.81 C121.22 6.27, 114.57 1.58, 110.82 -0.97 M126.67 12.81 C121.38 6.4, 114.9 0.96, 110.82 -0.97 M127.03 7.82 C124.16 4, 120.35 -0.11, 117.22 -0.71 M127.03 7.82 C125.17 5.89, 121.63 3.32, 117.22 -0.71" stroke="#fa5252" stroke-width="0.5" fill="none"></path><path d="M5.6 0 M5.6 0 C39.07 1.22, 74.64 1.28, 120.9 0 M5.6 0 C36.99 0.73, 69.84 0.9, 120.9 0 M120.9 0 C124.45 -1.71, 124.93 2.01, 126.5 5.6 M120.9 0 C124.76 0.69, 127.29 3.34, 126.5 5.6 M126.5 5.6 C127.32 9.41, 126.17 11.26, 126.5 16.79 M126.5 5.6 C126.27 8.88, 126.7 12.28, 126.5 16.79 M126.5 16.79 C125.3 18.7, 124.53 23.8, 120.9 22.39 M126.5 16.79 C126.63 21.14, 125.3 20.25, 120.9 22.39 M120.9 22.39 C81.48 22.86, 44.23 22.38, 5.6 22.39 M120.9 22.39 C88.9 23.55, 56.81 22.49, 5.6 22.39 M5.6 22.39 C0.22 21.64, -1.67 22.07, 0 16.79 M5.6 22.39 C4.16 22.33, -0.63 21.98, 0 16.79 M0 16.79 C0.47 13.87, 0.78 10.29, 0 5.6 M0 16.79 C0.47 13.8, 0.48 11.76, 0 5.6 M0 5.6 C-0.69 3.82, 2.83 1.05, 5.6 0 M0 5.6 C2.26 3.92, 0.79 0.62, 5.6 0" stroke="#000000" stroke-width="1" fill="none"></path></g><g transform="translate(497.935186033083 10) rotate(0 16.675997883363493 6.176295512356845)"><text x="0" y="8.352591024713693" font-family="Virgil, Segoe UI Emoji" font-size="9.882072819770952px" fill="#000000" text-anchor="start" style="white-space: pre;" direction="ltr">parsing</text></g><g transform="translate(567.9767597846412 185.78672309331202) rotate(0 16.675997883363493 6.176295512356859)"><text x="0" y="8.352591024713693" font-family="Virgil, Segoe UI Emoji" font-size="9.882072819770952px" fill="#000000" text-anchor="start" style="white-space: pre;" direction="ltr">parsing</text></g><g transform="translate(544.2712038974605 362.73163900743714) rotate(0 16.675997883363493 6.176295512356859)"><text x="0" y="8.352591024713693" font-family="Virgil, Segoe UI Emoji" font-size="9.882072819770952px" fill="#000000" text-anchor="start" style="white-space: pre;" direction="ltr">parsing</text></g><g transform="translate(924.5414332825871 13.267468028643975) rotate(0 42.5 6.5)"><text x="0" y="9" font-family="Virgil, Segoe UI Emoji" font-size="9.882072819770952px" fill="#000000" text-anchor="start" style="white-space: pre;" direction="ltr">parsing continue...</text></g><g transform="translate(925.8978831568895 186.95443043385225) rotate(0 42.5 6.5)"><text x="0" y="9" font-family="Virgil, Segoe UI Emoji" font-size="9.882072819770952px" fill="#000000" text-anchor="start" style="white-space: pre;" direction="ltr">parsing continue...</text></g><g transform="translate(660.0702474514408 49.47815209121288) rotate(0 19 6.5)"><text x="0" y="9" font-family="Virgil, Segoe UI Emoji" font-size="9.882072819770952px" fill="#000000" text-anchor="start" style="white-space: pre;" direction="ltr">fetching</text></g><g transform="translate(665.4310417636284 226.42092320381792) rotate(0 19 6.5)"><text x="0" y="9" font-family="Virgil, Segoe UI Emoji" font-size="9.882072819770952px" fill="#000000" text-anchor="start" style="white-space: pre;" direction="ltr">fetching</text></g><g transform="translate(657.9959502073516 404.7706841135589) rotate(0 19 6.5)"><text x="0" y="9" font-family="Virgil, Segoe UI Emoji" font-size="9.882072819770952px" fill="#000000" text-anchor="start" style="white-space: pre;" direction="ltr">fetching</text></g><g transform="translate(787.3372705587649 49.517693832220374) rotate(0 23 6.5)"><text x="0" y="9" font-family="Virgil, Segoe UI Emoji" font-size="9.882072819770952px" fill="#000000" text-anchor="start" style="white-space: pre;" direction="ltr">execution</text></g><g transform="translate(790.7763227090109 226.07011106818103) rotate(0 23 6.5)"><text x="0" y="9" font-family="Virgil, Segoe UI Emoji" font-size="9.882072819770952px" fill="#000000" text-anchor="start" style="white-space: pre;" direction="ltr">execution</text></g><g transform="translate(778.7642247090023 402.9292349215052) rotate(0 23 6.499999999999972)"><text x="0" y="9" font-family="Virgil, Segoe UI Emoji" font-size="9.882072819770952px" fill="#000000" text-anchor="start" style="white-space: pre;" direction="ltr">execution</text></g></svg>